<!-- Generated by IcoMoon.io -->
<svg version="1.1" xmlns="http://www.w3.org/2000/svg" width="32" height="32" viewBox="0 0 32 32">
<path d="M22.17 1.65h4.726c0.843 0 1.525 0.68 1.525 1.52v0.725c-0.174-0.035 0.153-0.015-6.25-0.020v-2.225zM22.17 20.512v2.43c6.403 0.005 6.076-0.015 6.25 0.020v-13.928c-0.176 0.035 0.207 0.015-6.25 0.020v2.435c0.933 1.265 1.485 2.825 1.485 4.514 0 1.685-0.552 3.244-1.485 4.509zM22.17 28.121v2.225h4.726c0.843 0 1.525-0.68 1.525-1.515v-0.73c-0.176 0.035 0.207 0.015-6.25 0.020zM9.83 3.875v-2.225h-4.726c-0.843 0-1.525 0.68-1.525 1.52v0.725c0.176-0.035-0.207-0.015 6.25-0.020zM3.579 9.034v13.928c0.176-0.035-0.207-0.015 6.25-0.020v-2.435c-0.933-1.265-1.485-2.825-1.485-4.504 0-1.685 0.552-3.244 1.485-4.509v-2.44c-6.403-0.005-6.076 0.015-6.25-0.020zM3.579 28.101v0.73c0 0.835 0.682 1.515 1.525 1.515h4.725v-2.225c-6.403-0.005-6.076 0.015-6.25-0.020zM12.358 0c-0.843 0-1.525 0.68-1.525 1.515v2.36h10.334v-2.36c0-0.835-0.682-1.515-1.525-1.515l-7.284 0zM10.833 22.942h2.007c-0.737-0.33-1.415-0.78-2.007-1.32v1.32zM10.833 9.054v1.325c0.592-0.54 1.269-0.99 2.007-1.325h-2.007zM21.167 9.054h-2.002c0.737 0.335 1.41 0.78 2.002 1.32v-1.32zM21.167 22.942v-1.315c-0.592 0.535-1.264 0.985-2.002 1.315h2.002zM10.833 30.48c0 0.84 0.682 1.52 1.525 1.52h7.284c0.843 0 1.525-0.68 1.525-1.52v-2.36h-10.334v2.36zM28.191 4.877h-24.382c-0.336 0-0.609 0.272-0.609 0.607v1.964c0 0.335 0.273 0.607 0.609 0.607h24.382c0.336 0 0.609-0.272 0.609-0.607v-1.964c0-0.335-0.273-0.607-0.609-0.607zM28.191 23.943h-24.382c-0.336 0-0.609 0.272-0.609 0.607v1.964c0 0.335 0.273 0.607 0.609 0.607h24.382c0.336 0 0.609-0.272 0.609-0.607v-1.964c0-0.335-0.273-0.607-0.609-0.607zM9.348 16.003c0-3.664 2.98-6.634 6.652-6.634s6.652 2.97 6.652 6.634c0 3.654-2.98 6.624-6.652 6.624s-6.652-2.97-6.652-6.624zM10.994 16.003c0 2.75 2.247 4.989 5.006 4.989 2.764 0 5.006-2.24 5.006-4.989 0-2.755-2.242-4.994-5.006-4.994-2.759 0-5.006 2.24-5.006 4.994zM13.346 16.303h2.654c0.168 0 0.305-0.136 0.305-0.303v-3.646c0-0.168-0.136-0.303-0.305-0.303s-0.305 0.136-0.305 0.303v3.343h-2.35c-0.168 0-0.305 0.136-0.305 0.303s0.136 0.303 0.304 0.303z"></path>
</svg>
