<!-- Generated by IcoMoon.io -->
<svg version="1.1" xmlns="http://www.w3.org/2000/svg" width="22" height="32" viewBox="0 0 22 32">
<path d="M8.598 9.333c0-1.903-0.203-4.165-1.717-6.531l-1.374-2.151c-0.258-0.405-0.726-0.652-1.231-0.652-0.506 0-0.973 0.247-1.232 0.651l-1.376 2.151c-1.469 2.299-1.668 4.592-1.668 6.532v1.333h8.598v-1.333z"></path>
<path d="M0 25.335c0 0.488 0.152 0.939 0.398 1.332-0.246 0.393-0.398 0.845-0.398 1.332v1.336c0 1.471 1.284 2.665 2.864 2.665h2.869c1.581 0 2.864-1.195 2.864-2.665v-1.336c0-0.487-0.152-0.939-0.398-1.332 0.246-0.393 0.398-0.844 0.398-1.332v-12.002h-8.598l0 12.002zM5.732 28l0.001 1.333-2.867 0.003-0.001-1.336h2.867z"></path>
<path d="M22.4 9.333c0-1.903-0.203-4.165-1.717-6.531l-1.374-2.151c-0.258-0.405-0.727-0.652-1.231-0.652-0.506 0-0.973 0.247-1.232 0.651l-1.376 2.151c-1.469 2.299-1.668 4.592-1.668 6.532v1.333h8.598v-1.333z"></path>
<path d="M13.803 25.335c0 0.488 0.152 0.939 0.398 1.332-0.246 0.393-0.398 0.845-0.398 1.332v1.336c0 1.471 1.284 2.665 2.864 2.665h2.869c1.581 0 2.864-1.195 2.864-2.665v-1.336c0-0.487-0.152-0.939-0.398-1.332 0.246-0.393 0.398-0.844 0.398-1.332v-12.002h-8.598l0 12.002zM19.534 28l0.001 1.333-2.867 0.003-0.001-1.336h2.867z"></path>
</svg>
