<!-- Generated by IcoMoon.io -->
<svg version="1.1" xmlns="http://www.w3.org/2000/svg" width="32" height="32" viewBox="0 0 32 32">
<path d="M18.324 6.609c-0.036-1.169-0.071-2.336-0.107-3.505v-0.301c0-0.304 0.028-0.901-0.088-1.097-0.116-0.195-0.482-0.507-0.886-0.406-0.298 0.073-0.511 0.298-0.584 0.601-0.005 0.348-0.012 0.696-0.018 1.043-0.060 0.28-0.035 0.66-0.035 0.956v0.336c-0.039 0.184 0.026 0.449-0.018 0.654-0.040 0.184 0.025 0.45-0.018 0.656-0.064 0.292-0.038 0.74-0.036 1.062h1.79v0.002zM10.677 5.847c0.122 0.234 0.322 0.49 0.389 0.762h2.018c-0.041-0.122-0.133-0.219-0.195-0.319-0.134-0.215-0.26-0.43-0.389-0.638-0.377-0.598-0.726-1.214-1.097-1.805-0.224-0.354-0.364-0.737-0.938-0.743-0.055 0.038-0.135 0.034-0.195 0.070-0.156 0.092-0.352 0.232-0.425 0.407-0.168 0.403 0.079 0.777 0.231 1.027 0.239 0.393 0.388 0.831 0.602 1.238zM24.127 3.104c-0.155 0.121-0.347 0.173-0.46 0.335-0.187 0.269-0.321 0.555-0.495 0.832-0.275 0.434-0.576 0.874-0.85 1.309-0.162 0.257-0.32 0.511-0.477 0.761-0.052 0.082-0.070 0.171-0.142 0.23v0.036c0.686 0.002 1.481-0.056 1.947 0.158 0.188-0.385 0.4-0.772 0.62-1.132 0.126-0.207 0.192-0.429 0.319-0.637 0.155-0.256 0.368-0.553 0.459-0.851 0.184-0.589-0.398-1.056-0.92-1.042zM27.154 11.175c0.628-0.389 1.271-0.751 1.894-1.132 0.263-0.162 0.556-0.274 0.796-0.462 0.29-0.226 0.311-0.863 0.089-1.168-0.142-0.196-0.433-0.216-0.779-0.212-0.046 0.034-0.103 0.027-0.158 0.053-0.153 0.068-0.319 0.164-0.477 0.247-0.518 0.27-1.055 0.512-1.576 0.797-0.3 0.163-0.623 0.314-0.938 0.477-0.118 0.062-0.233 0.161-0.372 0.195v2.106c0.194-0.054 0.356-0.203 0.514-0.301 0.334-0.208 0.679-0.397 1.008-0.601zM23.562 22.874c0.278-0.418 0.212-1.197 0.212-1.894v-9.805c0-0.874 0.099-1.86-0.389-2.247-0.509-0.406-1.11-0.319-2-0.319h-20.229c-0.119 0.035-0.237 0.070-0.354 0.105-0.3 0.13-0.58 0.44-0.709 0.744-0.154 0.365-0.069 1.378-0.069 1.894v10.99c0.084 0.345 0.298 0.65 0.549 0.832 0.45 0.327 0.956 0.265 1.716 0.265h19.186c1.055 0.001 1.651 0.091 2.088-0.564zM3.048 20.201c0.16 0.383 0.787 0.858 1.471 0.708 0.093-0.021 0.251-0.017 0.353-0.053 0.069-0.024 0.122-0.073 0.212-0.089 0.001 0.197 0.016 0.398 0.053 0.567 0.027 0.127-0.023 0.293 0.035 0.389-0.005 0.237-0.199 0.186-0.389 0.23-0.231 0.055-0.825 0.155-1.131 0.089-0.199-0.042-0.416-0.046-0.603-0.107-0.62-0.2-1.062-0.562-1.309-1.132-0.089-0.206-0.123-0.453-0.176-0.69-0.101-0.446 0.020-1.005 0.142-1.309 0.293-0.736 0.783-1.163 1.575-1.398 0.212-0.064 0.411-0.018 0.654-0.070 0.144-0.031 0.566-0.034 0.726 0 0.204 0.044 0.407 0.094 0.585 0.142-0.083 0.341-0.164 0.684-0.247 1.026-0.329-0.079-0.829-0.2-1.22-0.070-0.553 0.179-1.046 1.007-0.729 1.768zM10.394 20.538h-0.797v1.397h-1.309v-1.397h-1.822c-0.256 0-0.632 0.054-0.851-0.019v-0.92c0.033-0.096 0.142-0.2 0.195-0.283 0.128-0.203 0.248-0.405 0.372-0.602 0.38-0.605 0.716-1.217 1.097-1.823 0.201-0.32 0.459-0.641 0.62-0.992h1.699v3.576h0.815c0 0.289 0.059 0.825-0.019 1.063zM13.915 21.9c-0.086 0.214-0.846 0.142-1.168 0.142-0.124 0-0.294 0.020-0.389-0.019s-0.249-0.164-0.283-0.265v-1.326c0.067-0.067 0.118-0.158 0.195-0.213 0.044-0.032 0.101-0.037 0.141-0.070 0.36-0.005 1.336-0.072 1.488 0.106 0.144 0.172 0.088 0.632 0.088 0.938 0.001 0.23 0.047 0.586-0.071 0.708zM13.987 18.75c0 0.131 0.023 0.331-0.035 0.406-0.104 0.31-0.73 0.213-1.132 0.213h-0.424c-0.412-0.132-0.319-0.561-0.319-1.080v-0.514c0.056-0.176 0.214-0.205 0.354-0.3h0.973c0.17 0 0.353-0.011 0.442 0.070 0.215 0.087 0.141 0.879 0.141 1.204zM16.271 19.37h-0.462c-0.462 0-0.995 0.079-1.151-0.231-0.050-0.101-0.017-0.327-0.017-0.459v-0.922c0.025-0.082 0.112-0.158 0.158-0.229 0.053-0.018 0.107-0.035 0.16-0.053h0.973c0.175 0 0.351-0.015 0.443 0.070 0.179 0.067 0.158 0.352 0.158 0.601 0.002 0.478 0.102 1.103-0.262 1.224zM16.465 21.882c-0.096 0.258-0.819 0.16-1.169 0.16h-0.371c-0.375-0.104-0.283-0.647-0.283-1.115v-0.495c0.034-0.122 0.158-0.179 0.23-0.266 0.035-0.008 0.033-0.004 0.053-0.018 0.413-0.006 1.377-0.086 1.54 0.142 0.124 0.172 0.070 0.602 0.070 0.885 0.001 0.229 0.047 0.586-0.069 0.708zM19.066 21.315v0.425c-0.025 0.102-0.091 0.172-0.142 0.247-0.321 0.085-1.518 0.134-1.682-0.089-0.132-0.179-0.070-0.822-0.070-1.133 0-0.118-0.024-0.301 0.018-0.389 0.056-0.111 0.189-0.155 0.283-0.229h0.993c0.128 0 0.314-0.022 0.388 0.035 0.303 0.108 0.211 0.729 0.211 1.133zM18.819 19.37h-0.46c-0.462 0-1.012 0.079-1.169-0.231-0.049-0.098-0.018-0.313-0.018-0.442v-0.939c0.023-0.073 0.102-0.145 0.142-0.211 0.066-0.023 0.129-0.048 0.195-0.070h0.973c0.149 0 0.328-0.018 0.407 0.053 0.189 0.067 0.177 0.342 0.177 0.601 0 0.458 0.1 1.124-0.247 1.24zM21.544 21.865c-0.096 0.277-0.784 0.177-1.149 0.177h-0.372c-0.407-0.102-0.319-0.601-0.319-1.098 0-0.161-0.038-0.42 0.018-0.549 0.051-0.116 0.194-0.167 0.283-0.247h0.992c0.128 0 0.314-0.022 0.389 0.035 0.314 0.109 0.211 0.772 0.211 1.186 0 0.172 0.025 0.398-0.053 0.495zM21.597 18.697v0.389c-0.029 0.109-0.12 0.164-0.177 0.247-0.272 0.065-0.679 0.036-1.008 0.036h-0.407c-0.063-0.019-0.143-0.084-0.195-0.124-0.19-0.152-0.106-0.788-0.106-1.116v-0.353c0.028-0.1 0.121-0.173 0.177-0.247l0.158-0.053h0.956c0.157 0 0.335-0.016 0.423 0.053 0.279 0.098 0.179 0.8 0.179 1.168zM21.703 16.52c-0.096 0.266-0.564 0.195-0.92 0.195h-7.008c-0.464 0-1.395 0.090-1.664-0.106-0.23-0.169-0.142-1.156-0.142-1.576v-3.256c0-0.295-0.059-1.177 0.036-1.362 0.069-0.136 0.231-0.161 0.353-0.247h8.371c0.45 0 0.679-0.039 0.956 0.142 0.112 0.437 0.070 1.116 0.070 1.663v4.089c0 0.164 0.020 0.364-0.053 0.458zM14.357 13.547v-0.018c0.107-0.058 0.213-0.117 0.319-0.176 0.024-0.056-0.050-0.156-0.071-0.23-0.122 0.059-0.291 0.122-0.388 0.211h-0.036c0.032-0.092 0.020-0.255 0.070-0.334v-0.036h-0.284v0.371c-0.115-0.032-0.273-0.134-0.353-0.211-0.053 0.054-0.073 0.139-0.124 0.194 0.036 0.092 0.213 0.173 0.3 0.212-0.060 0.079-0.207 0.153-0.3 0.195 0.024 0.089 0.070 0.169 0.107 0.247 0.12-0.019 0.277-0.104 0.354-0.176h0.017v0.389h0.284c-0.012-0.095-0.022-0.28-0.070-0.354v-0.018c0.129 0.018 0.324 0.1 0.407 0.177h0.016c0.030-0.089 0.059-0.177 0.089-0.266-0.104-0.049-0.238-0.101-0.318-0.176h-0.019v-0.001zM16.11 13.529c0.111-0.029 0.277-0.103 0.354-0.176 0.014-0.019 0.006-0.005 0.018-0.036-0.043-0.042-0.088-0.132-0.106-0.194-0.121 0.038-0.301 0.128-0.389 0.211h-0.035c0.029-0.123 0.059-0.247 0.088-0.371h-0.319v0.371c-0.109-0.056-0.188-0.14-0.3-0.195v-0.017h-0.017c-0.040 0.065-0.101 0.118-0.124 0.194h-0.018c0.034 0.090 0.242 0.187 0.335 0.212v0.019c-0.128 0.035-0.221 0.122-0.335 0.176 0.022 0.090 0.083 0.189 0.142 0.247 0.014 0.020 0.246-0.12 0.282-0.158h0.035v0.372h0.319c-0.012-0.101-0.036-0.263-0.088-0.336v-0.053c0.136 0.066 0.271 0.129 0.406 0.195 0.065-0.067 0.080-0.18 0.142-0.247-0.092-0.090-0.258-0.109-0.353-0.195-0.032-0.013-0.019-0.005-0.037-0.019zM18.163 13.138c-0.019-0.014-0.312 0.154-0.354 0.195h-0.034c0.011-0.123 0.022-0.247 0.034-0.371h-0.283v0.371c-0.135-0.038-0.24-0.145-0.354-0.211-0.029 0.064-0.060 0.16-0.106 0.211 0.070 0.074 0.193 0.144 0.283 0.195-0.051 0.074-0.192 0.168-0.283 0.195 0.033 0.079 0.070 0.157 0.089 0.247 0.122-0.019 0.276-0.103 0.353-0.176h0.018v0.389h0.283c0-0.088 0.005-0.257-0.034-0.319v-0.070c0.128 0.066 0.258 0.129 0.388 0.195 0.027-0.068 0.046-0.158 0.088-0.212-0.030-0.136-0.245-0.152-0.336-0.23-0.030-0.012-0.016-0.004-0.034-0.019 0.123-0.058 0.247-0.117 0.371-0.176-0.011-0.077-0.046-0.167-0.089-0.214zM31.348 15.051c-0.3-0.006-0.601-0.013-0.903-0.019-0.46-0.018-0.92-0.034-1.38-0.053h-0.477c-0.268-0.058-0.632-0.035-0.921-0.035h-0.318c-0.172-0.037-0.425 0.024-0.62-0.018-0.286-0.063-0.773-0.038-1.097-0.036v1.789c0.34 0 0.821 0.031 1.133-0.035 0.233-0.051 0.53 0.028 0.743-0.019h0.372c0.333 0 0.808 0.031 1.115-0.035h0.371c0.333 0 0.808 0.031 1.115-0.034h0.744c0.439-0.096 0.661-0.192 0.761-0.62 0.101-0.43-0.371-0.813-0.638-0.885zM7.862 17.918c-0.14 0.226-0.299 0.473-0.442 0.707-0.148 0.245-0.253 0.619-0.442 0.815v0.036h1.309v-1.718c0.053-0.242 0.055-0.509 0.054-0.796h-0.053c-0.144 0.3-0.247 0.669-0.425 0.956zM29.119 21.653c-0.663-0.419-1.346-0.816-2.017-1.239-0.33-0.208-0.673-0.406-1.008-0.62-0.139-0.088-0.288-0.239-0.462-0.283v2.035c0.029 0.059 0.155 0.072 0.212 0.107 0.226 0.138 0.474 0.246 0.708 0.389 0.467 0.284 0.977 0.507 1.451 0.796 0.3 0.184 0.636 0.402 0.956 0.55 0.3 0.138 0.815 0.075 0.973-0.141 0.251-0.346 0.168-0.98-0.142-1.204-0.211-0.155-0.45-0.248-0.672-0.389zM23.88 25.192h-0.195c-0.125 0.082-0.366 0.011-0.495 0.088h-1.292c0.089 0.273 0.395 0.641 0.55 0.886 0.41 0.651 0.773 1.312 1.185 1.964 0.114 0.181 0.486 0.538 0.85 0.389 0.319-0.129 0.733-0.505 0.566-1.043-0.389-0.763-0.778-1.525-1.167-2.284zM10.606 25.829c-0.176 0.401-0.354 0.767-0.53 1.169-0.076 0.174-0.204 0.338-0.266 0.53-0.168 0.522 0.268 0.916 0.602 1.009 0.475 0.132 0.775-0.404 0.921-0.639 0.345-0.554 0.698-1.127 1.043-1.681 0.17-0.275 0.341-0.694 0.55-0.92v-0.019h-2.053c-0.055 0.202-0.187 0.372-0.265 0.55zM18.324 25.28h-1.789c-0.001 0.31-0.023 0.729 0.036 1.009 0.040 0.195-0.020 0.448 0.018 0.62 0.041 0.195-0.020 0.448 0.018 0.62v0.318c0 0.288-0.022 0.651 0.035 0.92 0.006 0.326 0.013 0.649 0.018 0.974 0.081 0.345 0.31 0.556 0.655 0.638 0.354 0.083 0.745-0.283 0.832-0.477 0.104-0.236 0.070-0.685 0.070-0.992v-0.3c0.035-1.109 0.071-2.219 0.107-3.328z"></path>
</svg>
