<!-- Generated by IcoMoon.io -->
<svg version="1.1" xmlns="http://www.w3.org/2000/svg" width="32" height="32" viewBox="0 0 32 32">
<path d="M27.225 25.784c-0.616 0-1.335 0.298-2.156 0.893l-4.552-1.682 4.62-1.684c0.776 0.504 1.494 0.757 2.157 0.757 0.729 0 1.209-0.378 1.437-1.133 0.045-0.16 0.068-0.333 0.068-0.516 0-0.96-0.616-1.476-1.848-1.544 0.501-0.504 0.753-0.997 0.753-1.478 0-0.502-0.264-0.927-0.788-1.271-0.274-0.136-0.559-0.206-0.855-0.206-1.004 0-1.689 0.812-2.054 2.439l-8.008 2.989-8.008-2.92c-0.365-1.672-1.050-2.508-2.054-2.508-0.296 0-0.582 0.069-0.856 0.206-0.501 0.343-0.752 0.769-0.752 1.271 0 0.481 0.251 0.974 0.752 1.478-1.254 0.068-1.882 0.584-1.882 1.544 0 0.183 0.023 0.356 0.068 0.516 0.252 0.755 0.731 1.133 1.438 1.133 0.661 0 1.38-0.252 2.156-0.757l4.654 1.684-4.587 1.647c-0.798-0.572-1.505-0.858-2.121-0.858-0.731 0-1.244 0.379-1.541 1.133-0.045 0.16-0.068 0.331-0.068 0.516 0 0.961 0.627 1.477 1.882 1.545-0.501 0.504-0.752 0.997-0.752 1.478 0 0.502 0.251 0.926 0.752 1.271 0.32 0.183 0.628 0.273 0.925 0.273 0.934 0 1.609-0.801 2.019-2.403l7.974-2.92 7.974 2.92c0.411 1.602 1.096 2.403 2.053 2.403 0.274 0 0.57-0.090 0.89-0.273 0.524-0.345 0.788-0.769 0.788-1.271 0-0.481-0.252-0.974-0.753-1.478 1.232-0.068 1.848-0.584 1.848-1.545 0-0.184-0.023-0.355-0.068-0.516-0.274-0.755-0.776-1.133-1.506-1.133z"></path>
<path d="M6.727 14.464c1.071 1.247 2.58 2.159 4.528 2.732v0.447c0 0.554 0.184 1.020 0.555 1.395 0.37 0.377 0.827 0.585 1.373 0.624 0.564 0.040 0.983-0.059 1.255-0.297 0.428 0.316 0.905 0.474 1.432 0.474 0.487 0 0.935-0.148 1.343-0.445 0.273 0.217 0.672 0.307 1.198 0.267 0.545-0.059 1.003-0.272 1.373-0.638 0.37-0.368 0.554-0.827 0.554-1.381v-0.327c2.103-0.555 3.729-1.485 4.878-2.794 1.11-1.247 1.665-2.721 1.665-4.425 0-0.377-0.039-0.773-0.117-1.189-0.389-2.533-1.538-4.623-3.446-6.266-2.006-1.761-4.45-2.643-7.331-2.643s-5.326 0.872-7.331 2.612c-1.909 1.665-3.047 3.764-3.417 6.296-0.078 0.416-0.117 0.812-0.117 1.189 0 1.663 0.535 3.118 1.607 4.366zM18.25 6.816c0.574-0.683 1.27-1.024 2.088-1.024 0.838 0 1.543 0.342 2.118 1.024 0.574 0.682 0.862 1.509 0.862 2.478s-0.288 1.798-0.862 2.481c-0.575 0.684-1.28 1.024-2.118 1.024-0.817 0-1.513-0.34-2.088-1.024-0.575-0.683-0.862-1.51-0.862-2.481s0.287-1.797 0.862-2.478zM15.153 13.625c0.282-0.371 0.559-0.557 0.832-0.557s0.53 0.205 0.774 0.618c0.243 0.411 0.366 0.802 0.366 1.175 0 0.568-0.371 0.851-1.111 0.851-0.487 0-0.847-0.127-1.080-0.381-0.136-0.158-0.204-0.353-0.204-0.589 0-0.371 0.141-0.743 0.423-1.116zM9.268 6.816c0.584-0.683 1.285-1.024 2.103-1.024s1.518 0.342 2.103 1.024c0.584 0.682 0.877 1.509 0.877 2.478s-0.292 1.798-0.877 2.481c-0.584 0.684-1.286 1.024-2.103 1.024s-1.519-0.34-2.103-1.024c-0.584-0.683-0.877-1.51-0.877-2.481s0.293-1.797 0.877-2.478z"></path>
</svg>
