<!-- Generated by IcoMoon.io -->
<svg version="1.1" xmlns="http://www.w3.org/2000/svg" width="32" height="32" viewBox="0 0 32 32">
<path d="M31.875 13.098v0.954c0 0.069-0.023 0.125-0.069 0.17-0.070 0.137-0.183 0.262-0.344 0.374-0.137 0.115-0.298 0.194-0.483 0.239-0.207 0.068-0.402 0.091-0.584 0.068-0.231-0.045-0.46-0.145-0.689-0.307-1.492-0.976-2.858-1.705-4.096-2.18-1.239-0.456-2.399-0.739-3.477-0.853-0.986-0.022-1.881 0.012-2.686 0.103-0.757 0.114-1.456 0.217-2.099 0.308-0.459 0.091-0.907 0.136-1.343 0.136-0.436 0.022-0.871 0.033-1.308 0.033h-0.206c-0.252-0.113-0.504-0.217-0.757-0.308-0.184-0.091-0.392-0.158-0.62-0.204-0.228-0.069-0.4-0.125-0.515-0.17-0.115 0.181-0.219 0.352-0.311 0.511-0.091 0.136-0.228 0.249-0.411 0.34 0.091 0.159 0.287 0.466 0.583 0.92 0.3 0.408 0.585 0.795 0.861 1.158-0.022 0.047-0.022 0.081 0 0.105 0 0.067 0.047 0.1 0.139 0.1l1.032 0.853c0.252 0 0.252 0.124 0 0.375-0.069 0.068-0.113 0.102-0.138 0.102-0.022 0-0.091-0.033-0.206-0.102l-0.516-0.375c0.207 0.614 0.358 1.237 0.448 1.874 0.069 0.637 0.161 1.351 0.275 2.147 0.344 1.66 0.965 3.169 1.859 4.532 0.895 1.364 2.112 2.533 3.649 3.511 0.231 0.182 0.379 0.34 0.448 0.477 0.022 0.159 0.035 0.295 0.035 0.41v0.204c0 0.182-0.035 0.34-0.104 0.477-0.069 0.159-0.16 0.272-0.275 0.34 0 0.114-0.035 0.239-0.104 0.375-0.092 0.114-0.287 0.17-0.584 0.17-0.184 0.206-0.528 0.136-1.033-0.205l-0.171-0.102c-1.859-1.16-3.339-2.5-4.441-4.021-1.077-1.545-1.846-3.237-2.306-5.077-0.091-0.728-0.161-1.374-0.207-1.943-0.091-0.568-0.138-1.102-0.138-1.602-0.114-0.364-0.183-0.728-0.206-1.091-0.021-0.387-0.056-0.658-0.103-0.817l-0.379-0.407-0.689-1.124c-0.23-0.227-0.413-0.443-0.55-0.649-0.16-0.204-0.287-0.374-0.379-0.51-0.138-0.136-0.206-0.227-0.206-0.272-0.091-0.046-0.286-0.123-0.584-0.238-0.275-0.139-0.563-0.263-0.861-0.376-0.366-0.136-0.768-0.283-1.205-0.442l-5.647-4.568-0.171-0.238c0-0.091 0.058-0.136 0.171-0.136v-0.171c0-0.114 0.115-0.17 0.344-0.17l6.024 2.283c0.092 0.068 0.138 0.148 0.138 0.238 0.023 0.092 0.036 0.181 0.036 0.272 0 0.342 0.057 0.511 0.171 0.511 0.23 0.068 0.401 0.058 0.516-0.032 0.092-0.046 0.161-0.091 0.206-0.136v-0.171l0.654-0.853c0.092-0.158 0.104-0.284 0.035-0.374-0.114-0.047-0.219-0.069-0.311-0.069l-0.205 0.068c-0.114 0-0.228 0-0.345 0-0.139-0.023-0.206-0.080-0.206-0.17l-3.856-5.044v-0.41h0.516l5.129 3.545h0.206c0.368 0.499 0.689 0.942 0.964 1.33 0.253 0.34 0.481 0.659 0.689 0.953 0.252 0.274 0.401 0.432 0.448 0.477 0.114 0.045 0.345 0.114 0.689 0.205 0.319 0.113 0.665 0.216 1.032 0.307 0.39 0.114 0.757 0.205 1.101 0.272 0.321 0.069 0.505 0.103 0.55 0.103 0.23 0 0.92-0.058 2.066-0.17 1.102-0.115 2.593-0.17 4.474-0.17 1.102 0 2.009 0.033 2.719 0.101 0.713 0.091 1.413 0.272 2.101 0.546 0.689 0.295 1.457 0.704 2.308 1.227 0.848 0.545 1.939 1.281 3.269 2.213 0.117 0.067 0.196 0.148 0.242 0.238zM14.491 13.338l1.412 0.545c0.114 0 0.171 0.113 0.171 0.34-0.091 0-0.148 0.023-0.171 0.069-0.023 0.044-0.082 0.023-0.173-0.069l-1.377-0.34c-0.114 0-0.183-0.035-0.206-0.103 0-0.091 0-0.159 0-0.204 0-0.137 0.046-0.205 0.136-0.205 0.070-0.022 0.139-0.032 0.207-0.032zM14.697 12.859c0-0.089 0.023-0.147 0.069-0.168 0.023-0.048 0.057-0.070 0.103-0.070l1.412 0.238c0.092 0 0.184 0.033 0.276 0.104 0.068 0.067 0.103 0.135 0.103 0.204 0 0.091-0.035 0.148-0.103 0.171-0.093 0-0.185 0-0.276 0l-1.412-0.171c-0.113 0.001-0.171-0.1-0.171-0.307zM15.42 15.11c-0.136 0-0.24 0.012-0.309 0.033-0.047 0.045-0.069 0.033-0.069-0.033l-1.24-0.718c-0.113 0-0.171-0.112-0.171-0.339 0.092 0 0.149-0.023 0.171-0.068 0.024-0.045 0.094-0.024 0.206 0.068l1.172 0.647c0.138 0 0.219 0.046 0.24 0.136 0 0.091 0 0.182 0 0.273z"></path>
</svg>
