<!-- Generated by IcoMoon.io -->
<svg version="1.1" xmlns="http://www.w3.org/2000/svg" width="32" height="32" viewBox="0 0 32 32">
<path d="M26.64 4c0.84 0 1.52-0.672 1.52-1.5v-1c0-0.828-0.68-1.5-1.52-1.5h-21.28c-0.839 0-1.52 0.672-1.52 1.5v1c0 0.828 0.681 1.5 1.52 1.5 0 5.685 3.231 10.483 7.653 12-4.422 1.517-7.653 6.315-7.653 12-0.839 0-1.52 0.672-1.52 1.5v1c0 0.828 0.681 1.5 1.52 1.5h21.28c0.84 0 1.52-0.672 1.52-1.5v-1c0-0.828-0.68-1.5-1.52-1.5 0-5.685-3.231-10.483-7.653-12 4.422-1.517 7.653-6.315 7.653-12zM16 13c-3.66 0-6.587-4.157-6.587-9h13.173c0 4.872-2.946 9-6.587 9z"></path>
</svg>
