<!-- Generated by IcoMoon.io -->
<svg version="1.1" xmlns="http://www.w3.org/2000/svg" width="32" height="32" viewBox="0 0 32 32">
<path d="M18.554 0.455c2.24 0 4.057 1.816 4.057 4.057v5.008h5.332c2.24 0 4.057 1.816 4.057 4.057v4.868c0 2.241-1.816 4.057-4.057 4.057h-5.332v4.989c-0.001 2.24-1.817 4.057-4.057 4.057h-5.084c-2.24 0-4.056-1.817-4.057-4.057v-4.989h-5.356c-2.24-0.001-4.057-1.817-4.057-4.057v-4.868c0-2.24 1.817-4.056 4.057-4.057h5.356v-5.008c0-2.24 1.816-4.057 4.057-4.057h5.084zM13.47 13.576h-9.413v4.868h9.413v9.046h5.084v-9.046h9.389v-4.868h-9.389v-9.064h-5.084v9.064z"></path>
</svg>
