<!-- Generated by IcoMoon.io -->
<svg version="1.1" xmlns="http://www.w3.org/2000/svg" width="32" height="32" viewBox="0 0 32 32">
<path d="M16.048 7.143c-4.268 0-7.728 3.46-7.728 7.728 0 1.408 0.369 2.727 1.026 3.864h4.77l1.026-2.083c-1.159-0.379-1.992-1.461-1.992-2.747 0-1.601 1.297-2.898 2.898-2.898s2.898 1.297 2.898 2.898v0.966h4.83c0-4.268-3.46-7.728-7.728-7.728zM15.912 11.972c-0.489 0.034-0.946 0.253-1.279 0.612s-0.518 0.831-0.517 1.32c0 0.512 0.204 1.004 0.566 1.366s0.854 0.566 1.366 0.566 1.004-0.204 1.366-0.566c0.362-0.362 0.566-0.854 0.566-1.366 0.001-0.266-0.053-0.528-0.159-0.772s-0.26-0.463-0.454-0.644-0.423-0.321-0.674-0.409c-0.25-0.089-0.516-0.125-0.781-0.106z"></path>
</svg>
