<!-- Generated by IcoMoon.io -->
<svg version="1.1" xmlns="http://www.w3.org/2000/svg" width="32" height="32" viewBox="0 0 32 32">
<path d="M20.37 0.607c-2.875-0.817-5.787-0.779-8.483-0.065-0.012 0.003-0.023 0.008-0.036 0.011-0.486 0.13-0.962 0.281-1.43 0.455-0.037 0.014-0.071 0.023-0.11 0.034-0.062 0.024-0.12 0.052-0.183 0.074-0.278 0.113-0.557 0.223-0.828 0.348-0.138 0.066-0.266 0.135-0.4 0.203-0.561 0.277-1.105 0.58-1.628 0.924-0.021 0.011-0.040 0.023-0.061 0.033-2.785 1.822-4.934 4.539-6.23 7.821-0.982 2.488-0.968 4.77-0.968 4.77-0.201 4.898 1.911 9.771 5.764 13.208l0.044-0.058c4.271 3.485 10.213 4.692 15.748 2.615 1.259-0.472 2.409-1.099 3.466-1.83 0.046-0.028 0.087-0.061 0.13-0.090 0.301-0.21 0.592-0.426 0.874-0.655 0.278-0.224 0.551-0.456 0.813-0.699 0.089-0.082 0.171-0.166 0.257-0.253 1.963-1.883 3.471-4.287 4.272-7.092 2.425-8.492-2.507-17.337-11.013-19.756zM22.827 17.469h5.717c-0.245 2.069-0.987 4.049-2.164 5.753-0.093 0.13-0.186 0.257-0.284 0.384-0.175 0.234-0.347 0.466-0.539 0.688-0.312 0.356-0.639 0.7-0.988 1.017-0.070 0.065-0.149 0.124-0.221 0.188-0.375 0.327-0.763 0.637-1.173 0.917-0.017 0.012-0.030 0.023-0.049 0.033-1.415 0.958-3.019 1.631-4.713 1.962l0.009 0.030c-0.318 0.064-0.634 0.093-0.95 0.13v-5.655c0-0.811-0.66-1.47-1.472-1.47s-1.472 0.659-1.472 1.47v5.668c-2.596-0.3-5.049-1.376-7.005-3.109-2.13-2.058-3.628-4.956-4.052-8.008h5.607c0.813 0 1.472-0.659 1.472-1.47s-0.659-1.47-1.472-1.47h-5.674c0.052-0.529 0.136-1.055 0.262-1.575 1.094-3.803 3.878-7.306 7.739-8.783 0.039-0.016 0.080-0.030 0.118-0.047 0.994-0.368 2.001-0.587 3.005-0.702v5.811c0 0.812 0.66 1.47 1.472 1.47s1.472-0.658 1.472-1.47v-5.8c4.546 0.555 8.635 3.542 10.357 8.12 0.368 0.981 0.602 1.979 0.719 2.976h-5.722c-0.812 0-1.471 0.659-1.471 1.47s0.659 1.47 1.471 1.47z"></path>
</svg>
