<svg width="50" height="50" viewBox="0 0 50 50" fill="none" xmlns="http://www.w3.org/2000/svg">
<path d="M34.6409 2.57784H42.0245C43.3414 2.57784 44.4073 3.64004 44.4073 4.95249V6.0851C44.135 6.03089 44.6457 6.06201 34.6409 6.05384V2.57784ZM34.6409 32.0497V35.8461C44.6457 35.8541 44.135 35.8231 44.4073 35.8773V14.1152C44.1329 14.1698 44.7306 14.1383 34.6409 14.1465V17.9506C36.0987 19.9268 36.961 22.3639 36.961 25.0041C36.961 27.6364 36.0987 30.0735 34.6409 32.0497ZM34.6409 43.9384V47.4146H42.0245C43.3414 47.4146 44.4073 46.3522 44.4073 45.0477V43.9072C44.1329 43.9618 44.7305 43.9302 34.6409 43.9384ZM15.3591 6.05398V2.57784H7.97553C6.65857 2.57784 5.59272 3.64004 5.59272 4.95249V6.0851C5.86713 6.03046 5.26952 6.06201 15.3591 6.05398ZM5.59286 14.1152V35.8772C5.86727 35.8226 5.26952 35.8541 15.3592 35.8459V32.0418C13.9014 30.0656 13.0392 27.6285 13.0392 25.0038C13.0392 22.3713 13.9014 19.9343 15.3592 17.958V14.1462C5.35442 14.1383 5.86497 14.1694 5.59286 14.1152ZM5.59286 43.9073V45.0478C5.59286 46.3522 6.65872 47.4147 7.97567 47.4147H15.3592V43.9386C5.35442 43.9304 5.86497 43.9614 5.59286 43.9073ZM19.3095 0.000142258C17.9927 0.000142258 16.9267 1.06234 16.9267 2.36704V6.05398H33.0731V2.3669C33.0731 1.06249 32.0073 0 30.6903 0L19.3095 0.000142258ZM16.9267 35.8461H20.062C18.9098 35.3305 17.8515 34.6274 16.9267 33.7839V35.8461ZM16.9267 14.1463V16.2164C17.8515 15.3727 18.9098 14.6698 20.062 14.1463H16.9267ZM33.0733 14.1463H29.9459C31.0981 14.6698 32.1485 15.365 33.0733 16.2085V14.1463ZM33.0733 35.8461V33.7917C32.1485 34.6274 31.098 35.3305 29.9459 35.8461H33.0733ZM16.9267 47.6254C16.9267 48.9378 17.9926 50 19.3095 50H30.6905C32.0073 50 33.0733 48.9378 33.0733 47.6254V43.9384H16.9267V47.6254ZM44.0483 7.61982H5.95174C5.42608 7.61982 5 8.04458 5 8.56844V11.637C5 12.1609 5.42608 12.5856 5.95174 12.5856H44.0483C44.5739 12.5856 45 12.161 45 11.637V8.56844C45.0001 8.04458 44.5739 7.61982 44.0483 7.61982ZM44.0483 37.4115H5.95174C5.42608 37.4115 5 37.8363 5 38.3601V41.4287C5 41.9525 5.42608 42.3773 5.95174 42.3773H44.0483C44.5739 42.3773 45 41.9525 45 41.4287V38.36C45.0001 37.8361 44.5739 37.4115 44.0483 37.4115ZM14.6066 25.0039C14.6066 19.2784 19.2625 14.6385 25 14.6385C30.7375 14.6385 35.3934 19.2784 35.3934 25.0039C35.3934 30.7139 30.7375 35.3539 25 35.3539C19.2625 35.3539 14.6066 30.714 14.6066 25.0039ZM17.1775 25.0039C17.1775 29.3001 20.6891 32.7996 25 32.7996C29.3188 32.7996 32.8225 29.3001 32.8225 25.0039C32.8225 20.6999 29.319 17.2006 25 17.2006C20.6891 17.2006 17.1775 20.6999 17.1775 25.0039ZM20.8529 25.4727H25C25.2631 25.4727 25.4759 25.2605 25.4759 24.9985V19.3016C25.4759 19.0397 25.2631 18.8274 25 18.8274C24.7371 18.8274 24.5242 19.0396 24.5242 19.3016V24.5243H20.853C20.5901 24.5243 20.3772 24.7365 20.3772 24.9985C20.3772 25.2605 20.59 25.4727 20.8529 25.4727Z" fill="white"/>
</svg>
