<svg width="40" height="50" viewBox="0 0 40 50" fill="none" xmlns="http://www.w3.org/2000/svg">
<path d="M29.6409 2.57784H37.0245C38.3414 2.57784 39.4073 3.64004 39.4073 4.95249V6.0851C39.135 6.03089 39.6457 6.06201 29.6409 6.05384V2.57784ZM29.6409 32.0497V35.8461C39.6457 35.8541 39.135 35.8231 39.4073 35.8773V14.1152C39.1329 14.1698 39.7306 14.1383 29.6409 14.1465V17.9506C31.0987 19.9268 31.961 22.3639 31.961 25.0041C31.961 27.6364 31.0987 30.0735 29.6409 32.0497ZM29.6409 43.9384V47.4146H37.0245C38.3414 47.4146 39.4073 46.3522 39.4073 45.0477V43.9072C39.1329 43.9618 39.7305 43.9302 29.6409 43.9384ZM10.3591 6.05398V2.57784H2.97553C1.65857 2.57784 0.592718 3.64004 0.592718 4.95249V6.0851C0.867132 6.03046 0.269521 6.06201 10.3591 6.05398ZM0.59286 14.1152V35.8772C0.867274 35.8226 0.269523 35.8541 10.3592 35.8459V32.0418C8.9014 30.0656 8.03916 27.6285 8.03916 25.0038C8.03916 22.3713 8.9014 19.9343 10.3592 17.958V14.1462C0.354422 14.1383 0.864972 14.1694 0.59286 14.1152ZM0.59286 43.9073V45.0478C0.59286 46.3522 1.65872 47.4147 2.97567 47.4147H10.3592V43.9386C0.354422 43.9304 0.864972 43.9614 0.59286 43.9073ZM14.3095 0.000142258C12.9927 0.000142258 11.9267 1.06234 11.9267 2.36704V6.05398H28.0731V2.3669C28.0731 1.06249 27.0073 0 25.6903 0L14.3095 0.000142258ZM11.9267 35.8461H15.062C13.9098 35.3305 12.8515 34.6274 11.9267 33.7839V35.8461ZM11.9267 14.1463V16.2164C12.8515 15.3727 13.9098 14.6698 15.062 14.1463H11.9267ZM28.0733 14.1463H24.9459C26.0981 14.6698 27.1485 15.365 28.0733 16.2085V14.1463ZM28.0733 35.8461V33.7917C27.1485 34.6274 26.098 35.3305 24.9459 35.8461H28.0733ZM11.9267 47.6254C11.9267 48.9378 12.9926 50 14.3095 50H25.6905C27.0073 50 28.0733 48.9378 28.0733 47.6254V43.9384H11.9267V47.6254ZM39.0483 7.61982H0.951742C0.426082 7.61982 0 8.04458 0 8.56844V11.637C0 12.1609 0.426082 12.5856 0.951742 12.5856H39.0483C39.5739 12.5856 40 12.161 40 11.637V8.56844C40.0001 8.04458 39.5739 7.61982 39.0483 7.61982ZM39.0483 37.4115H0.951742C0.426082 37.4115 0 37.8363 0 38.3601V41.4287C0 41.9525 0.426082 42.3773 0.951742 42.3773H39.0483C39.5739 42.3773 40 41.9525 40 41.4287V38.36C40.0001 37.8361 39.5739 37.4115 39.0483 37.4115ZM9.60665 25.0039C9.60665 19.2784 14.2625 14.6385 20 14.6385C25.7375 14.6385 30.3934 19.2784 30.3934 25.0039C30.3934 30.7139 25.7375 35.3539 20 35.3539C14.2625 35.3539 9.60665 30.714 9.60665 25.0039ZM12.1775 25.0039C12.1775 29.3001 15.6891 32.7996 20 32.7996C24.3188 32.7996 27.8225 29.3001 27.8225 25.0039C27.8225 20.6999 24.319 17.2006 20 17.2006C15.6891 17.2006 12.1775 20.6999 12.1775 25.0039ZM15.8529 25.4727H20C20.2631 25.4727 20.4759 25.2605 20.4759 24.9985V19.3016C20.4759 19.0397 20.2631 18.8274 20 18.8274C19.7371 18.8274 19.5242 19.0396 19.5242 19.3016V24.5243H15.853C15.5901 24.5243 15.3772 24.7365 15.3772 24.9985C15.3772 25.2605 15.59 25.4727 15.8529 25.4727Z" fill="white"/>
</svg>
