<svg width="416" height="416" viewBox="0 0 416 416" fill="none" xmlns="http://www.w3.org/2000/svg">
<path d="M15.4079 34.1929C16.8062 67.0883 15.3205 89.5426 15.0837 120.059C14.5635 187.237 15.032 275.825 14.9948 344.532C14.9863 360.296 14.9712 376.137 14.952 392C14.8145 396.809 19.1685 401.195 24 401.081C52.1052 401.122 80.1864 401.17 107.935 401.213C110.586 401.217 112.168 401.37 113.37 401.372C124.688 401.39 143.666 401.252 154.894 401.272C178.51 401.314 219.603 401.29 241.234 401.434C250.419 401.495 259.841 401.52 263.411 401.885C266.767 401.904 268.599 401.574 269.476 401.556C269.486 401.556 269.496 401.557 269.506 401.557C272.328 401.501 279.456 401.732 281.029 401.718C281.265 401.716 279.816 401.477 283.633 401.549C283.973 401.555 283.659 401.718 286.872 401.72C287.708 401.721 298.455 401.472 301.527 401.456C311.748 401.407 336.157 401.602 348.377 401.599C350.246 401.599 351.323 401.504 353.296 401.502C354.316 401.501 355.844 401.604 356.157 401.604C357.532 401.6 363.538 401.132 361.382 402.056C367.653 401.997 365.806 401.692 365.947 401.493C372.754 401.465 376.035 401.9 377.813 401.439C382.542 401.447 387.271 401.454 392 401.462C397.032 401.608 401.621 397.057 401.504 392C401.538 371.632 401.572 351.264 401.606 330.896C401.531 330.886 401.455 330.876 401.38 330.866C401.681 320.999 401.172 317.614 401.609 311.982C401.513 308.508 401.417 305.035 401.321 301.562C401.616 212.297 401.265 123.242 401.266 34.9837C401.266 31.2588 401.426 30.3287 401.427 24.186C401.427 24.1241 401.427 24.0623 401.427 24C401.748 19.9491 397.376 14.5383 392.035 14.7556C392.023 14.7556 392.012 14.7556 392 14.7556C384.16 14.7531 372.628 14.6025 363.907 14.5788C361.933 14.5737 360.506 14.6751 360.284 14.6745C358.977 14.6706 358.911 14.5101 357.644 14.5056C356.128 14.5005 354.297 14.6193 352.545 14.612C346.001 14.5856 338.869 14.6265 338.04 14.6237C334.049 14.6086 333.168 14.4517 332.839 14.4499C328.399 14.4308 330.064 14.5724 328.958 14.5642C323.221 14.5208 319.165 14.1673 311.31 14.5066C311.524 14.3754 311.738 14.2442 311.952 14.113C305.94 14.0392 309.911 14.3878 308.682 14.4509C308.181 14.4743 295.242 14.4317 294.243 14.4255C290.768 14.403 290.675 14.2286 290.374 14.2263C289.642 14.2207 280.898 14.4185 276.415 14.2663C271.111 14.086 277.354 13.7314 276.037 13.6648C275.815 13.6535 270.262 13.6899 269.517 13.5789C268.694 13.4594 273.496 13.462 273.422 13.4119C273.369 13.3775 265.397 13.1313 266.925 12.9656C268.154 12.7994 278.971 13.0125 281.262 12.9343C281.64 12.9214 280.927 12.7163 281.262 12.7088C282.608 12.6812 307.53 12.675 308.67 12.7088C307.373 12.8022 306.075 12.8956 304.777 12.989C306.503 12.9985 308.229 13.0079 309.954 13.0173C307.501 13.0922 305.047 13.1671 302.594 13.2419C306.24 14.0112 317.222 13.2314 317.675 12.8474C317.871 12.6699 311.157 12.2131 317.405 11.9471C316.455 11.9015 315.505 11.8559 314.555 11.8103C312.598 11.8852 310.64 11.9601 308.682 12.035C309.986 12.0822 311.29 12.1294 312.594 12.1765C312.114 12.2299 311.634 12.2833 311.154 12.3367C307.495 12.4223 303.835 12.5079 300.176 12.5935C298.295 12.5541 298.686 12.3965 297.393 12.366C281.265 11.9822 291.785 12.4706 281.226 12.4002C279.718 12.3155 278.211 12.2309 276.703 12.1463C277.235 12.4963 272.558 12.2765 266.901 12.4275C267.577 12.3142 268.253 12.201 268.929 12.0877C260.734 12.148 244.122 11.5769 248.605 12.2019C246.727 12.1486 244.85 12.0952 242.972 12.0418C241.386 12.144 239.801 12.2462 238.215 12.3484C236.024 12.3367 233.832 12.325 231.641 12.3133C231.631 12.2579 231.621 12.2026 231.611 12.1473C233.358 12.1469 235.106 12.1466 236.853 12.1463C235.542 11.9777 234.23 11.809 232.918 11.6404C231.629 11.6684 230.339 11.6964 229.049 11.7244C234.459 11.8839 227.327 12.1444 225.6 12.367C221.039 12.4492 218.125 12.1603 216.596 12.1473C215.877 12.1411 207.409 12.6509 210.729 12.0906C206.372 12.1586 202.015 12.2267 197.658 12.2947C195.954 12.2517 194.25 12.2088 192.547 12.1658C196.244 11.9049 185.529 11.5904 193.423 11.4822C199.317 11.4011 200.769 11.6451 203.566 11.6434C206.088 11.6422 207.421 11.4778 210.165 11.4705C228.619 11.4243 243.652 11.4544 261.178 11.5272C264.641 11.5418 267.791 11.4612 270.117 11.4725C272.742 11.4855 269.452 11.6916 272.798 11.6414C276.311 11.5884 277.071 11.4202 277.999 11.4168C278.576 11.4149 280.406 11.5662 282.09 11.5662C289.01 11.5662 299.151 11.4199 300.134 11.4207C301.245 11.4224 320.817 11.5589 321.754 11.5838C322.25 11.5973 321.22 12.1561 325.533 11.5604C326.879 11.5493 328.224 11.5382 329.57 11.5272C329.352 11.6388 329.134 11.7505 328.916 11.8621C336.889 11.4388 334.147 11.6756 341.831 11.6424C355.812 11.5816 374.838 11.6213 392 11.6266C396.241 11.5935 400.109 13.8911 402.211 16.9924C403.826 19.5352 404.375 20.9386 404.526 24C404.531 24.5808 404.534 25.208 404.535 25.8956C404.544 30.8352 404.145 43.7336 404.697 40.9285C404.219 51.9196 405.044 53.6864 404.529 59.1886C404.604 59.8545 404.679 60.5204 404.754 61.1862C404.433 67.1588 404.715 69.0022 404.754 75.5232C404.771 78.3331 404.429 75.0938 404.81 80.7661C404.781 81.8499 404.753 82.9337 404.725 84.0174C404.642 83.7655 404.559 83.5135 404.477 83.2616C404.544 89.561 404.501 89.9671 404.811 89.2483C404.754 92.2897 404.698 95.3311 404.642 98.3724C404.743 98.7504 404.845 99.1283 404.946 99.5062C405.121 98.1968 404.902 42.2989 404.789 24C404.774 22.3372 404.457 21.1004 404.229 20.3614C403.402 16.3255 398.344 10.9695 392 11.173C383.154 11.2079 374.355 11.2772 369.462 11.2479C365.815 11.2259 364.204 10.9962 358.898 10.9686C353.593 10.941 346.917 11.1496 344.093 11.157C334.683 11.183 290.1 11.1371 320.422 10.8514C319.55 10.7394 318.678 10.6274 317.807 10.5155C305.757 10.8976 310.12 10.6623 300.122 10.6229C295.913 10.6061 285.904 10.8561 286.463 10.3475C294.279 10.2528 302.582 10.4154 309.378 10.408C310.052 10.4073 318.099 10.175 322.24 10.2381C325.975 10.2957 323.403 10.7806 331.532 10.2362C337.569 10.768 341.059 10.2855 342.653 10.2342C345.409 10.1453 345.711 10.4078 348.466 10.4383C351.467 10.4721 353.533 10.2979 353.943 10.2967C358.058 10.2928 379.493 10.269 380.475 10.3748C379.614 10.4214 378.752 10.4679 377.89 10.5145C383.456 10.5894 382.293 10.321 383.757 10.2889C384.846 10.2899 385.936 10.2909 387.026 10.2918C386.594 10.3475 386.162 10.4032 385.73 10.4588C390.721 10.4498 389.024 10.3362 392 10.2842C392.808 10.2781 394.048 10.2846 395.904 10.8205C401.036 12.1844 403.813 17.2158 403.925 17.5785C403.997 17.7082 403.37 16.2286 404.353 18.0481C405.153 19.6005 405.762 21.9683 405.708 24C405.686 26.2642 405.637 28.1199 405.541 28.4991C405.569 30.4574 405.759 30.2904 405.764 30.5506C405.782 31.6876 405.847 51.2508 405.859 54.7556C405.89 64.4664 405.849 75.2779 405.881 85.7991C405.884 86.8808 405.762 86.1907 405.766 87.2747C405.772 89.0153 405.964 97.9497 405.978 99.2842C406.011 102.615 405.935 111.379 405.99 112.757C405.998 112.954 406.164 110.069 406.215 113.441C406.272 117.185 406.049 115.169 406.047 115.373C405.971 122.992 406.126 127.802 406.155 133.003C406.165 134.689 405.998 137.799 406.047 140.178C406.053 140.451 406.207 139.909 406.215 140.178C406.296 143.772 406.009 147.135 405.99 148.69C405.945 152.495 406.157 150.423 406.158 150.621C406.165 153.157 406.089 156.569 406.099 160.423C406.144 177.61 406.157 191.636 406.143 209.907C406.141 212.202 405.992 214.925 405.991 215.276C405.992 216.361 406.168 216.05 406.164 219.187C406.155 225.8 406.164 231.931 406.16 238.479C406.16 239.797 405.997 240.359 405.993 241.365C405.983 244.736 406.409 256.233 405.879 256.421C406.349 263.113 405.944 267.557 405.948 272.942C405.959 285.698 406.054 305.672 405.993 318.388C405.98 321.066 405.844 322.322 405.837 323.811C405.824 326.482 405.899 341.753 405.878 342.551C405.837 344.12 405.239 343.18 405.76 351.244C405.797 355.971 405.551 355.413 405.538 356.39C405.44 364.01 405.988 371.423 405.486 370.038C405.622 378.909 405.899 384.659 405.43 388.28C405.567 388.252 405.671 389.731 405.714 392C405.747 393.313 405.545 394.945 404.93 396.568C405.414 394.528 405.341 393.542 405.274 392C405.162 389.946 405.112 387.018 405.149 380.469C405.15 380.273 405.315 380.647 405.317 380.451C405.328 378.673 405.244 374.964 405.253 371.933C405.262 368.902 405.375 370.585 405.373 369.372C405.371 368.261 405.212 368.298 405.21 366.69C405.204 361.476 405.16 356.862 405.157 353.895C405.156 352.026 405.295 349.935 405.295 348.484C405.294 342.877 405.185 330.995 405.2 323.859C405.204 322.372 405.36 322.997 405.373 319.744C405.375 319.364 405.212 317.979 405.178 315.131C405.144 312.283 405.225 310.074 405.208 308.245C405.194 306.716 405.049 307.355 405.04 304.219C405.033 301.605 405.137 272 405.16 270.392C405.194 268.08 405.397 266.981 405.372 265.569C405.367 265.321 405.17 264.901 405.156 264.04C404.924 249.846 405.192 218.43 405.191 202.211C405.188 168.309 405.072 137.032 405.027 102.829C404.992 102.22 404.958 101.61 404.924 101C404.923 104.457 404.921 107.914 404.92 111.372C404.828 111.394 404.735 111.416 404.643 111.438C404.628 116.112 404.847 115.493 404.979 115.361C404.923 117.091 404.867 118.82 404.811 120.55C405.133 122.042 404.919 133.577 404.919 139.524C404.919 143.392 405.042 147.994 405.032 150.034C405.013 154.343 404.814 154.23 404.811 154.569C404.806 155.144 404.982 161.159 404.975 165.498C404.965 171.913 404.66 172.607 404.919 181.389C404.761 192.642 404.84 205.11 404.866 217.238C404.584 214.928 404.851 225.797 404.847 230.699C404.819 260.602 404.699 297.355 404.587 327.65C404.573 331.544 404.407 334.485 404.412 336.655C404.415 337.831 404.611 338.344 404.585 339.978C404.58 340.265 404.397 340.464 404.369 343.505C404.3 351.072 404.606 369.922 404.254 374.693C404.266 380.462 404.278 386.231 404.29 392C404.473 398.541 398.572 404.489 392 404.343C380.274 404.368 368.549 404.393 356.823 404.417C356.173 404.342 355.524 404.267 354.874 404.193C349.959 404.575 330.529 404.35 321.053 404.368C304.376 404.4 283.098 404.519 268.486 404.532C265.311 404.535 262.709 404.427 259.704 404.429C258.411 404.43 256.802 404.571 255.457 404.571C240.348 404.582 219.891 404.437 204.665 404.441C170.096 404.448 137.539 404.427 102.513 404.433C76.3095 404.438 50.1399 404.452 24 404.47C17.3594 404.642 11.3526 398.646 11.5121 392C11.4488 308.871 11.3627 226.03 11.4217 143.352C11.4228 141.784 11.5846 141.862 11.5857 140.647C11.5936 133.472 11.4603 117.449 11.4676 109.345C11.4732 102.889 11.7206 92.641 11.4715 90.4191C11.0944 113.356 11.1228 137.59 11.0174 161.468C11.01 163.166 10.8562 163.377 10.8533 163.586C10.7999 167.452 11.0117 165.01 11.0213 170.616C11.0245 172.49 10.5335 189.796 11.0223 187.737C10.8268 191.881 10.729 221.097 10.7938 226.735C10.8135 228.447 10.9583 227.235 10.9656 227.574C10.9976 229.05 10.798 229.717 10.7928 231.036C10.7804 234.551 10.9424 243.494 10.9412 245.193C10.9395 249.102 10.777 260.822 10.8153 265.984C10.8502 270.716 11.0588 269.83 11.078 273.921C11.0925 277.145 10.9171 273.633 10.8641 280.831C10.8382 284.399 10.9637 296.88 10.9637 299.913C10.9637 302.945 10.8389 306.319 10.8485 310.501C10.862 316.526 10.9315 329.631 10.9715 335.762C10.9738 336.128 11.136 337.02 11.1326 337.921C11.1258 339.789 10.9254 339.228 10.9051 340.639C10.8848 342.05 10.9093 366.493 10.9071 370.644C10.9059 373.506 11.0253 375.482 11.0242 377.063C11.0231 378.304 10.8562 378.437 10.8543 379.703C10.8543 380.095 10.9993 383.43 10.9959 386.763C10.9948 387.793 10.9793 389.764 10.9589 392C10.7142 395.876 13.4 400.022 13.9719 400.502C14.477 401.042 13.9481 400.441 15.5436 401.915C17.0561 403.191 18.1939 403.887 19.2523 404.311C20.6887 404.872 22.3381 405.153 24 405.113C25.4466 405.087 26.9023 405.064 28.3261 405.064C38.1284 405.062 37.6239 405.253 38.212 405.259C39.8426 405.276 40.4961 405.101 41.0314 405.098C43.2916 405.083 48.8307 405.051 50.8454 405.044C53.3548 405.036 54.4179 405.202 57.0841 405.202C59.0714 405.202 63.0842 405.04 67.6179 405.032C77.8381 405.014 89.9921 404.983 100.029 404.989C103.022 404.991 103.481 405.143 104.396 405.147C109.204 405.167 111.896 404.998 113.268 405C123.058 405.015 140.519 405.281 149.603 405.304C153.302 405.313 169.495 405.19 178.631 405.212C179.676 405.214 178.697 405.333 179.86 405.315C182.642 405.27 182.384 405.028 183.796 405.035C184.476 405.04 186.029 405.176 188.013 405.19C198.299 405.26 205.372 405.154 210.064 405.161C255.128 405.232 301.08 405.295 343.164 405.317C347.856 405.319 353.675 405.175 360.759 405.315C360.976 405.39 361.194 405.465 361.412 405.54C361.66 405.466 361.908 405.392 362.156 405.319C370.18 405.279 373.212 405.183 381.406 405.278C382.112 405.285 384.266 405.629 385.599 405.202C391.171 405.414 390.819 405.334 392 405.254C392.448 405.205 393.168 405.204 394.691 404.897C399.547 403.897 403.6 400.08 404.824 395.384C405.164 394.093 405.041 396.277 403.849 398.617C402.728 401.006 400.299 403.037 399.98 403.215C398.986 403.925 397.769 404.321 396.693 404.703C395.066 405.294 393.367 405.562 392 405.57C390.453 405.583 389.288 405.576 388.845 405.484C383.644 405.684 390.118 405.584 389.469 405.764C385.997 405.689 382.526 405.615 379.055 405.54C377.286 406.153 358.106 405.354 359.439 405.82C357.913 405.727 356.387 405.634 354.862 405.54C348.171 406.126 344.236 405.713 335.312 405.539C335.956 405.614 336.6 405.689 337.243 405.764C337.061 405.795 329.184 405.915 332.001 405.596C323.926 406.016 324.266 405.317 317.028 405.822C312.728 405.887 315.313 405.594 307.616 405.599C303.054 405.602 297.392 405.755 292.295 405.766C291.121 405.768 290.61 405.598 289.565 405.598C288.521 405.598 288.011 405.765 286.746 405.769C284.132 405.778 280.743 405.661 279.11 405.672C277.646 405.682 275.553 405.829 272.025 405.852C259.703 405.933 263.425 405.724 261.479 405.652C259.388 405.577 257.885 405.854 253.717 405.821C253.299 405.818 254.38 405.646 253.021 405.652C251.925 405.658 251.373 405.845 247.742 405.88C246.296 405.894 223.849 405.934 220.43 405.938C215.189 405.943 203.514 405.784 198.091 405.785C196 405.785 193.767 405.936 191.546 405.935C184.188 405.931 172.408 405.919 163.076 405.911C154.673 405.904 139.921 405.573 135.32 405.872C123.52 405.911 120.654 405.655 119.765 405.652C117.36 405.642 116.247 405.812 113.214 405.819C86.4143 405.887 53.8202 405.856 24 405.834C16.3057 405.989 9.95007 398.983 10.1806 392C10.182 387.212 10.1821 382.584 10.1805 378.161C10.1478 291.876 10.0551 205.121 10.1239 118.535C10.0487 118.303 9.97349 118.071 9.8983 117.839C9.84983 128.073 9.71919 140.1 9.68932 150.203C9.64991 163.69 9.96304 183.698 9.44909 193.592C9.40402 189.579 9.60108 183.043 9.33679 183.16C9.31791 190.332 9.29903 197.505 9.28015 204.677C9.40222 204.463 9.52429 204.249 9.64635 204.035C9.68186 211.524 9.65525 219.184 9.67272 226.699C9.6756 228.004 9.78641 227.08 9.78697 228.216C9.78738 229.488 9.67459 228.626 9.6737 228.864C9.67257 232.079 9.78666 233.049 9.78502 233.441C9.78051 234.448 9.67191 233.665 9.64147 236.567C9.58462 241.949 9.87315 245.803 9.39246 244.539C9.39246 246.277 9.39246 248.014 9.39246 249.752C9.52331 250.202 9.65417 250.652 9.78502 251.101C9.25672 261.79 10.1834 266.718 9.44812 272.625C9.56042 274.573 9.67272 276.52 9.78502 278.468C9.65417 279.566 9.52331 280.663 9.39246 281.761C9.50476 281.975 9.61706 282.189 9.72936 282.403C9.64655 292.897 9.78137 304.07 9.76842 314.106C9.7594 321.097 9.71506 322.772 9.7235 328.965C9.74266 342.74 9.51983 329.061 9.27918 340.507C9.41687 339.911 9.55456 339.315 9.69225 338.719C9.7427 340.615 9.79316 342.51 9.84361 344.406C9.73131 345.726 9.61901 347.045 9.50671 348.365C10.0892 354.219 9.61901 358.012 9.61901 358.809C9.62003 359.453 9.97069 361.665 9.6737 368.593C10.1531 365.72 9.67651 373.878 9.6737 374.532C9.67175 375.153 9.77878 383.096 9.77428 386.319C9.7725 387.643 9.74351 389.751 9.71693 392C9.681 393.845 10.0692 395.786 10.6776 397.283C11.8984 400.011 12.0817 399.554 12.1544 399.758C14.3564 402.64 12.8179 400.978 14.6979 402.832C16.72 404.582 18.7601 405.15 19.2723 405.349C19.5426 405.447 18.5775 405.288 19.8266 405.713C20.933 406.066 22.3962 406.341 24 406.325C27.6511 406.298 31.884 406.239 34.9307 406.241C36.538 406.243 38.5637 406.371 40.3536 406.375C43.0977 406.381 44.3801 406.21 45.9744 406.215C46.5289 406.217 50.0686 406.481 54.4686 406.441C55.3056 406.432 57.7646 405.874 61.0313 406.665C61.2832 406.554 61.5352 406.443 61.7871 406.331C76.5428 406.056 80.6488 406.96 87.2098 406.157C97.9239 406.247 90.5687 406.56 91.7448 406.608C92.5047 406.638 95.9978 406.552 96.3819 406.557C97.0615 406.566 96.9447 406.667 97.6896 406.666C111.347 406.648 105.283 406.458 109.609 406.338C119.895 406.052 127.92 406.687 110.029 406.496C110.029 406.552 110.029 406.608 110.029 406.664C114.434 406.611 125.617 406.636 121.883 406.92C118.942 407.144 92.4123 406.998 107.438 407.312C110.849 407.383 112.616 407.173 118.523 407.566C122.43 407.588 122.993 407.077 128.283 407.282C127.413 407.104 126.544 406.926 125.674 406.748C132.888 406.516 141.788 406.827 147.329 406.728C149.212 406.694 155.995 405.845 154.414 406.693C157.579 406.641 172.489 406.797 175.259 406.721C175.926 406.702 176.793 406.251 186.435 406.408C187.105 406.465 187.775 406.522 188.445 406.578C179.626 406.743 195.2 406.91 190.97 407.339C189.533 407.146 182.54 407.029 181.414 406.932C179.493 406.765 185.216 406.55 177.923 406.609C173.325 407.325 186.47 406.995 184.461 407.676C194.036 407.358 194.993 407.661 197.161 407.674C206.426 407.725 212.258 407.653 221 407.733C223.13 407.593 207.303 407.391 205.343 407.451C212.558 406.956 200.14 406.933 194.899 407.228C194.459 407.078 194.019 406.928 193.58 406.778C200.402 406.86 207.056 406.901 213.813 406.778C214.253 406.834 214.693 406.89 215.133 406.946C213.617 407.031 212.102 407.115 210.586 407.199C216.205 407.337 212.835 406.901 220.322 407.283C220.554 407.115 220.786 406.946 221.018 406.777C228.196 406.833 235.375 406.889 242.553 406.945C246.291 406.607 260.104 406.733 257.574 407.171C263.15 407.202 256.267 406.969 261.491 406.862C263.765 406.816 268.21 406.803 269.308 406.921C268.835 407.338 262.184 407.39 260.172 407.676C261.393 407.768 292.323 407.471 289.565 407.958C292.035 408.017 290.9 407.766 295.354 407.701C307.836 407.522 327.169 408.018 337.219 407.396C325.418 407.049 321.927 407.416 312.883 407.431C307.106 407.44 271.884 407.499 279.751 407.059C278.458 407.115 277.164 407.171 275.87 407.227C274.563 407.095 273.255 406.964 271.947 406.833C275.632 406.814 279.318 406.795 283.003 406.776C283.883 406.907 284.762 407.038 285.642 407.169C286.048 407.076 286.454 406.982 286.86 406.889C288.412 406.87 289.963 406.852 291.515 406.833C291.079 406.945 290.643 407.058 290.207 407.17C292.599 407.189 294.99 407.208 297.382 407.228C296.738 407.078 296.094 406.928 295.45 406.777C306.713 406.74 302.899 406.834 309.145 407.114C313.809 407.143 305.931 406.855 315.798 406.781C327.272 406.696 319.744 407.155 334.604 407.057C334.818 406.982 335.032 406.907 335.246 406.832C338.513 406.907 341.781 406.982 345.048 407.057C344.616 406.964 344.184 406.871 343.752 406.777C350.496 406.814 359.789 406.636 362.024 407.001C355.189 406.825 355.256 407.463 357.033 407.58C359.001 407.709 375.5 407.705 392 407.67C401.513 407.905 408.131 398.492 407.603 392C407.592 388.342 407.584 385.444 407.581 383.721C407.561 370.286 407.765 360.132 407.451 347.86C407.194 356.176 407.405 385.42 407.227 390.961C407.217 391.27 407.028 391.356 406.981 392C406.936 392.475 407.006 393.242 407.037 394.742C405.999 401.076 399.807 407.349 392 407.293C386.535 407.32 380.86 407.346 375.084 407.338C375.517 407.17 375.951 407.001 376.385 406.833C383.851 407.139 390.843 406.609 392 406.857C392.183 406.899 392.212 406.963 392.057 407.059C393.696 407.053 395.327 406.782 396.875 406.252C396.839 406.146 396.802 406.039 396.766 405.933C399.045 405.156 401.127 403.801 402.77 402.035C402.852 402.112 402.935 402.189 403.017 402.266C404.411 400.772 405.498 398.993 406.184 397.071C406.149 396.833 406.109 396.598 406.064 396.366C406.428 395.344 406.782 393.793 406.777 392C406.771 383.314 406.453 369.943 407.002 377.908C407.002 374.857 407.002 371.805 407.002 368.754C406.92 368.764 406.837 368.774 406.755 368.784C406.744 367.472 406.733 366.16 406.722 364.849C406.796 365.281 406.871 365.713 406.945 366.144C406.812 360.133 407.204 354.435 406.946 350.488C406.89 353.091 406.834 355.695 406.777 358.298C406.884 353.305 406.663 344.106 406.662 343.283C406.661 340.774 406.828 339.451 406.836 336.733C406.843 334.279 406.715 334.616 406.72 334.159C406.85 320.922 407.543 325.967 406.723 319.786C406.835 319.128 406.947 318.47 407.059 317.813C406.965 316.937 406.872 316.061 406.778 315.185C406.787 311.276 406.796 307.367 406.805 303.458C406.665 304.761 406.525 306.065 406.385 307.369C406.322 301.509 406.603 298.776 406.609 298.209C406.626 296.603 406.45 295.868 406.449 295.371C406.465 271.493 406.62 285.996 407.281 274.064C407.022 269.809 406.761 274.114 406.497 274.718C406.621 269.06 406.548 267.294 406.563 261.322C406.567 259.769 406.709 258.098 406.711 257.117C406.713 256.268 406.561 253.613 406.561 251.574C406.56 248.176 406.65 243.654 406.648 239.001C406.645 235.132 406.538 223.29 406.537 215.03C406.537 211.505 406.664 212.323 406.664 211.413C406.664 211.034 406.512 208.287 406.512 206.026C406.508 187.585 406.604 168.686 406.602 150.154C406.6 137.097 406.478 123.83 406.49 110.748C406.493 107.964 406.605 109.438 406.609 108.222C406.61 107.805 406.415 107.302 406.493 102.997C406.521 101.442 406.657 103.231 406.664 101.702C406.667 100.957 406.497 100.641 406.458 96.2909C406.387 88.3845 406.614 84.1353 406.608 83.4296C406.594 82.0987 406.453 82.4877 406.448 80.7241C406.424 72.0999 406.4 64.8997 406.388 57.2031C406.382 53.6091 406.354 28.8283 406.379 27.4673C406.432 24.6102 406.694 26.9298 406.718 24C406.72 23.8217 406.717 23.6231 406.708 23.4025C406.593 22.3988 406.377 21.416 406.065 20.4735C406.311 21.6338 406.411 22.8199 406.368 24C406.354 24.4279 406.34 24.8558 406.326 25.2837C406.335 24.8603 406.341 24.4318 406.346 24C406.487 19.9398 404.244 15.9347 402.17 13.9583C401.919 13.4066 397.5 10.0395 394.619 9.82487C395.785 9.98225 396.938 10.2855 398.043 10.7288C397.679 10.5111 397.305 10.3088 396.921 10.1224C395.36 9.5904 393.692 9.31482 392 9.32565C387.536 9.34993 382.975 9.34691 378.514 9.33972C376.242 9.33627 377.01 9.2216 374.711 9.21766C361.317 9.19348 364.699 9.67026 351.813 8.77529C356.164 8.85643 372.038 8.74257 374.345 8.77236C375.952 8.79321 382.187 9.54944 379.9 8.77333C392.131 8.77655 382.624 9.16394 392 9.12131C392.451 9.1192 392.946 9.13544 393.489 9.18463C393.277 9.06842 393.059 8.95663 392.836 8.84966C396.831 9.03279 399.61 10.5511 401.384 12.1519C401.966 12.0298 407.64 17.0959 407.362 24C407.345 27.0576 407.325 30.086 407.335 32.5002C407.379 43.7921 407.491 56.5497 407.511 67.7368C407.518 71.591 407.337 73.774 407.338 74.2575C407.339 74.9642 407.497 76.9498 407.498 78.3606C407.503 83.6281 407.236 99.6531 407.674 103.639C407.674 77.0929 407.674 50.5464 407.674 24C407.706 19.2885 405.453 14.6436 401.755 11.731C403.063 13.1412 398.878 8.43489 392 8.51546C383.924 8.55396 374.248 8.55745 373.379 8.55166C371.891 8.54204 373.143 8.39091 372.701 8.38174C369.407 8.31693 366.596 8.53604 365.551 8.53604C364.753 8.536 363.143 8.4332 360.308 8.43545C359.788 8.43577 359.643 8.5445 359.084 8.54482C355.385 8.54482 351.734 8.54328 348.022 8.54385C347.796 8.5428 346.86 8.38398 345.923 8.3837C344.983 8.3837 344.054 8.54238 343.817 8.54287C340.85 8.54174 335.764 8.43853 332.941 8.43741C331.962 8.43745 332.641 8.55375 331.544 8.55264C328.172 8.54982 329.282 8.32215 325.113 8.38077C323.715 8.40052 323.806 8.57462 321.13 8.55166C319.235 8.53532 319.439 8.22505 319.138 8.21378C318.723 8.20016 312.183 8.44517 310.044 8.2421C314.719 7.70598 304.931 8.21413 305.401 8.44034C302.81 8.38337 300.218 8.32641 297.627 8.26944C296.743 8.32673 295.859 8.38402 294.975 8.44131C284.52 8.18318 278.141 8.33817 267.855 8.2587C267.358 8.25476 258.692 8.12739 259.097 8.04679C264.284 7.90817 269.46 7.90184 272.78 8.15812C278.243 7.66946 278.337 8.05888 287.159 7.99406C290.113 7.97208 290.322 7.83951 290.662 7.83782C302.149 7.77188 320.548 7.71484 328.286 8.10246C330.456 7.99762 322.657 7.95605 325.689 7.87883C327.343 7.83655 367.144 7.71275 354.429 8.15909C355.749 8.14673 357.068 8.13436 358.388 8.12199C359.708 7.7004 366.272 7.79681 365.527 8.21671C366.148 8.13078 366.77 8.04484 367.392 7.95891C368.621 7.8862 370.074 7.84725 372.113 7.82414C374.954 7.79217 382.909 7.79118 392 7.79997C400.96 7.39117 408.718 16.573 408.167 24C408.16 30.3428 408.16 34.9688 408.178 35.7036C408.277 35.7595 408.377 35.8155 408.477 35.8715C408.498 31.8988 408.507 27.9491 408.508 24C408.715 15.2969 400.928 7.33231 392 7.51665C383.664 7.51575 375.131 7.48676 366.204 7.37299C366.854 7.46641 367.504 7.55983 368.154 7.65325C359.226 7.5224 350.298 7.39154 341.37 7.26069C350.819 7.0916 365.852 6.9496 375.772 7.08882C377.536 7.11364 376.243 7.24393 376.648 7.25971C377.707 7.3007 378.845 7.07466 382.647 7.05268C384.796 7.04028 388.782 7.08604 392 7.12739C394.624 7.14794 396.677 7.84607 397.052 7.95893C398.778 8.33107 403.23 10.5333 405.108 13.052C407.512 16.2846 405.763 14.2093 406.232 14.8644C408.016 17.6616 408.845 20.6323 408.945 23.2309C408.954 23.4706 408.959 23.7277 408.956 24C408.912 27.8466 408.689 34.6571 409.076 37.0473C409.095 34.4418 409.114 31.8364 409.133 29.2309C409.281 43.3593 408.753 54.4055 409.16 68.3247C409.661 71.4876 409.593 59.9866 409.807 69.7104C409.8 67.9447 409.792 66.1792 409.785 64.4135C409.68 63.9997 409.576 63.5857 409.471 63.1718C409.546 60.1304 409.62 57.0891 409.695 54.0477C409.602 54.9156 409.508 55.7833 409.415 56.6512C409.345 45.8688 409.249 34.9805 409.751 31.2165C409.63 30.9945 409.508 30.7726 409.387 30.5506C409.417 28.5109 409.419 26.263 409.41 24C409.655 13.5261 399.176 8.2793 401.859 9.30333C401.404 9.04091 400.939 8.79936 400.464 8.57948C397.535 6.98051 396.483 7.00011 396.074 6.91004C395.638 6.8743 395.709 6.93774 394.484 6.7609C394.302 6.73882 393.295 6.57732 392 6.56216C388.647 6.51443 383.244 6.39706 387.092 6.249C375.618 6.09571 379.156 6.72713 375.994 6.75484C368.649 6.44203 355.437 6.91125 360.991 6.41696C359.898 6.39841 358.804 6.37985 357.71 6.3613C354.116 6.75019 350.573 6.31018 346.678 6.16306C345.359 6.15427 344.039 6.14549 342.719 6.1367C341.835 6.26755 340.952 6.39841 340.068 6.52926C327.652 5.90646 331.583 7.60972 325.911 6.17869C326.795 6.09308 327.678 6.00747 328.562 5.92186C330.658 5.88117 332.753 5.84048 334.849 5.79979C326.397 5.76203 317.945 5.72427 309.492 5.68651C298.764 5.2854 292.659 5.72061 280.74 5.40332C279.625 5.44141 278.509 5.47949 277.393 5.51757C278.53 5.1935 282.859 5.24112 274.796 5.09571C274.108 4.86658 279.554 4.83693 282.036 5.01271C282.634 5.0556 277.543 5.23111 283.266 5.23731C287.157 5.24173 280.092 4.96637 291.748 5.06837C291.316 5.01238 290.884 4.95639 290.452 4.90041C291.716 4.90203 292.98 4.90366 294.243 4.90529C295.367 5.03484 296.491 5.1644 297.615 5.29395C300.503 5.10683 302.124 4.84461 308.724 4.90041C306.934 4.98155 309.363 5.24171 312.63 5.23731C312.63 5.14356 312.63 5.04982 312.63 4.95607C320.537 4.89576 317.807 5.17081 324.381 4.95607C325.039 5.03061 325.697 5.10515 326.355 5.17969C329.936 4.87252 343.121 4.66356 340.716 5.12403C344.414 4.67652 352.182 4.87843 355.071 5.23633C355.293 5.14324 355.515 5.05014 355.737 4.95704C357.274 4.93817 358.812 4.91929 360.35 4.90041C361.207 4.95672 362.065 5.01303 362.923 5.06935C364.013 5.01303 365.103 4.95672 366.192 4.90041C366.85 4.99383 367.508 5.08725 368.166 5.18067C369.918 5.0687 371.669 4.95672 373.421 4.84474C374.493 4.91929 375.564 4.99383 376.636 5.06837C376.747 4.87351 387.365 4.83012 390.331 4.95802C390.888 4.92238 391.444 4.88673 392 4.85109C392.394 4.83013 392.783 4.82084 393.177 4.82369C393.689 4.94766 394.192 5.09194 394.685 5.25566C395.467 5.29182 396.251 5.37699 397.031 5.51204C398.765 6.05951 400.41 6.85515 401.898 7.8573C408.173 11.7798 407.334 13.1085 408.35 14.332C409.375 15.8691 411.218 20.1978 411.178 24C411.231 26.0942 411.273 27.8789 411.268 28.4751C411.253 29.963 411.09 30.6815 411.074 31.8824C410.818 51.6821 411.256 43.5431 411.325 47.5151C411.363 49.6584 411.211 51.1751 411.228 53.0699C411.256 56.3112 411.457 72.6626 411.437 73.6036C411.409 74.9735 410.691 71.7484 410.876 76.2011C411.262 76.3488 410.872 85.8706 411.41 81.42C411.363 85.3412 411.316 89.2623 411.269 93.1835C411.726 92.7392 411.432 97.5745 411.457 102.841C411.493 110.305 411.793 127.109 411.324 126.495C411.432 128.282 411.54 130.07 411.647 131.857C411.5 144.09 411.654 156.087 411.66 168.228C411.678 204.261 411.576 243.353 411.483 279.217C411.479 280.941 411.326 280.693 411.322 281.934C411.305 288.456 411.414 305.407 411.38 314.543C411.369 317.47 411.22 318.894 411.213 319.822C411.189 322.972 411.385 322.229 411.38 323.679C411.371 325.968 411.188 338.07 411.169 342.239C411.159 344.303 411.316 346.745 411.268 349.162C411.264 349.37 411.102 348.986 411.1 349.162C411.08 353.566 411.219 350.917 411.212 352.407C411.159 363.032 411.156 374.389 411.123 385.916C411.118 387.643 411.075 389.923 411.039 392C411.018 393.622 410.776 395.129 410.511 396.255C410.198 397.322 411.005 395.468 409.726 399.122C409.209 400.344 408.871 400.685 408.103 401.949C404.472 407.086 402.52 408.841 397.199 410.261C395.663 410.703 393.895 410.994 392 411.001C382.969 411.046 370.675 411.141 363.734 411.144C361.802 411.144 360.861 411.05 359.019 411.052C357.712 411.053 355.413 411.198 353.374 411.2C351.335 411.202 348.117 411.063 344.196 411.068C340.068 411.073 334.935 411.156 334.004 411.155C332.88 411.155 332.356 410.98 331.233 410.982C327.835 410.988 318.737 411.16 314.358 411.179C309.654 411.198 306.83 411.114 305.222 411.115C303.733 411.118 301.997 411.265 301.317 411.267C300.259 411.269 300.009 411.096 298.666 411.098C296.47 411.1 294.207 411.209 290.915 411.212C231.631 411.265 173.506 411.171 115.83 411.045C109.4 411.031 105.767 411.152 96.2919 411.097C92.4504 411.074 94.0686 410.896 91.079 410.93C89.746 410.945 90.083 411.085 88.3975 411.092C80.9478 411.121 72.2678 410.991 69.0396 410.993C67.7593 410.994 66.2959 411.153 63.6707 411.155C51.3907 411.167 37.6994 411.153 24 411.148C14.0858 411.367 5.25785 402.751 4.88335 393.24C4.85678 392.831 4.84287 392.422 4.84224 392C4.82422 380.862 4.74771 364.621 4.73733 352.216C4.70746 316.864 4.74432 278.832 4.72854 246.59C4.70543 197.906 4.55828 149.455 4.73244 100.875C4.3475 123.603 4.37963 154.552 4.33792 179.854C4.22568 248.507 4.41621 321.335 4.43273 392C4.3975 397.582 6.93743 403.119 11.1393 406.746C14.5254 409.729 19.1793 411.588 24 411.567C47.8254 411.569 75.4935 411.573 99.9751 411.649C101.269 411.653 103.951 411.531 106.748 411.544C107.342 411.547 114.709 411.77 117.192 411.772C114.839 411.376 124.563 411.729 127.569 411.72C131.36 411.707 139.266 411.509 148.139 411.621C156.19 411.723 153.969 411.875 154.414 411.885C157.261 411.947 158.255 411.701 160.436 411.676C169.35 411.577 215.199 411.719 227.994 411.728C231.301 411.731 231.394 411.887 232.139 411.888C234.112 411.889 236.921 411.734 240.082 411.735C245.78 411.738 252.344 411.885 255.481 411.886C262.983 411.887 277.218 411.713 286.968 411.71C289.71 411.709 289.542 411.872 290.783 411.871C296.247 411.868 310.479 411.676 317.262 411.675C328.279 411.672 339.612 411.777 350.813 411.724C351.522 411.796 352.232 411.869 352.942 411.941C354.062 411.865 355.182 411.789 356.301 411.713C368.132 411.749 380.095 411.699 392 411.659C400.883 411.775 409.153 405.13 411.076 396.595C411.264 395.822 411.636 394.107 411.649 392C411.69 387.984 411.758 382.336 411.759 381.081C411.759 379.591 411.579 378.125 411.605 375.916C411.642 372.822 411.985 375.734 411.887 370.679C411.86 369.32 411.714 370.638 411.668 367.908C411.653 367.006 411.593 349.503 411.603 348.562C411.621 346.994 411.935 345.596 411.941 345.191C411.977 343.087 411.736 343.177 411.714 341.766C411.648 337.601 411.81 332.16 411.807 331.484C411.762 323.302 411.57 308.007 411.684 299.42C411.699 298.233 411.879 298.375 411.885 298.167C411.922 296.821 411.718 295.985 411.713 294.705C411.69 287.818 411.827 277.031 411.862 270.104C411.866 269.307 411.768 267.623 411.777 266.199C411.833 258.148 411.99 260.76 411.997 260.303C412.014 259.218 411.84 257.31 411.829 254.424C411.8 246.987 411.825 232.727 411.839 224.754C411.85 218.781 412.049 218.871 412.053 218.479C412.06 217.642 411.901 215.315 411.883 211.383C411.847 203.817 412.004 204.679 411.997 201.569C411.997 201.307 411.844 201.762 411.828 198.312C411.798 191.645 411.948 176.671 411.94 169.536C411.938 166.791 411.79 166.149 411.787 163.339C411.782 158.884 411.942 148.829 411.941 148.036C411.941 147.814 411.771 147.315 411.771 146.008C411.771 144.571 411.859 143.157 411.858 142.085C411.856 135.982 411.559 125.468 412.166 128.39C412.016 126.435 411.866 124.479 411.717 122.523C411.747 109.741 411.687 97.3239 411.656 84.6593C411.649 81.8111 411.764 79.433 411.759 77.0289C411.753 74.6253 411.563 64.0204 411.56 62.248C411.553 59.0852 411.533 41.1121 411.547 38.8769C411.573 34.5116 411.823 30.2766 411.774 28.4991C411.735 27.0745 411.594 28.3921 411.554 25.6736C411.546 25.1518 411.541 24.5894 411.539 24C411.932 18.032 407.273 11.0636 405.992 10.1845C405.724 9.91916 405.825 10.0501 405.353 9.64393C404.856 9.28021 403.9 8.17479 400.785 6.5377C397.373 4.88177 395.28 4.60201 393.923 4.43301C393.652 4.42178 393.802 4.45282 392 4.4721C391.167 4.50087 389.822 4.52028 387.614 4.51077C383.379 4.49217 381.574 4.34044 381.129 4.33988C380.462 4.33887 378.853 4.50078 376.174 4.49515C369.914 4.48101 358.468 4.29539 352.521 4.28128C351.371 4.27847 351.762 4.47407 347.176 4.45608C343.896 4.44312 344.469 4.28751 343.241 4.28128C341.294 4.2717 338.393 4.46225 334.093 4.45608C328.682 4.44819 288.506 4.25055 286.427 4.19926C285.029 4.16487 283.407 4.16271 282.714 4.07817C283.308 3.99711 283.902 3.91606 284.495 3.83501C290.648 4.11944 288.165 3.79437 289.798 3.77349C292.164 3.74362 301.079 3.78509 303.236 3.71294C304.004 3.68689 302.245 3.51387 306.373 3.42487C310.802 3.32971 312.773 3.63771 314.537 3.21686C320.824 3.6841 326.862 3.18819 319.582 3.05574C315.518 2.98188 275.654 2.81506 267.513 2.78914C260.912 2.76832 248.55 2.89352 240.435 2.86141C235.664 2.84224 223.915 2.82052 224.412 2.59677C220.178 2.56858 224.659 2.79135 223.77 2.82234C221.912 2.88707 208.695 2.73323 206.194 2.73934C193.856 2.76865 178.287 3.01878 166.302 2.73641C166.86 2.67652 167.418 2.61662 167.976 2.55673C170.668 2.44682 183.163 2.60395 184.574 2.3165C166.302 2.3165 148.03 2.3165 129.758 2.3165C130.098 2.56111 107.434 2.55783 106.363 2.44736C106.761 2.32887 107.159 2.21038 107.557 2.0919C120.363 2.54156 119.215 1.94718 127.814 2.26279C131.315 2.26724 130.258 2.07148 131.983 2.03428C149.153 1.66465 132.259 2.43601 145.403 2.26084C141.446 1.97688 152.211 1.87311 157.034 1.83702C158.132 1.82913 172.55 1.9011 174.263 1.89659C183.882 1.87123 200.401 1.71566 209.955 1.8712C217.483 1.8898 221.627 1.68754 228.461 1.64074C233.649 1.60524 232.162 1.74739 234.604 1.74914C239.727 1.75308 241.413 1.3203 244.694 1.92393C248.167 1.84874 251.64 1.77355 255.114 1.69836C255.114 1.7921 255.114 1.88585 255.114 1.9796C257.295 1.9796 259.477 1.9796 261.658 1.9796C262.3 1.88618 262.942 1.79275 263.584 1.69933C270.508 1.82728 267.617 2.05302 268.911 2.31845C270.406 2.33668 271.902 2.35491 273.398 2.37314C274.556 2.16937 275.713 1.9656 276.871 1.76183C283.55 1.77843 290.228 1.79503 296.907 1.81163C297.339 1.90506 297.771 1.99848 298.203 2.0919C298.217 1.99848 298.231 1.90506 298.245 1.81163C309.554 1.79243 320.864 1.77322 332.174 1.75402C335.182 1.60415 317.061 1.49058 315.689 1.48157C308.056 1.43198 287.785 1.58224 287.759 1.24915C283.014 1.49768 268.729 1.43597 264.286 1.13783C271.03 1.15573 277.775 1.17363 284.519 1.19154C284.302 1.07989 284.084 0.968235 283.866 0.856585C292.269 1.30689 293.499 1.28211 302.138 0.856585C302.146 1.00632 302.154 1.15605 302.162 1.30579C308.186 0.785124 318.833 1.66834 319.138 1.02552C322.346 1.07761 325.553 1.12969 328.76 1.18177C335.686 1.10341 324.931 0.609041 352.047 0.802876C353.916 0.816402 353.527 0.980149 356.336 0.968886C357.147 0.965504 361.787 0.727296 370.661 0.752096C372.047 0.756057 372.151 0.898117 373.589 0.916153C376.908 0.958981 383.519 0.67802 380.517 1.13587C393.329 1.26601 388.48 0.912411 392 0.7561C392.133 0.752024 392.275 0.749202 392.425 0.748109C396.36 0.892938 395.563 1.0936 398.861 1.89045C400.875 2.51936 401.168 2.5666 402.874 3.35213C404.376 4.28646 408.284 5.49201 412.586 12.9332C411.663 11.2584 410.537 9.70352 409.243 8.30973C409.832 9.06709 410.373 9.85792 410.86 10.675C413.64 14.6089 414.038 16.9002 414.475 18.3566C414.836 19.8618 415.071 20.7416 415.405 23.0121C415.41 23.3424 415.409 23.6717 415.401 24C415.238 28.5565 415.226 32.6526 415.259 38.9549C415.325 51.802 415.774 45.2158 415.169 59.8785C415.254 62.254 415.339 64.6295 415.424 67.005C415.245 70.9099 415.022 67.7514 414.976 73.5796C415.418 69.0183 415.257 81.3155 415.65 83.3936C415.556 83.6115 415.463 83.8295 415.369 84.0474C415.369 85.3492 415.369 86.6509 415.369 87.9526C415.444 87.9567 415.519 87.9605 415.595 87.9646C415.538 89.6982 415.482 91.4319 415.426 93.1655C415.5 94.4693 415.575 95.7729 415.649 97.0767C415.492 99.2203 415.335 101.364 415.178 103.507C415.167 104.853 415.156 106.199 415.145 107.545C415.257 107.119 415.369 106.693 415.481 106.267C415.444 107.996 415.406 109.726 415.369 111.456C415.553 109.443 415.768 110.708 415.763 116.093C415.758 120.536 415.375 115.531 415.534 125.085C415.545 125.751 415.819 126.931 415.861 135.961C415.912 146.79 415.714 141.529 415.707 143.459C415.706 143.838 415.843 147.146 415.863 150.244C415.874 152.002 415.763 153.695 415.764 153.927C415.769 155.011 415.926 155.328 415.931 156.83C415.945 160.646 415.868 165.768 415.876 169.506C415.879 171.205 415.972 172.803 415.973 173.561C415.975 174.737 415.832 176.229 415.833 177.418C415.836 181.809 416.308 188.474 415.652 190.513C416.255 194.734 415.526 203.578 415.931 202.931C415.778 214.211 416.274 244.299 415.595 243.416C416.175 249.805 415.755 249.234 415.764 251.91C415.773 254.903 415.886 253.353 415.881 255.732C415.869 261.285 415.82 266.592 415.818 272.12C415.725 271.252 415.632 270.384 415.539 269.517C415.509 275.319 415.726 273.321 415.767 279.241C415.844 290.127 415.671 285.54 415.427 287.147C415.662 286.716 415.626 299.553 415.595 300.86C415.576 301.639 415.272 298.224 415.37 306.085C415.463 305.655 415.557 305.225 415.65 304.795C415.522 308.377 415.685 318.105 415.653 319.756C415.639 320.514 414.885 324.569 415.481 328.28C415.388 328.728 415.294 329.176 415.201 329.624C415.313 333.745 415.426 337.866 415.538 341.987C415.37 342.645 415.201 343.303 415.033 343.961C415.033 345.269 415.033 346.577 415.033 347.884C415.182 347.016 415.332 346.149 415.481 345.281C415.414 353.356 415.649 363.221 415.145 364.885C415.239 366.614 415.332 368.344 415.426 370.074C415.258 371.199 415.09 372.325 414.923 373.451C414.965 381.46 415.077 381.592 415.256 387.068C415.125 386.854 414.994 386.64 414.863 386.426C414.931 387.913 414.997 389.852 415.054 392C415.261 397.304 412.966 403.554 409.331 407.486C406.813 410.753 400.425 413.719 399.489 413.844C398.959 414.088 395.155 415.47 392 415.44C390.739 415.473 389.682 415.427 389.421 415.2C379.854 415.472 375.642 415.194 371.76 415.201C369.239 415.206 368.088 415.353 365.24 415.368C361.162 415.39 357.058 415.319 354.706 415.329C353.36 415.335 353.108 415.479 352.18 415.483C347.793 415.505 350.363 415.358 345.738 415.368C345.311 415.37 341.93 415.545 338.119 415.522C335.989 415.51 330.477 415.313 329.991 415.313C327.834 415.317 329.558 415.711 322.187 415.256C322.401 415.331 322.615 415.405 322.828 415.48C313.706 415.67 312.266 415.336 310.423 415.313C310.188 415.311 307.967 415.44 306.638 415.423C304.393 415.392 303.488 415.216 302.991 415.208C301.239 415.181 295.341 415.259 291.485 415.088C292.295 415.591 278.785 415.769 275.792 415.2C273.401 415.312 271.009 415.425 268.618 415.537C267.536 415.443 266.454 415.349 265.372 415.256C264.715 415.349 264.057 415.443 263.399 415.536C259.914 415.33 256.428 415.125 252.943 414.919C252.721 415.125 252.499 415.331 252.277 415.537C251.301 415.514 250.326 415.49 249.35 415.467C248.588 415.303 247.826 415.139 247.064 414.975C245.845 415.007 244.625 415.038 243.405 415.069C243.103 415.188 242.801 415.306 242.499 415.425C235.942 415.561 239.311 414.431 226.819 415.425C224.875 415.331 222.931 415.238 220.988 415.144C218.793 415.599 214.679 415.324 211.36 415.375C209.021 415.411 209.148 415.592 205.961 415.596C202.772 415.599 202.886 415.427 202.638 415.426C200.038 415.415 198.078 415.567 196.171 415.537C195.884 415.532 195.164 415.327 192.734 415.314C190.303 415.301 188.838 415.52 185.217 415.478C183.362 415.458 182.826 415.285 181.18 415.269C173.338 415.195 165.442 416.07 159.561 415.032C158.235 415.164 148.619 415.624 144.504 415.598C138.103 415.555 140.57 415.352 138.025 415.314C137.659 415.309 135.71 415.377 130.341 415.365C129.38 415.363 129.603 415.478 129.465 415.479C123.205 415.477 111.049 415.386 104.174 415.37C103.56 415.368 100.344 415.689 94.8942 415.258C86.8178 415.576 71.6049 414.892 60.9533 415.372C59.4766 415.382 57.6839 415.267 57.0301 415.271C51.397 415.307 53.4614 415.655 40.7315 415.145C41.762 415.323 38.7839 415.483 34.5768 415.47C28.2511 415.449 32.7444 415.118 27.6602 415.145C27.6602 415.239 27.6602 415.332 27.6602 415.426C26.3278 415.397 25.117 415.377 24 415.364C17.6658 415.211 13.5068 413.285 9.80739 410.644C6.24359 407.897 2.45037 404.019 0.842684 396.439C0.581217 395.079 0.432383 393.548 0.449848 392C0.505281 388.299 0.630568 384.354 0.631006 383.572C0.630402 383.182 0.405166 378.566 0.403474 378.125C0.39671 375.642 0.500563 374.24 0.501127 372.096C0.503328 365.013 0.210322 356.56 0.74233 358.089C0.630029 356.142 0.517728 354.194 0.405427 352.246C0.973554 344.888 0.190548 339.386 0.74233 337.843C0.628402 336.528 0.514473 335.212 0.400544 333.896C0.45816 302.337 0.515775 270.777 0.57339 239.218C0.39585 237.963 0.458861 224.201 0.486479 223.495C0.61162 220.255 0.998778 223.678 0.910294 217.065C0.740703 216.333 0.571112 215.601 0.401521 214.869C0.346294 206.557 0.515053 210.555 0.630029 207.275C0.609115 205.904 0.477503 206.347 0.467925 204.491C0.415514 194.428 0.409299 173.793 0.398591 162.788C0.396339 160.569 0.519368 160.904 0.519681 160.215C0.518554 158.32 0.363516 154.581 0.363436 150.778C0.364563 127.267 0.451989 93.9505 0.582179 70.2813C0.591197 68.6738 0.737933 68.4747 0.74526 67.3899C0.754796 65.8865 0.636186 62.5284 0.648583 60.9473C0.659858 59.4578 0.771309 58.5038 0.784321 56.9101C0.845193 49.6172 0.656897 39.8119 0.985487 32.0093C1.00746 31.4891 1.38324 26.2442 1.55738 24C1.60375 23.1776 1.67605 22.6538 1.68609 22.599C1.82332 21.9753 1.8456 23.3822 1.9892 24C2.05499 24.2268 2.1237 24.3125 2.19388 24C2.42826 23.2993 2.03536 20.6732 4.45219 15.2091C1.90119 21.9652 3.11783 24.5745 3.14579 22.9273C3.50752 21.5225 3.64392 15.0777 10.2562 8.97427C6.11302 12.7825 3.68468 18.4049 3.76182 24C3.78557 26.5218 3.80931 29.0436 3.83306 31.5654C3.89458 31.5754 3.9561 31.5854 4.01762 31.5954C4.13677 29.1235 4.22486 26.6592 4.28964 24C4.38774 18.9792 6.37303 12.9654 12.0615 8.52035C11.8064 8.78929 11.5604 9.0642 11.3232 9.34485C7.3755 12.855 4.77489 18.5782 4.95486 24C5.05024 28.2993 5.15971 32.3411 5.34863 35.4886C5.46464 31.6591 5.58065 27.8295 5.69667 24C5.80548 17.4955 9.70641 11.3571 15.315 8.47181C14.8773 8.76861 14.4544 9.084 14.0483 9.41599C10.4513 11.4869 6.07061 18.8188 6.58194 24C6.60013 25.0686 6.61916 25.9964 6.63961 26.7064C6.883 35.1715 6.94763 29.3546 7.01062 24C7.00311 19.9408 8.84639 16.5194 8.17312 18.3615C7.52751 20.1678 7.19997 22.0827 7.19979 24C7.19177 37.4055 7.18375 50.8111 7.17573 64.2166C7.29407 64.5557 7.54485 41.048 7.85622 24C8.18461 13.4502 17.145 9.85887 16.6295 10.2921C12.5319 12.5197 9.56098 16.6679 8.79948 21.234C9.30522 19.232 10.2152 17.3656 11.4347 15.7703C11.1697 16.2565 10.9326 16.7557 10.7254 17.263C9.69694 19.3562 9.18327 21.68 9.22036 24C9.29693 29.5712 9.3735 35.1423 9.45007 40.7135C9.42087 34.2877 9.40486 28.762 9.4173 24C9.47802 17.7557 13.1685 13.7166 16.2466 11.9615C19.4341 10.1465 22.1936 10.1462 24 10.5448C23.4354 10.5735 22.8807 10.6365 22.3308 10.7336C21.055 10.6854 18.1775 11.0898 15.3447 13.287C12.5155 15.4058 10.083 19.4978 10.1473 24C10.1619 31.3972 10.236 39.0486 10.2948 44.6367C10.501 41.9169 10.3417 30.1673 10.4657 27.6842C10.5012 26.9806 10.6443 29.4343 10.7176 27.8042C10.7546 26.9761 10.7937 25.6232 10.8344 24C10.8297 21.2 12.249 17.6211 14.1903 15.6271C16.0822 13.5864 17.8671 12.9047 17.1687 13.3942C16.7579 13.6235 11.4169 17.5334 11.6116 24C11.6835 32.4634 11.7345 41.6913 11.7264 44.6367C11.8637 37.8291 11.9512 30.9161 12.0475 24C12.0591 18.9803 15.6581 14.342 20.2567 13.0172C16.3458 14.7734 13.2485 18.404 13.3038 24C13.3833 27.3227 13.4341 31.0867 13.4412 35.5006C13.5567 37.7693 13.6937 31.3454 13.8192 24C13.7002 18.5761 19.1517 15.1248 19.3287 15.317C16.2979 17.0899 14.4421 20.4897 14.5654 23.8422C14.5568 21.0019 15.9052 18.225 18.1673 16.4395C18.2026 16.4714 18.2378 16.5035 18.273 16.5356C15.9834 18.4076 14.7845 21.2029 14.9028 24C15.0618 31.2887 15.1985 38.7603 15.1823 47.2521C15.4303 46.7947 15.4056 38.3098 15.4079 34.1929ZM204.232 1.30286C203.946 1.09724 209.145 1.13095 212.073 1.1349C211.633 1.09746 211.193 1.06003 210.753 1.0226C217 1.06148 228.63 1.1404 229.061 0.741354C233.518 0.691759 231.547 1.03877 232.984 1.07826C233.546 1.09404 239.363 0.892088 244.016 1.13783C245.122 1.13685 246.228 1.13587 247.333 1.1349C247.547 1.00404 247.761 0.873186 247.975 0.74233C249.517 0.90118 251.058 1.06003 252.6 1.21888C236.486 1.24687 220.371 1.27487 204.256 1.30286C204.248 1.30286 204.24 1.30286 204.232 1.30286ZM364.861 1.13392C370.729 1.20775 379.718 1.32433 377.902 0.965956C374.195 0.984836 370.487 1.00372 366.78 1.0226C366.14 1.0597 365.501 1.09681 364.861 1.13392ZM253.627 414.584C248.726 414.231 244.213 414.536 236.633 414.473C236.643 414.547 236.653 414.622 236.663 414.696C239.762 414.517 247.956 414.636 253.627 414.584ZM58.6188 2.65145C57.539 2.62378 56.4592 2.59611 55.3794 2.56845C59.7709 2.16771 60.5568 2.45011 65.5233 2.41122C65.8227 2.40879 65.7188 2.31706 65.8233 2.3165C67.0386 2.31031 68.1628 2.42073 69.2605 2.41904C71.3778 2.41565 73.104 2.30377 76.8549 2.30771C79.7554 2.31113 79.7828 2.48702 80.8021 2.48251C81.6709 2.47816 90.2776 1.99429 95.817 2.20322C106.351 2.60114 61.8339 2.68865 58.6188 2.65145ZM27.3953 2.32041C28.4371 2.31878 29.4788 2.31715 30.5206 2.31552C27.388 2.58588 33.7102 2.54479 38.349 2.53915C38.2052 2.79841 28.3915 2.68751 24 2.76473C25.1317 2.61662 26.2636 2.46851 27.3953 2.32041ZM159.14 2.87605C155.063 2.90248 155.742 2.57888 155.912 2.48251C157.21 2.48251 158.508 2.48251 159.806 2.48251C159.584 2.61369 159.362 2.74487 159.14 2.87605ZM128.48 2.98836C129.748 2.76854 138.598 2.67242 142.793 2.65438C142.976 2.65435 141.824 2.77498 144.791 2.76375C145.682 2.76023 154.445 2.32128 152.517 2.81942C144.509 2.87573 136.5 2.93204 128.492 2.98836C128.488 2.98836 128.484 2.98836 128.48 2.98836ZM119.542 2.85848C121.21 2.78947 122.877 2.72046 124.545 2.65145C125.407 2.75464 126.269 2.85783 127.13 2.96101C125.233 2.98705 123.335 3.01309 121.438 3.03914C120.806 2.97892 120.174 2.9187 119.542 2.85848ZM3.15144 221.168C3.04109 221.556 2.93074 221.944 2.82039 222.332C2.75276 223.835 3.23324 231.141 3.32624 228.828C3.26797 226.275 3.2097 223.721 3.15144 221.168ZM3.38287 190.31C3.43854 188.791 3.4942 187.271 3.54986 185.751C3.36269 184.004 3.17552 182.256 2.98836 180.508C2.86213 188.1 2.7167 196.178 3.26862 194.875C3.26862 196.613 3.26862 198.351 3.26862 200.088C3.04041 198.625 2.96523 198.822 2.82039 203.369C3.13795 204.364 2.97616 209.066 3.04597 214.449C3.06452 210.534 3.08308 206.619 3.10163 202.704C3.15762 202.704 3.21361 202.704 3.2696 202.704C3.24937 211.43 3.60451 200.584 3.3819 194.899C3.45644 194.451 3.53098 194.003 3.60552 193.556C3.53131 192.474 3.45709 191.392 3.38287 190.31ZM412.73 381.171C412.674 382.253 412.618 383.335 412.561 384.417C413.295 388.609 412.599 380.074 413.18 373.997C412.739 376.004 412.757 366.741 412.727 366.21C412.579 367.276 412.431 368.342 412.282 369.408C412.432 373.329 412.581 377.25 412.73 381.171ZM398.575 411.13C400.637 410.408 397.399 412.439 392 412.532C386.921 412.59 379.834 412.576 376.439 412.532C374.936 412.512 372.257 412.312 371.172 412.337C370.514 412.411 369.857 412.485 369.199 412.56C368.419 412.303 356.348 412.591 351.592 412.729C351.145 412.636 350.697 412.543 350.249 412.449C348.515 412.486 346.781 412.523 345.048 412.56C345.266 412.467 345.484 412.374 345.702 412.281C344.39 412.393 343.078 412.505 341.767 412.617C336.617 412.742 339.792 412.234 335.924 412.393C331.624 412.568 338.67 412.871 338.539 413.067C342.029 413.017 349.964 412.903 353.506 412.897C355.54 412.894 353.235 413.247 362 412.842C363.922 412.936 365.844 413.031 367.765 413.125C371.292 412.975 374.82 412.825 378.347 412.675C379.005 412.805 379.663 412.936 380.32 413.066C380.697 413.087 388.855 412.79 388.419 412.692C389.356 412.763 390.574 412.817 392 412.859C396.641 413.08 403.413 410.976 407.82 405.809C408.36 405.083 408.85 404.326 409.288 403.544C406.728 407.242 405.863 407.452 405.949 407.415C405.967 407.322 406.538 406.687 405.508 407.521C404.381 408.583 400.265 410.829 398.575 411.13ZM3.43756 269.32C3.11913 257.714 3.38187 264.9 3.3819 252.355C3.21328 253.231 3.04467 254.107 2.87605 254.983C3.18413 261.15 2.97925 271.299 3.43756 269.332C3.43756 269.328 3.43756 269.324 3.43756 269.32ZM2.87703 146.567C2.97904 153.206 3.24126 149.874 3.32526 158.289C3.32526 158.293 3.32526 158.297 3.32526 158.301C3.34414 153.95 3.36302 149.599 3.3819 145.248C3.21361 145.688 3.04532 146.127 2.87703 146.567ZM141.498 412.919C147.863 412.992 146.61 412.861 152.386 413.123C160.985 412.805 153.706 412.85 153.706 412.561C151.74 412.646 149.775 412.731 147.809 412.815C143.044 412.546 147.563 412.41 147.563 412.384C147.559 412.384 147.555 412.384 147.551 412.384C147.551 412.297 147.706 412.279 145.878 412.227C144.418 412.457 142.958 412.688 141.498 412.919ZM168.739 412.562C166.556 412.754 165.575 413 171.312 413.123C171.316 413.123 171.32 413.123 171.324 413.123C171.785 412.695 177.286 413.04 179.794 413.012C180.452 412.965 181.11 412.919 181.768 412.872C177.425 412.769 173.082 412.666 168.739 412.562ZM264.719 412.169C264.743 412.642 259.927 412.687 266.704 413.123C268.02 413.115 269.336 413.106 270.651 413.098C271.515 412.994 272.379 412.89 273.243 412.786C289.933 413.642 294.909 412.184 266.704 412.729C266.7 412.73 266.696 412.73 266.692 412.73C266.034 412.543 265.376 412.356 264.719 412.169ZM235.325 412.209C235.113 412.457 234.901 412.706 234.689 412.954C231.003 412.355 226.242 412.927 219.014 412.504C218.36 412.579 217.706 412.655 217.053 412.73C214.352 412.564 187.82 412.516 193.568 412.898C196.077 413.065 201.543 412.839 202.014 412.844C203.608 412.862 205.687 413.076 208.378 413.063C209.934 413.056 213.212 412.805 216.387 412.806C223.483 412.807 236.437 413.48 245.769 412.843C246.44 412.918 247.112 412.992 247.784 413.067C254.709 413.022 252.397 412.784 258.84 413.067C263.291 411.888 232.94 413.125 239.26 412.169C239.256 412.169 239.252 412.169 239.248 412.169C237.94 412.182 236.632 412.196 235.325 412.209ZM44.6667 412.562C44.2486 412.351 36.2168 412.677 38.1041 412.17C35.4826 412.347 32.8611 412.523 30.2397 412.7C30.2597 412.747 30.2797 412.795 30.2997 412.842C32.9051 412.805 35.5106 412.768 38.1161 412.73C38.1261 412.805 38.136 412.88 38.146 412.955C42.0285 412.684 58.2313 412.802 57.7379 413.067C58.6038 412.955 59.4696 412.843 60.3354 412.731C68.0857 413.036 74.7536 412.712 83.1966 413.01C83.8505 412.917 84.5043 412.824 85.1582 412.731C85.5841 412.806 86.01 412.881 86.4359 412.956C89.5113 412.965 92.5866 412.975 95.662 412.984C105.684 412.683 86.2114 412.293 83.8505 412.337C83.5368 412.343 83.5854 412.537 81.6249 412.567C78.143 412.621 58.6531 412.428 52.627 412.556C52.575 412.427 52.523 412.298 52.471 412.17C49.8696 412.301 47.2681 412.432 44.6667 412.562ZM301.959 412.675C302.399 412.806 302.839 412.936 303.279 413.067C310.87 412.937 315.651 413.051 313.704 412.618C313.7 412.618 313.696 412.618 313.692 412.618C309.781 412.637 305.87 412.656 301.959 412.675ZM336.109 3.21393C336.308 3.47405 339.937 3.5713 344.627 3.38483C344.401 3.30931 344.175 3.23379 343.949 3.15827C341.505 3.37977 338.455 2.99371 330.914 3.04499C330.914 3.17585 330.914 3.3067 330.914 3.43756C332.645 3.36302 334.377 3.28848 336.109 3.21393ZM295.408 412.618C293.094 412.464 286.6 412.932 290.873 412.955C294.14 412.972 296.65 412.701 295.408 412.618ZM3.12995 120.455C3.10261 122.17 3.07527 123.886 3.04792 125.602C3.15925 126.496 3.27057 127.389 3.3819 128.283C3.3819 128.279 3.3819 128.275 3.3819 128.271C3.29792 125.666 3.21393 123.06 3.12995 120.455ZM119.741 412.94C125.56 412.924 131.379 412.908 137.197 412.892C137.255 412.819 137.313 412.746 137.371 412.674C131.542 412.939 129.199 412.653 127.839 412.636C127.845 412.636 127.851 412.636 127.857 412.636C123.493 412.578 119.335 412.536 115.206 412.449C116.718 412.613 118.229 412.777 119.741 412.94ZM99.7951 412.482C100.775 412.995 102.055 413.055 110.995 412.694C110.641 412.631 110.287 412.568 109.933 412.505C105.301 412.543 102.599 412.661 103.412 412.393C102.207 412.423 101.001 412.453 99.7951 412.482ZM190.916 412.646C189.843 412.483 181.329 412.647 181.792 412.729C181.975 412.762 193.007 412.967 190.916 412.646ZM271.472 3.32721C273.434 3.36465 275.395 3.40208 277.357 3.43951C274.748 3.49518 272.138 3.55084 269.529 3.6065C270.176 3.5134 270.824 3.42031 271.472 3.32721ZM249.937 4.05668C248.538 3.99131 253.085 3.53018 244.724 3.41119C250.809 3.40143 256.893 3.39166 262.978 3.3819C260.125 3.45644 257.271 3.53098 254.418 3.60552C254.916 3.73801 255.414 3.87049 255.911 4.00297C253.92 4.02088 251.928 4.03878 249.937 4.05668ZM243.404 3.7188C246.681 4.06929 229.427 4.09561 227.819 4.05278C227.461 4.04259 225.759 3.77688 225.132 3.71978C227.737 3.71945 230.343 3.71913 232.948 3.7188C232.076 3.63515 231.205 3.55149 230.333 3.46783C233.382 3.43919 236.432 3.41054 239.481 3.3819C238.177 3.46588 236.873 3.54986 235.57 3.63384C238.181 3.66216 240.793 3.69048 243.404 3.7188ZM312.63 3.63384C310.448 3.62505 308.267 3.61627 306.085 3.60748C306.521 3.73833 306.957 3.86919 307.393 4.00004C308.698 4.00004 310.004 4.00004 311.31 4.00004C311.75 3.87798 312.19 3.75591 312.63 3.63384ZM268.179 3.80278C271.355 3.17274 280.01 4.55013 269.895 4.04008C268.875 3.98823 267.878 3.86365 268.179 3.80278ZM221.353 3.97758C214.57 4.43693 216.1 3.42275 222.504 3.71978C222.826 3.73558 221.862 3.94366 221.353 3.97758ZM170.495 3.99223C169.946 3.98882 168.985 3.66045 163.741 3.9727C162.875 3.93527 162.009 3.89783 161.143 3.8604C163.169 3.70782 180.502 3.61706 178.108 3.94243C175.455 3.9475 173.24 4.00238 170.495 3.99223ZM187.28 5.20704C189.881 5.19792 192.483 5.18881 195.084 5.17969C194.226 5.07683 193.369 4.97397 192.511 4.87111C193.79 4.84312 195.07 4.81512 196.35 4.78713C198.537 4.96453 200.725 5.14194 202.913 5.31934C197.258 5.34766 191.603 5.37598 185.948 5.4043C186.392 5.33854 186.836 5.27279 187.28 5.20704ZM256.445 5.46094C251.44 5.33187 245.307 5.46925 237.177 5.44726C237.173 5.44694 237.169 5.44661 237.165 5.44629C236.76 5.44479 236.041 5.30348 234.736 5.29785C233.624 5.29336 211.668 5.44852 213.38 5.20899C221.875 4.99428 225.049 5.32071 227.088 4.7881C227.501 4.90041 227.915 5.01271 228.329 5.12501C236.498 5.31946 238.829 4.9307 243.416 4.7881C243.398 4.87274 243.38 4.95737 243.362 5.042C246.425 5.05047 249.489 5.05893 252.552 5.06739C252.12 5.01173 251.688 4.95607 251.256 4.90041C252.34 4.90041 253.424 4.90041 254.508 4.90041C257.148 5.15119 260.495 5.20963 256.445 5.46094ZM175.48 5.06739C173.076 5.70934 149.64 5.26963 138.936 5.4043C144.556 5.01775 153.262 5.28414 159.392 5.28809C171.241 5.29538 163.05 5.05881 165.06 4.95509C166.054 4.9038 172.775 5.31539 175.48 5.06739ZM274.73 5.34863C268.822 5.29678 265.515 5.44458 260.405 5.20899C260.832 5.16212 261.26 5.11524 261.688 5.06837C263.438 5.11128 277.708 5.24667 274.73 5.34863ZM123.249 5.23633C134.659 5.46685 129.031 4.88561 134.965 5.32129C131.06 5.34896 127.154 5.37663 123.249 5.4043C123.249 5.34831 123.249 5.29232 123.249 5.23633ZM282.349 410.203C277.541 410.188 272.171 410.071 269.296 410.313C272.563 410.351 275.83 410.388 279.098 410.426C280.181 410.352 281.265 410.277 282.349 410.203ZM407.837 389.665C407.814 390.093 407.827 391.011 407.85 392C407.908 393.545 407.631 395.254 407.56 395.523C407.364 396.347 407.328 396.099 407.307 396.105C406.521 398.745 406.35 398.806 406.489 398.786C406.567 398.742 406.838 398.585 405.826 400.404C405.653 400.699 404.246 402.996 401.799 404.804C399.402 406.68 396.05 407.729 394.092 407.934C393.395 408.026 392.698 408.072 392 408.073C386.693 408.081 381.733 408.068 379.733 408.072C375.916 408.08 368.831 408.276 362.558 408.286C359.972 408.29 359.07 408.133 356.469 408.137C339.779 408.163 306.923 408.379 292.115 408.279C288.456 408.255 284.967 408.049 283.033 408.066C281.507 408.141 279.981 408.216 278.456 408.291C273.764 407.614 272.194 408.216 267.136 408.279C263.923 408.319 262.421 408.119 261.989 408.119C259.128 408.123 257.716 408.219 255.469 408.234C252.946 408.252 249.322 408.161 248.42 408.178C247.867 408.189 249.634 408.455 239.848 408.45C229.874 408.445 220.027 408.417 209.884 408.404C213.267 409.209 216.181 408.658 220.322 408.629C221.433 408.621 220.729 408.749 221.696 408.743C224.427 408.728 229.657 408.602 231.918 408.633C234.359 408.666 233.525 408.962 236.621 408.853C236.777 408.847 236.282 408.725 237.01 408.704C244.329 408.502 246.725 408.715 255.978 408.721C262.11 408.725 299.343 408.604 300.621 408.684C307.287 409.112 268.052 409.115 263.465 409.081C261.859 409.069 263.543 408.934 262.079 408.908C261.459 408.898 255.882 409.155 250.37 409.177C243.704 409.203 230.309 409.027 223.957 409.033C169.353 409.087 115.505 408.931 60.9533 408.928C59.7901 408.928 58.2584 409.082 54.4686 409.082C44.3609 409.082 34.2006 409.079 24 409.075C14.9344 409.294 6.7157 401.118 6.9387 392C6.97085 338.873 7.02349 284.939 6.96968 231.923C6.95389 216.306 6.80881 200.817 6.92378 185.055C6.81115 183.1 6.69853 181.144 6.5859 179.189C6.67545 184.191 6.4207 193.357 6.41696 194.191C6.41583 194.492 6.54283 196.389 6.5361 199.446C6.52708 203.746 6.41696 205.632 6.41696 205.985C6.41661 207.079 6.53373 206.362 6.53317 207.407C6.5281 215.196 6.56134 221.223 6.56246 228.372C6.56356 236.448 6.3454 240.542 6.58492 246.422C6.4915 247.088 6.39808 247.754 6.30466 248.42C6.70869 252.814 6.66396 278.979 6.64254 289.577C6.63573 292.922 6.47165 292.335 6.47165 293.459C6.47185 294.176 6.68668 293.893 6.64449 302.643C6.62308 307.047 6.46657 308.202 6.47165 310.411C6.47463 311.611 6.62984 311.416 6.62985 313.141C6.62985 323.112 6.57949 331.254 6.55075 341.017C6.54286 343.761 6.41332 343.792 6.41501 344.406C6.42081 346.667 6.64017 350.601 6.63961 356.349C6.6385 365.65 6.63776 384.026 6.5366 392C6.53484 392.153 6.535 392.301 6.53681 392.446C6.55326 393.683 6.54731 394.732 6.73792 395.637C7.04055 397.004 7.40632 397.463 7.47814 397.693C9.28293 401.943 7.9847 399.507 9.63371 402.138C10.6572 403.452 11.8143 404.859 15.0884 406.897C19.6146 409.2 18.7846 408.712 20.8449 409.243C21.0708 409.258 21.1563 409.221 23.2399 409.349C23.4886 409.359 23.742 409.364 24 409.364C31.2698 409.345 41.4209 409.312 48.116 409.313C50.1021 409.313 51.579 409.415 54.3487 409.417C59.9294 409.42 91.6508 409.355 94.2523 409.414C94.5268 409.42 91.7059 409.645 96.2019 409.639C97.5076 409.545 98.8134 409.451 100.119 409.357C102.303 409.508 104.486 409.658 106.67 409.808C106.591 409.289 119.437 409.209 119.309 409.739C120.715 409.761 122.12 409.782 123.526 409.804C126.453 409.437 128.402 409.573 134.06 409.357C134.942 409.47 135.824 409.582 136.705 409.694C136.927 409.619 137.149 409.545 137.371 409.47C140.39 409.875 145.342 409.468 145.943 409.466C148.256 409.457 149.994 409.56 151.078 409.557C155.13 409.546 163.899 409.404 168.631 409.47C168.853 409.473 168.634 409.647 169.98 409.668C172.409 409.707 172.645 409.453 175.883 409.751C176.537 409.676 177.191 409.601 177.845 409.526C178.539 409.565 179.233 409.604 179.926 409.643C184.022 409.623 188.117 409.603 192.212 409.583C188.487 409.877 192.773 410.041 196.825 409.81C198.196 409.731 196.98 409.552 197.437 409.525C198.064 409.489 216.443 409.58 217.658 409.695C218.528 409.639 219.398 409.583 220.268 409.526C220.708 409.639 221.148 409.752 221.588 409.864C222.068 409.825 222.547 409.786 223.027 409.746C227.81 409.944 240.225 409.489 242.475 409.525C243.678 409.545 242.596 410.025 248.36 409.976C248.56 409.844 248.76 409.712 248.96 409.58C250.28 409.561 251.599 409.542 252.919 409.523C255.396 409.535 259 409.764 259.116 409.92C259.89 409.826 260.663 409.732 261.437 409.639C263.515 409.944 274.598 409.836 279.056 409.643C280.359 409.735 281.663 409.827 282.967 409.919C284.718 409.807 286.47 409.695 288.222 409.583C292.28 409.549 287.993 409.735 288.858 409.751C290.687 409.783 300.012 409.469 299.397 409.86C300.669 409.861 301.941 409.862 303.213 409.863C303.866 409.751 304.52 409.639 305.174 409.527C307.357 409.913 311.134 409.777 318.881 409.918C319.531 409.829 320.181 409.74 320.831 409.651C323.226 409.778 325.622 409.904 328.017 410.03C328.509 409.883 329.001 409.736 329.493 409.589C330.535 409.568 331.577 409.547 332.618 409.525C334.735 409.855 338.536 409.499 340.471 409.635C343.294 409.833 341.111 410.07 335.87 410.115C336.262 410.355 351.874 410.245 355.474 410.228C355.236 410.181 354.998 410.134 354.76 410.087C351.079 410.124 347.397 410.161 343.716 410.198C340.632 409.595 350.628 409.757 355.216 409.679C355.635 409.671 358.013 409.443 362.636 409.464C364.427 409.472 371.411 409.807 372.744 409.825C383.51 409.978 375.594 409.5 386.127 409.919C384.446 409.673 387.601 409.772 392 409.804C393.496 409.816 395.127 409.623 396.71 409.173C397.281 409.032 400.01 408.109 402.196 406.424C404.43 404.802 405.985 402.589 406.167 402.318C407.347 400.586 407.27 400.644 407.407 400.559C407.481 400.445 407.918 400.22 408.884 397.303C409.034 396.579 409.136 395.847 409.192 395.119C409.378 394.09 409.47 393.045 409.47 392C409.47 391.668 409.47 391.335 409.47 391.003C410.134 383.177 409.645 381.356 409.582 378.574C409.557 377.45 409.73 378.897 409.693 375.982C409.68 374.885 409.536 373.668 409.525 370.715C409.494 361.476 410.111 358.34 409.469 349.846C409.562 348.542 409.655 347.238 409.748 345.935C409.636 345.055 409.525 344.175 409.413 343.295C409.737 336.566 409.405 338.995 409.409 336.565C409.419 330.147 409.483 317.013 409.75 315.863C409.136 310.323 409.829 303.698 409.805 301.514C409.73 300.216 409.656 298.918 409.581 297.621C409.656 296.095 409.731 294.569 409.806 293.044C409.203 293.785 409.796 285.884 409.805 285.125C409.814 284.25 409.635 272.097 409.639 267.573C409.642 263.055 409.805 255.183 409.806 254.49C409.806 253.693 409.642 246.003 409.644 239.991C409.645 234.73 409.878 203.564 409.609 205.528C409.535 207.567 409.471 210.469 409.436 212.978C409.328 220.768 409.191 266.489 409.148 278.173C409.063 301.606 409.079 326.045 409.021 349.582C409.017 350.967 408.861 351.177 408.857 352.365C408.853 354.169 409.009 358.746 409.006 360.524C408.992 367.163 408.967 375.241 408.963 378.796C408.958 383.975 408.916 388.094 408.883 392C408.864 394.199 408.437 396.331 407.6 398.369C407.236 399.267 406.022 402.13 403.315 404.592C400.68 407.104 396.54 408.815 393.073 408.92C392.714 408.93 392.36 408.928 392 408.915C391.156 408.884 390.312 408.853 389.469 408.821C390.128 408.811 390.997 408.798 392 408.783C396.418 409.031 402.558 405.672 404.577 402.868C408.535 397.991 408.624 394.255 408.725 392C408.725 391.963 408.725 391.927 408.725 391.891C408.723 390.009 408.579 380.392 408.575 376.012C408.574 374.653 408.738 374.374 408.737 373.211C408.733 366.899 408.729 358.585 408.568 353.109C408.621 355.344 408.721 341.388 408.721 340.656C408.721 339.401 408.567 338.04 408.567 335.479C408.568 330.554 408.888 331.178 408.567 325.023C408.661 323.499 408.754 321.976 408.848 320.452C408.421 320.358 409.002 301.105 408.482 295.629C408.424 295.485 408.258 320.505 408.249 322.57C408.198 334.959 408.303 353.293 408.228 365.317C408.205 368.935 407.945 380.313 407.95 381.171C407.958 382.556 408.106 381.305 408.111 381.903C408.222 394.145 407.923 388.038 407.837 389.665ZM243.416 5.74218C247.135 5.75975 250.855 5.77733 254.574 5.79491C254.304 5.88866 254.034 5.9824 253.764 6.07615C252.06 6.03969 250.357 6.00324 248.653 5.96678C247.343 6.02277 246.034 6.07876 244.724 6.13474C244.288 6.00389 243.852 5.87303 243.416 5.74218ZM234.25 6.13474C231.025 6.18195 230.867 5.98426 230.123 5.97459C227.901 5.94529 225.98 6.02522 223.824 6.02244C226.308 5.55284 231.597 5.76805 234.25 6.13474ZM300.866 6.30368C300.139 6.28122 295.284 5.77566 289.762 6.24607C285.631 6.09666 281.5 5.94725 277.369 5.79784C284.387 6.0261 294.099 5.78882 297.537 5.79784C298.842 5.80127 299.091 5.95644 300.134 5.95897C306.146 5.97137 311.991 5.61975 312.606 6.13377C306.92 5.98441 301.794 6.3313 300.866 6.30368ZM264.586 6.12107C263.624 6.01365 262.662 5.90623 261.7 5.79882C265.176 5.79882 268.651 5.79882 272.126 5.79882C271.186 5.90754 270.246 6.01626 269.307 6.12498C267.733 6.12368 266.159 6.12237 264.586 6.12107ZM409.523 138.81C409.525 136.666 409.526 134.523 409.527 132.379C409.449 132.497 409.449 134.949 409.397 135.853C409.397 135.849 409.397 135.845 409.397 135.841C409.337 136.847 409.236 136.416 409.191 138.246C409.302 138.434 409.413 138.622 409.523 138.81ZM6.92183 176.591C6.92746 172.998 6.92804 139.818 6.64254 142.644C6.49994 144.069 6.62429 155.417 6.62203 158.763C6.61914 163.273 6.31038 175.454 6.92183 176.591ZM6.97749 117.827C6.69298 117.253 6.64773 137.989 6.69723 140.017C6.7378 139.586 6.8281 138.923 6.84859 138.349C6.94665 135.552 6.89972 122.298 6.97749 117.827ZM408.702 258.851C408.846 257.179 408.99 255.508 409.134 253.836C408.947 254.276 408.759 254.716 408.572 255.156C408.616 256.387 408.659 257.619 408.702 258.851ZM388.125 408.908C360.277 408.899 332.428 408.89 304.58 408.881C307.03 408.803 309.479 408.725 311.929 408.648C335.925 408.675 361.515 408.754 384.688 408.634C385.833 408.725 386.979 408.817 388.125 408.908ZM308.712 7.14643C315.848 7.14923 321.807 7.01175 329.57 7.23041C322.173 7.44233 318.51 7.11445 311.322 7.4267C311.318 7.4267 311.314 7.4267 311.31 7.4267C310.444 7.33327 309.578 7.23985 308.712 7.14643ZM408.797 74.8813C408.666 72.7118 408.535 70.5423 408.404 68.3727C408.404 70.9822 408.404 73.5916 408.404 76.2011C408.535 75.7612 408.666 75.3212 408.797 74.8813ZM145.212 408.181C137.748 408.466 118.656 407.949 112.59 408.293C112.198 408.316 115.804 408.461 109.975 408.741C114.378 408.684 117.487 408.625 117.815 408.404C119.123 408.479 120.431 408.554 121.739 408.629C123.908 408.572 126.078 408.516 128.247 408.459C128.012 408.679 128.184 408.667 131.517 408.517C133.036 408.572 134.556 408.628 136.076 408.684C136.719 408.591 137.363 408.497 138.007 408.404C139.323 408.535 140.639 408.665 141.954 408.795C147.083 408.654 143.959 408.401 145.212 408.181ZM171.336 408.234C170.123 408.186 135.52 408.344 151.246 408.782C155.334 408.768 159.421 408.754 163.508 408.74C160.123 408.014 171.261 408.664 172.176 408.679C176.553 408.75 182.132 408.577 185.307 408.586C188.039 408.594 189.661 408.724 191.582 408.721C198.126 408.709 208.462 408.705 209.884 408.404C204.798 408.398 199.631 408.395 194.341 408.402C188.748 408.41 183.83 408.127 173.322 408.516C170.723 408.474 171.65 408.247 171.336 408.234ZM408.435 61.8401C408.736 62.1012 408.664 48.8952 408.545 48.8108C408.475 48.7847 408.477 53.0854 408.45 53.6998C408.45 53.7038 408.45 53.7078 408.45 53.7118C408.439 53.9678 408.323 52.6685 408.291 54.6896C408.339 57.0731 408.387 59.4566 408.435 61.8401ZM7.59661 228.198C7.76592 226.413 7.70504 185.633 7.62396 184.431C7.60144 184.105 7.52718 184.56 7.48431 184.431C7.7232 193.945 7.44046 207.47 7.42181 216.501C7.41678 219.018 7.53673 218.266 7.539 218.408C7.539 218.414 7.539 218.42 7.539 218.426C7.53929 219.855 7.24625 226.304 7.59661 228.198ZM99.5312 408.431C101.265 408.478 102.998 408.525 104.732 408.572C105.172 408.479 105.612 408.385 106.052 408.292C106.048 408.292 106.044 408.292 106.04 408.292C103.87 408.338 101.701 408.385 99.5312 408.431ZM39.4658 408.123C39.8877 408.189 40.3096 408.255 40.7315 408.32C45.0966 408.329 49.4617 408.339 53.8268 408.348C53.3869 408.385 52.9469 408.422 52.507 408.459C59.1073 408.558 61.8406 408.327 65.3563 408.36C65.3524 408.36 65.3483 408.36 65.3444 408.36C65.7228 408.364 66.1807 408.501 67.5879 408.506C70.8147 408.517 80.0634 408.568 81.181 408.43C83.546 408.136 64.9337 408.275 61.4632 408.262C59.8948 408.256 58.0082 408.136 57.0541 408.133C56.0089 408.13 54.585 408.292 52.0391 408.287C51.2943 408.285 43.0347 408.095 39.4658 408.123ZM7.68059 355.552C7.53236 356.898 7.67553 359.708 7.6513 360.741C7.64558 360.987 7.5215 359.069 7.48431 361.394C7.56894 362.052 7.65358 362.71 7.73821 363.368C7.719 360.763 7.6998 358.157 7.68059 355.552ZM408.292 39.6507C408.26 40.0305 408.272 47.1204 408.292 47.4611C408.563 51.7088 408.533 37.0237 408.292 39.6507ZM253.86 8.0175C257.121 8.41071 218.426 8.02414 214.676 8.04484C214.863 7.79771 224.069 8.04618 219.247 7.70696C223.848 7.89352 236.566 7.79445 239.559 7.84856C241.375 7.88126 241.834 8.09472 242.108 8.10148C243.186 8.12552 252.71 7.87889 253.86 8.0175ZM182.703 7.87688C186.38 7.92375 190.057 7.97062 193.734 8.0175C189.395 8.04549 185.056 8.07349 180.717 8.10148C181.379 8.02661 182.041 7.95174 182.703 7.87688ZM178.078 7.98918C178.195 8.22872 165.714 8.04624 162.433 8.10148C166.132 7.69401 172.301 8.07817 178.078 7.98918ZM385.754 8.32608C391.505 8.48446 393.976 7.7543 386.984 8.07218C386.771 8.08269 385.514 8.31769 385.754 8.32608ZM143.436 407.153C142.456 407.149 130.261 406.912 129.555 407.029C127.323 407.403 135.326 407.253 138.007 407.395C142.333 407.623 135.971 407.812 146.531 407.674C146.099 407.749 145.668 407.824 145.236 407.899C151.416 407.923 149.393 407.405 150.503 407.338C150.842 407.318 154.706 407.361 155.404 407.328C164.113 406.91 144.345 407.157 143.436 407.153ZM407.618 134.977C407.398 146.426 407.721 141.5 407.701 153.249C407.866 153.641 407.763 136.467 407.618 134.977ZM254.917 407.449C243.076 407.514 233.339 407.299 222.296 407.588C223.014 408.033 257.988 407.564 254.917 407.449ZM9.00184 91.7148C8.20887 137.785 8.46992 190.924 8.48233 239.974C8.48345 245.319 8.30692 245.832 8.32608 247.766C8.33849 249.033 8.48068 248.812 8.48135 250.496C8.49971 298.86 8.62094 345.592 8.62726 392C8.43051 400.196 15.8144 407.573 24 407.382C27.6039 407.385 31.2073 407.389 34.8107 407.395C38.4832 407.4 56.3501 407.706 60.1674 407.245C63.0545 406.896 50.2192 407.168 48.08 407.165C46.4725 407.163 46.4041 406.999 45.3325 406.998C44.1955 406.998 45.1349 407.11 43.8149 407.111C38.2214 407.119 32.1179 407.075 27.0604 407.085C26.0397 407.087 25.0196 407.089 24 407.091C15.9266 407.299 8.68412 400.023 8.87443 392C8.83269 352.185 8.85235 312.949 8.86513 273.003C8.86683 267.031 8.99835 268.259 8.99891 267.958C8.99859 267.954 8.99826 267.95 8.99794 267.946C9.01034 235.925 8.7153 199.355 8.82802 165.439C8.91851 141.556 9.009 117.673 9.0995 93.7904C9.06694 93.0985 9.03439 92.4067 9.00184 91.7148ZM168.721 407.617C165.741 407.121 165.075 407.621 154.384 407.419C153.514 407.504 152.644 407.588 151.774 407.673C157.429 407.654 163.084 407.636 168.739 407.617C168.733 407.617 168.727 407.617 168.721 407.617ZM98.1095 407.437C96.3028 406.767 72.3959 407.24 61.6311 407.112C59.6581 407.449 75.3072 407.298 78.9975 407.333C80.8403 407.351 90.7095 407.697 98.2115 407.505C98.1775 407.482 98.1435 407.459 98.1095 407.437ZM294.345 9.00184C296.085 8.98231 297.825 8.96278 299.564 8.94325C295.211 8.86903 290.858 8.79482 286.505 8.7206C293.45 8.76845 300.394 8.8163 307.339 8.86415C306.045 9.00314 304.751 9.14214 303.458 9.28113C300.42 9.18803 297.383 9.09494 294.345 9.00184ZM316.877 8.93056C304.716 8.9829 317.411 8.61081 320.446 8.77626C322.263 8.87546 318.118 8.92492 316.877 8.93056ZM348.508 9.16981C342.836 9.41383 331.375 9.43063 335.449 8.94325C341.579 9.17152 345.529 8.98184 354.417 9.11317C353.119 9.20659 351.821 9.30001 350.524 9.39343C350.518 9.39343 350.512 9.39343 350.506 9.39343C349.84 9.31889 349.174 9.24435 348.508 9.16981ZM311.322 9.22547C303.357 8.94547 326.417 9.04121 319.168 9.22547C318.828 9.23392 311.636 9.23618 311.322 9.22547ZM9.50573 142.644C9.34647 141.685 9.34945 147.811 9.33875 149.849C9.29142 158.683 9.36071 170.013 9.33875 179.201C9.39115 178.509 9.44356 177.817 9.49597 177.125C9.49922 165.631 9.50248 154.138 9.50573 142.644ZM9.33777 207.941C9.33777 214.253 9.33777 220.566 9.33777 226.879C9.33777 227.467 9.47443 230.226 9.50769 228.174C9.45105 221.43 9.39441 214.685 9.33777 207.941ZM208.57 406.662C203.73 406.573 217.668 406.116 217.041 406.606C214.217 406.624 211.394 406.643 208.57 406.662ZM253.609 406.467C250.574 406.513 247.538 406.56 244.503 406.607C244.499 406.55 244.495 406.494 244.491 406.438C247.53 406.447 250.57 406.457 253.609 406.467ZM9.61803 117.827C9.42533 121.043 9.45499 128.713 9.45105 133.496C9.61662 130.202 9.53521 122.349 9.61803 117.827ZM136.052 406.465C136.444 406.596 117.191 406.563 123.856 406.332C127.921 406.376 131.986 406.421 136.052 406.465ZM96.9457 406.271C101.075 406.242 104.274 406.287 103.424 406.493C101.235 406.485 99.0453 406.476 96.8558 406.467C96.8858 406.401 96.9157 406.336 96.9457 406.271ZM370.098 9.56237C377.056 9.54382 384.015 9.52526 390.973 9.50671C390.715 9.56302 390.457 9.61934 390.199 9.67565C383.491 9.69388 376.782 9.71211 370.074 9.73034C370.082 9.67435 370.09 9.61836 370.098 9.56237ZM10.1239 113.892C10.0871 109.113 10.0503 104.334 10.0135 99.5552C9.97577 104.338 9.93801 109.121 9.90025 113.904C9.97512 113.904 10.05 113.904 10.1249 113.904C10.1245 113.9 10.1242 113.896 10.1239 113.892ZM274.772 10.2918C296.029 10.5545 268.905 10.8321 263.296 10.4461C263.29 10.4465 263.284 10.4468 263.278 10.4471C262.787 10.413 263.825 10.248 263.008 10.1815C265.172 10.256 267.335 10.3306 269.499 10.4051C271.472 10.3123 273.446 10.2196 275.419 10.1268C276.069 10.1633 276.719 10.1997 277.369 10.2362C276.503 10.2547 275.637 10.2733 274.772 10.2918ZM188.977 10.4383C169.702 10.4079 189.425 9.99537 198.965 10.3211C198.897 10.3965 190.753 10.4411 188.977 10.4383ZM239.493 10.3495C242.53 10.312 245.568 10.2746 248.605 10.2372C248.993 10.2844 249.381 10.3316 249.769 10.3788C247.437 10.4256 245.106 10.4725 242.774 10.5194C241.68 10.4627 240.587 10.4061 239.493 10.3495ZM339.384 11.078C344.272 11.1298 350.507 10.605 334.813 10.743C334.821 10.7993 334.829 10.8556 334.837 10.9119C335.463 10.9029 337.298 10.8501 337.398 10.8543C337.686 10.8684 337.347 11.0565 339.384 11.078ZM153.285 11.9217C152.736 11.9431 152.437 12.5371 146.728 11.9227C145.003 11.9601 143.277 11.9975 141.551 12.035C141.106 11.9041 140.66 11.7732 140.214 11.6424C146.892 11.7438 147.6 11.4791 148.084 11.4734C150.304 11.4487 148.661 11.5849 150.094 11.5867C153.792 11.5912 162.196 11.4998 158.384 11.8885C157.012 12.0277 153.834 11.9003 153.285 11.9217ZM166.344 12.2596C165.534 12.21 168.144 12.0362 167.532 11.9871C166.996 11.9443 158.947 11.767 161.125 11.4734C162.447 11.4858 163.769 11.4982 165.09 11.5106C165.538 11.591 165.986 11.6714 166.434 11.7518C167.714 11.6775 168.994 11.6033 170.273 11.5291C172.43 11.7275 177.019 11.9845 171.569 12.1463C173.573 12.1294 175.576 12.1124 177.58 12.0955C178.618 12.0004 179.655 11.9054 180.693 11.8103C180.149 11.9552 179.605 12.1001 179.062 12.2449C174.822 12.2498 170.583 12.2547 166.344 12.2596ZM104.233 12.2039C104.477 12.129 104.721 12.0542 104.965 11.9793C97.6068 12.1185 86.1477 12.1714 92.6556 11.702C102.624 11.6629 112.591 11.6238 122.559 11.5848C123.221 11.6411 123.883 11.6974 124.545 11.7537C117.109 11.5367 119.407 12.46 112.937 12.1951C111.847 12.1502 115.012 11.8273 108.156 12.034C108.4 12.1092 108.644 12.1844 108.888 12.2596C107.337 12.241 105.785 12.2224 104.233 12.2039ZM40.9764 12.0916C53.5757 12.1998 39.6976 12.473 37.3712 12.2459C37.3752 12.2459 37.3791 12.2459 37.3832 12.2459C31.0075 11.6243 44.717 11.9246 45.5535 11.9207C46.6652 11.9152 49.2544 11.4702 55.3014 12.1189C50.5265 12.1098 45.7515 12.1007 40.9764 12.0916ZM82.1098 12.2029C81.0513 12.2176 81.6373 12.1046 81.18 12.1062C81.176 12.1062 81.1721 12.1062 81.168 12.1062C74.4241 12.1305 58.3834 12.2317 56.6452 11.867C61.6373 11.8366 83.9746 11.7578 85.3252 12.0057C84.2534 12.0714 83.1816 12.1372 82.1098 12.2029ZM129.566 11.9314C133.706 12.1675 124.385 12.199 121.941 12.0896C121.48 12.066 125.277 11.6869 129.566 11.9314ZM403.459 54.0237C403.601 63.1332 403.743 51.1644 403.965 55.3075C403.946 53.5678 403.927 51.8282 403.908 50.0885C403.759 51.4002 403.609 52.712 403.459 54.0237ZM339.793 403.011C337.67 402.985 338.676 403.12 338.491 403.122C337.096 403.119 335.781 403.008 335.246 403.02C325.349 403.243 331.931 403.357 332.031 403.383C332.24 403.517 329.638 403.674 333.242 403.827C335.43 403.78 337.617 403.732 339.805 403.685C340.891 403.759 341.977 403.834 343.062 403.908C347.408 403.748 341.721 403.705 341.077 403.492C340.828 403.409 344.916 403.309 339.793 403.011ZM403.01 70.3463C403.246 71.8231 403.543 75.443 403.78 71.888C403.78 71.884 403.78 71.88 403.78 71.876C403.823 71.2187 403.847 68.5413 403.907 67.7188C403.594 61.8545 403.269 64.1011 403.01 70.3463ZM379.031 402.589C382.558 402.644 386.085 402.699 389.612 402.754C389.553 402.895 389.493 403.037 389.433 403.178C387.545 403.14 385.657 403.102 383.77 403.064C383.108 403.128 382.446 403.193 381.784 403.257C384.128 403.418 386.471 403.579 388.815 403.74C389.876 403.719 390.938 403.698 392 403.677C393.298 403.642 394.564 403.396 395.755 402.95C394.846 403.183 393.916 403.301 392.992 403.305C395.423 402.997 396.289 402.53 397.109 402.267C397.899 401.942 398.696 401.738 400.268 400.336C401.197 399.23 401.905 397.971 402.353 396.656C403.105 395.244 403.558 393.657 403.662 392C403.689 391.424 403.716 390.848 403.742 390.271C403.681 385.514 403.581 385.096 403.431 388.298C403.26 385.932 403.529 383.342 403.459 380.493C403.454 380.258 403.292 380.701 403.29 380.493C403.181 365.764 403.605 366.547 403.623 364.195C403.636 362.535 403.35 355.907 403.252 355.803C403.121 355.675 402.603 369.459 402.589 347.872C402.231 359.033 402.596 371.721 403.121 363.517C403.068 367.049 403.2 382.626 403.184 383.619C403.16 385.067 402.961 384.559 402.955 386.372C402.953 387.085 403.155 388.581 403.172 392C403.178 393.206 402.966 394.784 402.045 396.517C401.808 397.226 401.494 397.919 401.107 398.58C400.639 399.123 400.121 399.616 399.566 400.053C400.472 398.901 401.118 397.601 401.475 396.277C399.601 400.853 395.04 402.375 392 402.458C391.355 402.482 390.735 402.515 390.14 402.56C385.779 402.516 383.659 402.472 385.533 402.28C384.224 402.28 382.914 402.28 381.604 402.28C380.746 402.383 379.889 402.486 379.031 402.589ZM403.347 97.1127C403.128 101.448 403.6 103.006 403.627 102.332C403.774 98.5297 403.461 94.8568 403.347 97.1127ZM347.663 403.262C352.446 403.384 357.229 403.505 362.012 403.627C362.012 403.478 362.012 403.328 362.012 403.179C357.229 403.207 352.446 403.234 347.663 403.262ZM403.123 52.692C403.235 52.2521 403.347 51.8122 403.459 51.3723C403.05 46.1332 403.637 40.9317 403.516 38.343C403.489 37.7812 403.292 38.9154 403.249 39.9867C403.223 40.6531 403.086 51.7641 403.123 52.692ZM227.729 12.823C229.681 12.7478 231.633 12.6726 233.584 12.5974C233.476 12.7234 233.368 12.8494 233.26 12.9754C232.296 12.9988 231.333 13.0222 230.369 13.0457C229.489 12.9714 228.609 12.8972 227.729 12.823ZM249.937 12.6228C253.418 12.6329 256.899 12.643 260.381 12.6531C247.102 12.7686 258 12.825 249.937 12.989C249.937 12.867 249.937 12.7449 249.937 12.6228ZM285.173 12.8777C284.745 12.9529 284.318 13.0281 283.89 13.1033C280.408 13.1033 276.927 13.1033 273.446 13.1033C275.647 13.3643 277.849 13.6254 280.05 13.8865C281.326 13.8871 282.602 13.8878 283.878 13.8884C284.31 13.5515 284.741 13.2146 285.173 12.8777ZM245.757 402.449C243.652 402.445 236.331 402.673 236.644 402.757C239.686 402.86 242.727 402.963 245.769 403.067C245.783 402.917 245.797 402.767 245.811 402.617C246.241 402.692 246.67 402.767 247.1 402.841C248.83 402.785 250.56 402.729 252.289 402.673C253.161 402.804 254.033 402.935 254.905 403.066C255.781 402.916 256.656 402.767 257.532 402.617C249.181 402.353 249.468 402.617 247.73 402.615C246.849 402.613 246.291 402.521 245.979 402.474C245.905 402.466 245.831 402.458 245.757 402.449ZM350.969 402.309C340.997 402.272 335.298 402.666 328.083 402.336C332.71 403.038 362.588 402.313 373.122 402.899C374.216 402.786 375.309 402.673 376.403 402.561C370.667 402.661 366.693 402.429 363.896 402.396C361.674 402.369 361.906 402.487 361.736 402.486C361.728 402.486 361.72 402.486 361.712 402.486C356.511 402.437 354.902 402.324 350.969 402.309ZM402.573 45.2835C402.395 47.9632 402.412 52.6517 402.672 52.704C402.747 50.0946 402.823 47.4851 402.898 44.8756C402.831 45.4115 402.603 44.8262 402.573 45.2835ZM289.223 13.6033C291.314 13.6878 296.254 13.6137 294.123 13.3894C293.741 13.3496 288.82 13.5073 291.706 13.1023C286.911 13.1086 288.033 13.5547 289.223 13.6033ZM402.841 287.765C402.834 286.005 402.826 284.246 402.819 282.486C402.714 282.076 402.609 281.666 402.504 281.256C402.616 283.426 402.729 285.595 402.841 287.765ZM402.357 23.129C402.756 21.5262 401.627 18.9944 399.897 16.5915C399.147 15.7865 398.272 15.0955 397.318 14.5532C397.316 14.5518 397.314 14.5505 397.311 14.5492C397.216 14.6565 397.123 14.7644 397.03 14.8731C400.036 16.5227 402.114 19.7303 402.357 23.129ZM401.977 395.558C402.278 394.907 402.515 394.22 402.68 393.506C402.72 393.004 402.725 392.504 402.696 392C402.649 390.814 402.603 389.628 402.556 388.442C402.502 389.486 402.447 390.529 402.393 391.573C402.398 391.715 402.402 391.858 402.407 392C402.467 393.203 402.325 394.403 401.977 395.558ZM387.296 13.6511C389.536 13.6765 391.224 13.6223 392 13.5474C392.397 13.4936 392.441 13.4242 392 13.3637C391.356 13.309 390.024 13.2687 387.848 13.2683C384.79 13.2683 381.353 13.584 387.296 13.6511ZM137.395 402.615C139.339 402.654 141.282 402.692 143.226 402.73C143.888 402.636 144.55 402.542 145.212 402.448C142.606 402.504 140.001 402.56 137.395 402.615ZM262.324 13.5525C262.552 13.4587 262.78 13.365 263.008 13.2712C264.742 13.2901 266.475 13.309 268.209 13.3279C267.773 13.421 267.337 13.5141 266.901 13.6072C265.375 13.5889 263.85 13.5707 262.324 13.5525ZM150.473 402.673C152.026 402.691 153.58 402.709 155.134 402.727C156.177 402.681 157.221 402.636 158.265 402.59C156.811 402.545 155.358 402.5 153.904 402.454C152.76 402.527 151.616 402.6 150.473 402.673ZM333.529 13.6081C335.712 13.7209 344.43 13.3697 336.577 13.28C331.573 13.2231 333.202 13.591 333.529 13.6081ZM321.766 13.7204C330.078 13.9352 323.845 12.8453 313.925 13.5515C323.912 13.4547 321.277 13.7075 321.766 13.7204ZM248.671 14.2829C248.462 14.2824 248.29 14.1257 246.619 14.1198C240.607 14.0996 232.671 14.0376 228.371 14.0281C218.034 14.0049 186.37 14.2882 182.667 13.8347C181.896 13.7395 183.67 13.4548 183.357 13.4402C182.437 13.3993 177.14 13.5374 178.12 13.3279C183.317 13.3295 188.514 13.3311 193.71 13.3328C192.435 13.4805 191.159 13.6283 189.883 13.7761C202.832 13.6972 198.546 13.7063 202.271 13.3845C204.462 13.5092 206.654 13.6339 208.845 13.7585C213.616 13.6332 218.387 13.5079 223.158 13.3826C222.077 13.476 220.995 13.5694 219.913 13.6628C227.101 13.8359 225.104 13.7224 229.037 13.4958C229.045 13.5893 229.053 13.6827 229.061 13.7761C236.001 13.5484 237.353 13.8284 238.869 13.8318C241.979 13.8373 245.944 12.7319 257.807 13.8318C262.809 13.3028 262.695 14.3789 265.635 13.8318C274.102 14.4274 258 14.2118 250.381 14.1921C250.377 14.1921 250.373 14.1921 250.369 14.1921C249.794 14.1904 250.706 14.2907 248.671 14.2829ZM292.162 13.7351C287.036 14.2207 307.285 14.2661 300.584 13.5652C299.586 13.5424 298.589 13.5196 297.591 13.4968C295.777 13.5762 293.963 13.6557 292.15 13.7351C292.154 13.7351 292.158 13.7351 292.162 13.7351ZM401.943 89.2843C402.142 108.039 402.421 97.3759 402.149 91.024C402.095 89.7567 402.02 89.0621 401.943 89.2843ZM336.722 401.936C336.448 401.994 336.174 402.052 335.9 402.111C342.189 402.056 354.351 402.281 354.184 401.888C348.363 401.904 342.542 401.92 336.722 401.936ZM386.475 401.679C385.125 401.655 379.606 401.599 380.272 401.746C382.664 401.851 385.055 401.955 387.447 402.059C388.561 401.994 389.675 401.929 390.788 401.864C389.233 401.841 386.841 401.685 386.475 401.679Z" fill="url(#paint0_linear_93_261)"/>
<defs>
<linearGradient id="paint0_linear_93_261" x1="363.457" y1="0.592566" x2="-68.2839" y2="140.805" gradientUnits="userSpaceOnUse">
<stop stop-color="#FF9B54"/>
<stop offset="1" stop-color="#CE4257"/>
</linearGradient>
</defs>
</svg>
