<svg xmlns="http://www.w3.org/2000/svg" enable-background="new 0 0 48 48" viewBox="0 0 48 48" id="dynamite">
  <path d="M40,39V17c0-1.6-0.62-3.1-1.76-4.25c-0.94-0.93-2.14-1.51-3.43-1.69c-0.18-0.88-0.28-1.74-0.26-2.18
		c0.19-0.09,0.36-0.22,0.49-0.39c0.56-0.71,0.53-2.3-0.08-4.73c-0.13-0.54-0.68-0.86-1.21-0.73c-0.54,0.13-0.86,0.68-0.73,1.21
		c0.27,1.08,0.44,2.32,0.41,2.88c-0.19,0.09-0.36,0.22-0.49,0.39c-0.47,0.6-0.52,1.81-0.17,3.61c-1.57,0.32-2.92,1.27-3.78,2.56
		c-0.22-0.33-0.47-0.65-0.76-0.94c-0.94-0.93-2.14-1.51-3.43-1.69c-0.18-0.88-0.28-1.74-0.26-2.18c0.19-0.09,0.36-0.22,0.49-0.39
		c0.56-0.71,0.53-2.3-0.08-4.73c-0.13-0.54-0.68-0.86-1.21-0.73c-0.54,0.13-0.86,0.68-0.73,1.21c0.27,1.08,0.44,2.32,0.41,2.88
		c-0.19,0.09-0.36,0.22-0.49,0.39c-0.47,0.6-0.52,1.81-0.17,3.61c-1.57,0.32-2.92,1.27-3.78,2.56c-0.22-0.33-0.47-0.65-0.76-0.94
		c-0.94-0.93-2.14-1.51-3.43-1.69c-0.18-0.88-0.28-1.74-0.26-2.18c0.19-0.09,0.36-0.22,0.49-0.39c0.56-0.71,0.53-2.3-0.08-4.73
		c-0.13-0.54-0.68-0.86-1.21-0.73c-0.54,0.13-0.86,0.68-0.73,1.21c0.27,1.08,0.44,2.32,0.41,2.88c-0.19,0.09-0.36,0.22-0.49,0.39
		c-0.47,0.6-0.52,1.81-0.17,3.61C10.06,11.69,8,14.11,8,17v22c0,3.31,2.69,6,6,6c2.09,0,3.92-1.07,5-2.69
		c1.08,1.62,2.91,2.69,5,2.69s3.92-1.07,5-2.69c1.08,1.62,2.91,2.69,5,2.69C37.31,45,40,42.31,40,39z M34,13
		c1.07,0,2.07,0.42,2.83,1.16c0.51,0.52,0.85,1.15,1.03,1.84h-7.72C30.59,14.28,32.14,13,34,13z M24,13c1.07,0,2.07,0.42,2.83,1.16
		c0.51,0.52,0.85,1.15,1.03,1.84h-7.72C20.59,14.28,22.14,13,24,13z M20,18h8v5h-8V18z M14,13c1.07,0,2.07,0.42,2.83,1.16
		c0.51,0.52,0.85,1.15,1.03,1.84h-7.72C10.59,14.28,12.14,13,14,13z M14,43c-1.86,0-3.41-1.28-3.86-3h7.72
		C17.41,41.72,15.86,43,14,43z M18,38h-8V18h8v5h-4.5c-0.55,0-1,0.45-1,1v8c0,0.55,0.45,1,1,1H18V38z M24,43
		c-1.86,0-3.41-1.28-3.86-3h7.72C27.41,41.72,25.86,43,24,43z M28,38h-8v-5h8V38z M14.5,31v-6h19v6H14.5z M34,43
		c-1.86,0-3.41-1.28-3.86-3h7.72C37.41,41.72,35.86,43,34,43z M38,38h-8v-5h4.5c0.55,0,1-0.45,1-1v-8c0-0.55-0.45-1-1-1H30v-5h8V38z
		"></path>
</svg>
