<svg width="278" height="349" viewBox="0 0 278 349" fill="none" xmlns="http://www.w3.org/2000/svg">
<path d="M205.999 18.3129H257.31C266.462 18.3129 273.869 25.7199 273.869 34.8719V42.7699C271.977 42.3919 275.526 42.6089 205.999 42.5519V18.3129ZM205.999 223.828V250.301C275.526 250.357 271.977 250.141 273.869 250.519V98.7659C271.962 99.1469 276.116 98.9269 205.999 98.9839V125.511C216.13 139.292 222.122 156.286 222.122 174.697C222.122 193.053 216.13 210.047 205.999 223.828ZM205.999 306.731V330.971H257.31C266.462 330.971 273.869 323.563 273.869 314.466V306.513C271.962 306.894 276.115 306.674 205.999 306.731ZM72.0027 42.5529V18.3129H20.6917C11.5397 18.3129 4.13268 25.7199 4.13268 34.8719V42.7699C6.03968 42.3889 1.88667 42.6089 72.0027 42.5529ZM4.13367 98.7659V250.518C6.04067 250.137 1.88668 250.357 72.0037 250.3V223.773C61.8727 209.992 55.8807 192.998 55.8807 174.695C55.8807 156.338 61.8727 139.344 72.0037 125.563V98.9819C2.47668 98.9269 6.02467 99.1439 4.13367 98.7659ZM4.13367 306.514V314.467C4.13367 323.563 11.5407 330.972 20.6927 330.972H72.0037V306.732C2.47668 306.675 6.02467 306.891 4.13367 306.514ZM99.4557 0.337906C90.3047 0.337906 82.8967 7.74491 82.8967 16.8429V42.5529H195.104V16.8419C195.104 7.7459 187.697 0.336914 178.545 0.336914L99.4557 0.337906ZM82.8967 250.301H104.685C96.6777 246.706 89.3237 241.803 82.8967 235.921V250.301ZM82.8967 98.9829V113.418C89.3237 107.535 96.6777 102.633 104.685 98.9829H82.8967ZM195.105 98.9829H173.372C181.379 102.633 188.678 107.481 195.105 113.363V98.9829ZM195.105 250.301V235.975C188.678 241.803 181.378 246.706 173.372 250.301H195.105ZM82.8967 332.441C82.8967 341.593 90.3037 349 99.4557 349H178.546C187.697 349 195.105 341.593 195.105 332.441V306.731H82.8967V332.441ZM271.374 53.4719H6.62767C2.97467 53.4719 0.0136719 56.4339 0.0136719 60.0869V81.4849C0.0136719 85.1379 2.97467 88.0999 6.62767 88.0999H271.374C275.027 88.0999 277.988 85.1389 277.988 81.4849V60.0869C277.989 56.4339 275.027 53.4719 271.374 53.4719ZM271.374 261.217H6.62767C2.97467 261.217 0.0136719 264.179 0.0136719 267.832V289.23C0.0136719 292.883 2.97467 295.845 6.62767 295.845H271.374C275.027 295.845 277.988 292.883 277.988 289.23V267.831C277.989 264.178 275.027 261.217 271.374 261.217ZM66.7737 174.696C66.7737 134.77 99.1287 102.415 139.001 102.415C178.873 102.415 211.228 134.77 211.228 174.696C211.228 214.513 178.873 246.869 139.001 246.869C99.1287 246.869 66.7737 214.514 66.7737 174.696ZM84.6397 174.696C84.6397 204.654 109.043 229.057 139.001 229.057C169.014 229.057 193.362 204.654 193.362 174.696C193.362 144.683 169.015 120.281 139.001 120.281C109.043 120.281 84.6397 144.683 84.6397 174.696ZM110.181 177.965H139.001C140.829 177.965 142.308 176.485 142.308 174.658V134.932C142.308 133.106 140.829 131.625 139.001 131.625C137.174 131.625 135.694 133.105 135.694 134.932V171.351H110.182C108.355 171.351 106.875 172.831 106.875 174.658C106.875 176.485 108.354 177.965 110.181 177.965Z" fill="black"/>
</svg>
