<svg width="21" height="34" viewBox="0 0 21 34" fill="none" xmlns="http://www.w3.org/2000/svg">
<path d="M10.2351 33.4413C9.99144 33.5711 9.68861 33.4788 9.55874 33.2351C9.42888 32.9914 9.52116 32.6886 9.76486 32.5587L10.2351 33.4413ZM10.0883 32.953L9.85311 32.5117L10.0529 32.4053L10.2647 32.4851L10.0883 32.953ZM17.003 28.2664L17.4691 28.4474L17.003 28.2664ZM19.1156 24.7191L18.9063 24.2651L19.1156 24.7191ZM14.4558 19.808L13.9711 19.9311L14.4558 19.808ZM9.79086 16.3267L9.51628 15.9088L9.79086 16.3267ZM8.18663 15.4727L7.69446 15.5608L8.18663 15.4727ZM4.23603 14.7163L3.98256 14.2853L4.23603 14.7163ZM2.45149 11.953L1.97881 11.7899L2.45149 11.953ZM1.17118 8.35977L1.62367 8.14703L1.17118 8.35977ZM0.675142 5.77614L0.176217 5.74337L0.675142 5.77614ZM7.41767 1.1854L7.22689 1.64757L7.41767 1.1854ZM9.88101 2.28341L10.1035 1.83561L9.88101 2.28341ZM10.424 1.88187L10.8501 1.62032L10.8635 1.64214L10.8746 1.66521L10.424 1.88187ZM9.91301 1.04933L9.48687 1.31087L9.21611 0.869709L9.66638 0.614388L9.91301 1.04933ZM9.75337 0.56506C9.99358 0.428848 10.2987 0.513161 10.4349 0.753368C10.5712 0.99358 10.4868 1.29873 10.2466 1.43494L9.75337 0.56506ZM10 33L9.76486 32.5587L9.85311 32.5117L10.0883 32.953L10.3234 33.3942L10.2351 33.4413L10 33ZM10.0883 32.953L10.2647 32.4851C11.089 32.796 11.7148 32.9384 12.1616 32.9473C12.6054 32.9562 12.7822 32.836 12.8626 32.7245L13.2682 33.0167L13.6739 33.309C13.3254 33.7928 12.7577 33.9595 12.1415 33.9471C11.5283 33.9349 10.7786 33.7477 9.91181 33.4208L10.0883 32.953ZM13.2682 33.0167L12.8626 32.7245C13.2063 32.2474 13.4135 31.5125 13.4167 30.4541L13.9167 30.4557L14.4167 30.4572C14.4131 31.623 14.1879 32.5956 13.6739 33.309L13.2682 33.0167ZM13.9167 30.4557L13.4167 30.4541C13.4186 29.8512 13.5392 29.296 13.8947 28.9161C14.2747 28.5101 14.8077 28.4204 15.3561 28.5064L15.2786 29.0004L15.2011 29.4943C14.845 29.4384 14.6988 29.5203 14.6249 29.5994C14.5264 29.7046 14.4183 29.948 14.4167 30.4572L13.9167 30.4557ZM15.2786 29.0004L15.3561 28.5064C15.7563 28.5692 16.0222 28.5356 16.1922 28.4632C16.3445 28.3984 16.4586 28.287 16.5369 28.0854L17.003 28.2664L17.4691 28.4474C17.3022 28.8769 17.0063 29.2035 16.5839 29.3833C16.1791 29.5556 15.7053 29.5734 15.2011 29.4943L15.2786 29.0004ZM17.003 28.2664L16.5369 28.0854C16.7651 27.4976 16.8943 26.9242 16.9292 26.3638L17.4283 26.3949L17.9273 26.426C17.8854 27.0985 17.731 27.7728 17.4691 28.4474L17.003 28.2664ZM17.4283 26.3949L16.9292 26.3638C16.9867 25.4417 17.8057 24.7723 18.9063 24.2651L19.1156 24.7191L19.3249 25.1732C18.2526 25.6674 17.9467 26.1152 17.9273 26.426L17.4283 26.3949ZM19.1156 24.7191L18.9063 24.2651C19.1559 24.15 19.326 24.045 19.4339 23.9553C19.5445 23.8634 19.5566 23.8154 19.555 23.8213C19.548 23.8468 19.564 23.8577 19.5423 23.8229C19.5119 23.7739 19.434 23.6871 19.2632 23.572L19.5427 23.1574L19.8222 22.7428C20.2462 23.0286 20.6844 23.4823 20.5196 24.085C20.4468 24.3512 20.2696 24.561 20.0731 24.7244C19.8737 24.8901 19.6186 25.0379 19.3249 25.1732L19.1156 24.7191ZM19.5427 23.1574L19.2632 23.572C18.5211 23.0717 17.8109 22.8235 17.1276 22.7929L17.1499 22.2934L17.1723 21.7939C18.0757 21.8343 18.9607 22.1621 19.8222 22.7428L19.5427 23.1574ZM17.1499 22.2934L17.1276 22.7929C16.2692 22.7544 15.5405 22.5309 15.0297 22.0436L15.3748 21.6818L15.72 21.3201C15.9893 21.577 16.4439 21.7612 17.1723 21.7939L17.1499 22.2934ZM15.3748 21.6818L15.0297 22.0436C14.5398 21.5762 14.203 20.8442 13.9711 19.9311L14.4558 19.808L14.9404 19.685C15.1539 20.526 15.4299 21.0432 15.72 21.3201L15.3748 21.6818ZM14.4558 19.808L13.9711 19.9311C13.9267 19.7559 13.8743 19.6666 13.8393 19.6258C13.8135 19.5956 13.7983 19.5911 13.7782 19.5885C13.6894 19.5771 13.4393 19.6264 12.9683 19.9783L12.669 19.5778L12.3698 19.1772C12.8673 18.8055 13.3991 18.5314 13.906 18.5967C14.5051 18.6739 14.8083 19.1647 14.9404 19.685L14.4558 19.808ZM12.669 19.5778L12.9683 19.9783C12.6967 20.1812 12.4052 20.3398 12.1035 20.385C11.7711 20.4347 11.4551 20.3406 11.2109 20.0974C10.9911 19.8786 10.864 19.5738 10.7858 19.2548C10.7056 18.9279 10.664 18.5329 10.653 18.0805L11.1528 18.0683L11.6527 18.0561C11.6628 18.4687 11.7003 18.7853 11.757 19.0166C11.8157 19.2559 11.8835 19.356 11.9164 19.3888C11.9249 19.3972 11.9195 19.4013 11.9555 19.396C12.0223 19.386 12.1571 19.3361 12.3698 19.1772L12.669 19.5778ZM11.1528 18.0683L10.653 18.0805C10.6428 17.6663 10.6083 17.3392 10.555 17.0914C10.5003 16.8369 10.4338 16.7036 10.3867 16.6435C10.3661 16.6171 10.3554 16.6126 10.3581 16.6141C10.3624 16.6163 10.3652 16.6156 10.3584 16.6155C10.3343 16.6153 10.2425 16.6281 10.0654 16.7445L9.79086 16.3267L9.51628 15.9088C9.772 15.7408 10.0616 15.6129 10.3673 15.6156C10.7037 15.6186 10.9796 15.7783 11.1744 16.0275C11.3544 16.2576 11.4633 16.5583 11.5327 16.8814C11.6036 17.2112 11.6416 17.6053 11.6527 18.0561L11.1528 18.0683ZM9.79086 16.3267L10.0654 16.7445C9.59221 17.0555 9.02571 17.258 8.50562 16.9811C8.01997 16.7226 7.80078 16.1544 7.69446 15.5608L8.18663 15.4727L8.6788 15.3845C8.77634 15.9291 8.92644 16.0723 8.97553 16.0984C8.99019 16.1062 9.12387 16.1666 9.51628 15.9088L9.79086 16.3267ZM8.18663 15.4727L7.69446 15.5608C7.59825 15.0237 7.46277 14.6713 7.31769 14.4605C7.18453 14.267 7.06021 14.2119 6.93678 14.2036L6.97002 13.7047L7.00327 13.2058C7.48706 13.2381 7.8691 13.4978 8.14148 13.8936C8.40194 14.2721 8.57115 14.7835 8.6788 15.3845L8.18663 15.4727ZM6.97002 13.7047L6.93678 14.2036C6.73294 14.19 6.42918 14.2391 6.00461 14.3962C5.58599 14.5511 5.08204 14.7988 4.4895 15.1473L4.23603 14.7163L3.98256 14.2853C4.60546 13.9189 5.1649 13.6406 5.65762 13.4583C6.14437 13.2782 6.59988 13.179 7.00327 13.2058L6.97002 13.7047ZM4.23603 14.7163L4.4895 15.1473C3.8722 15.5103 3.27053 15.7497 2.75481 15.6766C2.46906 15.6361 2.21769 15.5004 2.03507 15.2675C1.86264 15.0475 1.7782 14.7753 1.74234 14.4969L2.23824 14.433L2.73415 14.3691C2.75649 14.5426 2.79895 14.621 2.8221 14.6506C2.83507 14.6671 2.84797 14.6798 2.89519 14.6865C3.0454 14.7078 3.38441 14.637 3.98256 14.2853L4.23603 14.7163ZM2.23824 14.433L1.74234 14.4969C1.61755 13.5282 1.69162 12.6226 1.97881 11.7899L2.45149 11.953L2.92416 12.116C2.69421 12.7827 2.62611 13.5305 2.73415 14.3691L2.23824 14.433ZM2.45149 11.953L1.97881 11.7899C2.2081 11.1252 2.11496 10.7639 1.92274 10.5465L2.29734 10.2153L2.67194 9.88414C3.20241 10.4842 3.21204 11.2814 2.92416 12.116L2.45149 11.953ZM2.29734 10.2153L1.92274 10.5465C1.51582 10.0862 1.11663 9.41891 0.718696 8.57251L1.17118 8.35977L1.62367 8.14703C2.00457 8.95721 2.35616 9.52694 2.67194 9.88414L2.29734 10.2153ZM1.17118 8.35977L0.718696 8.57251C0.29407 7.66934 0.111816 6.72381 0.176217 5.74337L0.675142 5.77614L1.17407 5.80891C1.12101 6.61672 1.26944 7.39361 1.62367 8.14703L1.17118 8.35977ZM0.675142 5.77614L0.176217 5.74337C0.196152 5.43989 0.292407 5.13743 0.525766 4.90876C0.759255 4.67996 1.06365 4.59003 1.36753 4.57676C1.94558 4.55151 2.6971 4.79514 3.56924 5.20695L3.35575 5.65908L3.14226 6.11121C2.28606 5.70693 1.72664 5.56203 1.41116 5.5758C1.26827 5.58204 1.23025 5.61851 1.22567 5.623C1.22096 5.62761 1.1835 5.66533 1.17407 5.80891L0.675142 5.77614ZM3.35575 5.65908L3.56924 5.20695C3.98477 5.40315 4.32526 5.53087 4.59554 5.59953C4.87351 5.67014 5.0354 5.66731 5.11551 5.64847C5.16635 5.63651 5.16348 5.62775 5.16895 5.61503C5.18832 5.56988 5.21407 5.44679 5.17389 5.19359L5.66772 5.11523L6.16154 5.03687C6.21487 5.373 6.21443 5.71456 6.0879 6.0094C5.94745 6.33666 5.67897 6.54322 5.34449 6.6219C5.03926 6.6937 4.69612 6.65684 4.34934 6.56874C3.99487 6.4787 3.5909 6.32305 3.14226 6.11121L3.35575 5.65908ZM5.66772 5.11523L5.17389 5.19359C4.98007 3.97215 4.97176 2.85945 5.16322 1.86313L5.65423 1.95749L6.14525 2.05184C5.98062 2.90855 5.9813 3.90101 6.16154 5.03687L5.66772 5.11523ZM5.65423 1.95749L5.16322 1.86313C5.26779 1.31891 5.52119 0.833492 6.02809 0.611557C6.50874 0.401108 7.06518 0.49897 7.60845 0.723225L7.41767 1.1854L7.22689 1.64757C6.77258 1.46004 6.53631 1.48068 6.42916 1.5276C6.34825 1.56303 6.21871 1.66955 6.14525 2.05184L5.65423 1.95749ZM7.41767 1.1854L7.60845 0.723225C8.61204 1.13749 9.44469 1.50838 10.1035 1.83561L9.88101 2.28341L9.65858 2.7312C9.02805 2.418 8.21848 2.05688 7.22689 1.64757L7.41767 1.1854ZM9.88101 2.28341L10.1035 1.83561C10.25 1.90843 10.3411 1.9402 10.3877 1.95071C10.4102 1.95579 10.4034 1.95142 10.3765 1.95326C10.3484 1.95518 10.278 1.96564 10.2029 2.02117C10.1217 2.08129 10.0795 2.1611 10.0628 2.22449C10.0485 2.27895 10.0547 2.31255 10.0539 2.30741C10.0536 2.30469 10.0502 2.2858 10.0365 2.24685C10.0233 2.20908 10.0029 2.16003 9.97336 2.09852L10.424 1.88187L10.8746 1.66521C10.9529 1.82808 11.0207 2.00153 11.0442 2.16792C11.0656 2.32014 11.067 2.62596 10.7975 2.8252C10.5661 2.99632 10.2983 2.9557 10.1675 2.92616C10.0076 2.89008 9.8343 2.81849 9.65858 2.7312L9.88101 2.28341ZM10.424 1.88187L9.99785 2.14341L9.48687 1.31087L9.91301 1.04933L10.3392 0.787781L10.8501 1.62032L10.424 1.88187ZM9.91301 1.04933L9.66638 0.614388L9.75337 0.56506L10 1L10.2466 1.43494L10.1596 1.48427L9.91301 1.04933Z" fill="black"/>
</svg>
