<svg width="50" height="50" viewBox="0 0 50 50" fill="none" xmlns="http://www.w3.org/2000/svg">
<path d="M25.075 11.1602C18.4061 11.1602 13 16.5663 13 23.2352C13 25.4346 13.5762 27.4965 14.6037 29.2727H22.0563L23.66 26.018C21.8484 25.4261 20.5469 23.7352 20.5469 21.7258C20.5469 19.2249 22.5742 17.1977 25.075 17.1977C27.5758 17.1977 29.6031 19.2249 29.6031 21.7258V23.2352H37.15C37.15 16.5663 31.7439 11.1602 25.075 11.1602ZM24.8628 18.707C24.0995 18.7608 23.3851 19.1025 22.8641 19.6629C22.3431 20.2233 22.0544 20.9606 22.0563 21.7258C22.0563 22.5264 22.3743 23.2942 22.9404 23.8604C23.5065 24.4265 24.2744 24.7445 25.075 24.7445C25.8756 24.7445 26.6435 24.4265 27.2096 23.8604C27.7757 23.2942 28.0938 22.5264 28.0938 21.7258C28.0948 21.3108 28.0103 20.9002 27.8454 20.5193C27.6806 20.1385 27.4391 19.7958 27.1359 19.5125C26.8327 19.2292 26.4744 19.0115 26.0833 18.8729C25.6922 18.7343 25.2767 18.6779 24.8628 18.707Z" fill="white"/>
</svg>
