<svg width="35" height="50" viewBox="0 0 35 50" fill="none" xmlns="http://www.w3.org/2000/svg">
<path d="M13.4337 14.5835C13.4337 11.6105 13.1158 8.07514 10.7515 4.37918L8.60427 1.01867C8.20126 0.385456 7.46912 0 6.68105 0C5.89067 0 5.16074 0.385456 4.75552 1.01672L2.60613 4.37722C0.311179 7.96888 0 11.5522 0 14.5835V16.6669H13.4337V14.5835Z" fill="white"/>
<path d="M0.0003292 39.5853C0.0003292 40.3478 0.237623 41.052 0.622791 41.6666C0.237727 42.2811 0.0003292 42.9874 0.0003292 43.7478V45.8354C0.0003292 48.1334 2.00646 50 4.47595 50H8.95828C11.4279 50 13.4339 48.1333 13.4339 45.8354V43.7478C13.4339 42.9874 13.1966 42.2811 12.8114 41.6666C13.1965 41.052 13.4339 40.3478 13.4339 39.5853V20.8329H0.000224307L0.0003292 39.5853ZM8.95618 43.7499L8.95839 45.8332L4.47826 45.8374L4.47605 43.7499H8.95618Z" fill="white"/>
<path d="M34.9998 14.5835C34.9998 11.6105 34.6819 8.07514 32.3176 4.37918L30.1704 1.01867C29.7674 0.385456 29.0352 0 28.2471 0C27.4568 0 26.7268 0.385456 26.3216 1.01672L24.1722 4.37722C21.8773 7.96888 21.5661 11.5522 21.5661 14.5835V16.6669H34.9998V14.5835Z" fill="white"/>
<path d="M21.5664 39.5853C21.5664 40.3478 21.8037 41.052 22.1889 41.6666C21.8038 42.2811 21.5664 42.9874 21.5664 43.7478V45.8354C21.5664 48.1334 23.5726 50 26.042 50H30.5244C32.994 50 35 48.1333 35 45.8354V43.7478C35 42.9874 34.7627 42.2811 34.3775 41.6666C34.7626 41.052 35 40.3478 35 39.5853V20.8329H21.5663L21.5664 39.5853ZM30.5223 43.7499L30.5245 45.8332L26.0444 45.8374L26.0422 43.7499H30.5223Z" fill="white"/>
</svg>
