<svg aria-hidden="true" style="position: absolute; width: 0; height: 0; overflow: hidden;" version="1.1" xmlns="http://www.w3.org/2000/svg" xmlns:xlink="http://www.w3.org/1999/xlink">
<defs>
<symbol id="bomb" viewBox="0 0 32 32">
<path d="M22.17 1.65h4.726c0.843 0 1.525 0.68 1.525 1.52v0.725c-0.174-0.035 0.153-0.015-6.25-0.020v-2.225zM22.17 20.512v2.43c6.403 0.005 6.076-0.015 6.25 0.020v-13.928c-0.176 0.035 0.207 0.015-6.25 0.020v2.435c0.933 1.265 1.485 2.825 1.485 4.514 0 1.685-0.552 3.244-1.485 4.509zM22.17 28.121v2.225h4.726c0.843 0 1.525-0.68 1.525-1.515v-0.73c-0.176 0.035 0.207 0.015-6.25 0.020zM9.83 3.875v-2.225h-4.726c-0.843 0-1.525 0.68-1.525 1.52v0.725c0.176-0.035-0.207-0.015 6.25-0.020zM3.579 9.034v13.928c0.176-0.035-0.207-0.015 6.25-0.020v-2.435c-0.933-1.265-1.485-2.825-1.485-4.504 0-1.685 0.552-3.244 1.485-4.509v-2.44c-6.403-0.005-6.076 0.015-6.25-0.020zM3.579 28.101v0.73c0 0.835 0.682 1.515 1.525 1.515h4.725v-2.225c-6.403-0.005-6.076 0.015-6.25-0.020zM12.358 0c-0.843 0-1.525 0.68-1.525 1.515v2.36h10.334v-2.36c0-0.835-0.682-1.515-1.525-1.515l-7.284 0zM10.833 22.942h2.007c-0.737-0.33-1.415-0.78-2.007-1.32v1.32zM10.833 9.054v1.325c0.592-0.54 1.269-0.99 2.007-1.325h-2.007zM21.167 9.054h-2.002c0.737 0.335 1.41 0.78 2.002 1.32v-1.32zM21.167 22.942v-1.315c-0.592 0.535-1.264 0.985-2.002 1.315h2.002zM10.833 30.48c0 0.84 0.682 1.52 1.525 1.52h7.284c0.843 0 1.525-0.68 1.525-1.52v-2.36h-10.334v2.36zM28.191 4.877h-24.382c-0.336 0-0.609 0.272-0.609 0.607v1.964c0 0.335 0.273 0.607 0.609 0.607h24.382c0.336 0 0.609-0.272 0.609-0.607v-1.964c0-0.335-0.273-0.607-0.609-0.607zM28.191 23.943h-24.382c-0.336 0-0.609 0.272-0.609 0.607v1.964c0 0.335 0.273 0.607 0.609 0.607h24.382c0.336 0 0.609-0.272 0.609-0.607v-1.964c0-0.335-0.273-0.607-0.609-0.607zM9.348 16.003c0-3.664 2.98-6.634 6.652-6.634s6.652 2.97 6.652 6.634c0 3.654-2.98 6.624-6.652 6.624s-6.652-2.97-6.652-6.624zM10.994 16.003c0 2.75 2.247 4.989 5.006 4.989 2.764 0 5.006-2.24 5.006-4.989 0-2.755-2.242-4.994-5.006-4.994-2.759 0-5.006 2.24-5.006 4.994zM13.346 16.303h2.654c0.168 0 0.305-0.136 0.305-0.303v-3.646c0-0.168-0.136-0.303-0.305-0.303s-0.305 0.136-0.305 0.303v3.343h-2.35c-0.168 0-0.305 0.136-0.305 0.303s0.136 0.303 0.304 0.303z"></path>
</symbol>
<symbol id="c4" viewBox="0 0 32 32">
<path d="M18.324 6.609c-0.036-1.169-0.071-2.336-0.107-3.505v-0.301c0-0.304 0.028-0.901-0.088-1.097-0.116-0.195-0.482-0.507-0.886-0.406-0.298 0.073-0.511 0.298-0.584 0.601-0.005 0.348-0.012 0.696-0.018 1.043-0.060 0.28-0.035 0.66-0.035 0.956v0.336c-0.039 0.184 0.026 0.449-0.018 0.654-0.040 0.184 0.025 0.45-0.018 0.656-0.064 0.292-0.038 0.74-0.036 1.062h1.79v0.002zM10.677 5.847c0.122 0.234 0.322 0.49 0.389 0.762h2.018c-0.041-0.122-0.133-0.219-0.195-0.319-0.134-0.215-0.26-0.43-0.389-0.638-0.377-0.598-0.726-1.214-1.097-1.805-0.224-0.354-0.364-0.737-0.938-0.743-0.055 0.038-0.135 0.034-0.195 0.070-0.156 0.092-0.352 0.232-0.425 0.407-0.168 0.403 0.079 0.777 0.231 1.027 0.239 0.393 0.388 0.831 0.602 1.238zM24.127 3.104c-0.155 0.121-0.347 0.173-0.46 0.335-0.187 0.269-0.321 0.555-0.495 0.832-0.275 0.434-0.576 0.874-0.85 1.309-0.162 0.257-0.32 0.511-0.477 0.761-0.052 0.082-0.070 0.171-0.142 0.23v0.036c0.686 0.002 1.481-0.056 1.947 0.158 0.188-0.385 0.4-0.772 0.62-1.132 0.126-0.207 0.192-0.429 0.319-0.637 0.155-0.256 0.368-0.553 0.459-0.851 0.184-0.589-0.398-1.056-0.92-1.042zM27.154 11.175c0.628-0.389 1.271-0.751 1.894-1.132 0.263-0.162 0.556-0.274 0.796-0.462 0.29-0.226 0.311-0.863 0.089-1.168-0.142-0.196-0.433-0.216-0.779-0.212-0.046 0.034-0.103 0.027-0.158 0.053-0.153 0.068-0.319 0.164-0.477 0.247-0.518 0.27-1.055 0.512-1.576 0.797-0.3 0.163-0.623 0.314-0.938 0.477-0.118 0.062-0.233 0.161-0.372 0.195v2.106c0.194-0.054 0.356-0.203 0.514-0.301 0.334-0.208 0.679-0.397 1.008-0.601zM23.562 22.874c0.278-0.418 0.212-1.197 0.212-1.894v-9.805c0-0.874 0.099-1.86-0.389-2.247-0.509-0.406-1.11-0.319-2-0.319h-20.229c-0.119 0.035-0.237 0.070-0.354 0.105-0.3 0.13-0.58 0.44-0.709 0.744-0.154 0.365-0.069 1.378-0.069 1.894v10.99c0.084 0.345 0.298 0.65 0.549 0.832 0.45 0.327 0.956 0.265 1.716 0.265h19.186c1.055 0.001 1.651 0.091 2.088-0.564zM3.048 20.201c0.16 0.383 0.787 0.858 1.471 0.708 0.093-0.021 0.251-0.017 0.353-0.053 0.069-0.024 0.122-0.073 0.212-0.089 0.001 0.197 0.016 0.398 0.053 0.567 0.027 0.127-0.023 0.293 0.035 0.389-0.005 0.237-0.199 0.186-0.389 0.23-0.231 0.055-0.825 0.155-1.131 0.089-0.199-0.042-0.416-0.046-0.603-0.107-0.62-0.2-1.062-0.562-1.309-1.132-0.089-0.206-0.123-0.453-0.176-0.69-0.101-0.446 0.020-1.005 0.142-1.309 0.293-0.736 0.783-1.163 1.575-1.398 0.212-0.064 0.411-0.018 0.654-0.070 0.144-0.031 0.566-0.034 0.726 0 0.204 0.044 0.407 0.094 0.585 0.142-0.083 0.341-0.164 0.684-0.247 1.026-0.329-0.079-0.829-0.2-1.22-0.070-0.553 0.179-1.046 1.007-0.729 1.768zM10.394 20.538h-0.797v1.397h-1.309v-1.397h-1.822c-0.256 0-0.632 0.054-0.851-0.019v-0.92c0.033-0.096 0.142-0.2 0.195-0.283 0.128-0.203 0.248-0.405 0.372-0.602 0.38-0.605 0.716-1.217 1.097-1.823 0.201-0.32 0.459-0.641 0.62-0.992h1.699v3.576h0.815c0 0.289 0.059 0.825-0.019 1.063zM13.915 21.9c-0.086 0.214-0.846 0.142-1.168 0.142-0.124 0-0.294 0.020-0.389-0.019s-0.249-0.164-0.283-0.265v-1.326c0.067-0.067 0.118-0.158 0.195-0.213 0.044-0.032 0.101-0.037 0.141-0.070 0.36-0.005 1.336-0.072 1.488 0.106 0.144 0.172 0.088 0.632 0.088 0.938 0.001 0.23 0.047 0.586-0.071 0.708zM13.987 18.75c0 0.131 0.023 0.331-0.035 0.406-0.104 0.31-0.73 0.213-1.132 0.213h-0.424c-0.412-0.132-0.319-0.561-0.319-1.080v-0.514c0.056-0.176 0.214-0.205 0.354-0.3h0.973c0.17 0 0.353-0.011 0.442 0.070 0.215 0.087 0.141 0.879 0.141 1.204zM16.271 19.37h-0.462c-0.462 0-0.995 0.079-1.151-0.231-0.050-0.101-0.017-0.327-0.017-0.459v-0.922c0.025-0.082 0.112-0.158 0.158-0.229 0.053-0.018 0.107-0.035 0.16-0.053h0.973c0.175 0 0.351-0.015 0.443 0.070 0.179 0.067 0.158 0.352 0.158 0.601 0.002 0.478 0.102 1.103-0.262 1.224zM16.465 21.882c-0.096 0.258-0.819 0.16-1.169 0.16h-0.371c-0.375-0.104-0.283-0.647-0.283-1.115v-0.495c0.034-0.122 0.158-0.179 0.23-0.266 0.035-0.008 0.033-0.004 0.053-0.018 0.413-0.006 1.377-0.086 1.54 0.142 0.124 0.172 0.070 0.602 0.070 0.885 0.001 0.229 0.047 0.586-0.069 0.708zM19.066 21.315v0.425c-0.025 0.102-0.091 0.172-0.142 0.247-0.321 0.085-1.518 0.134-1.682-0.089-0.132-0.179-0.070-0.822-0.070-1.133 0-0.118-0.024-0.301 0.018-0.389 0.056-0.111 0.189-0.155 0.283-0.229h0.993c0.128 0 0.314-0.022 0.388 0.035 0.303 0.108 0.211 0.729 0.211 1.133zM18.819 19.37h-0.46c-0.462 0-1.012 0.079-1.169-0.231-0.049-0.098-0.018-0.313-0.018-0.442v-0.939c0.023-0.073 0.102-0.145 0.142-0.211 0.066-0.023 0.129-0.048 0.195-0.070h0.973c0.149 0 0.328-0.018 0.407 0.053 0.189 0.067 0.177 0.342 0.177 0.601 0 0.458 0.1 1.124-0.247 1.24zM21.544 21.865c-0.096 0.277-0.784 0.177-1.149 0.177h-0.372c-0.407-0.102-0.319-0.601-0.319-1.098 0-0.161-0.038-0.42 0.018-0.549 0.051-0.116 0.194-0.167 0.283-0.247h0.992c0.128 0 0.314-0.022 0.389 0.035 0.314 0.109 0.211 0.772 0.211 1.186 0 0.172 0.025 0.398-0.053 0.495zM21.597 18.697v0.389c-0.029 0.109-0.12 0.164-0.177 0.247-0.272 0.065-0.679 0.036-1.008 0.036h-0.407c-0.063-0.019-0.143-0.084-0.195-0.124-0.19-0.152-0.106-0.788-0.106-1.116v-0.353c0.028-0.1 0.121-0.173 0.177-0.247l0.158-0.053h0.956c0.157 0 0.335-0.016 0.423 0.053 0.279 0.098 0.179 0.8 0.179 1.168zM21.703 16.52c-0.096 0.266-0.564 0.195-0.92 0.195h-7.008c-0.464 0-1.395 0.090-1.664-0.106-0.23-0.169-0.142-1.156-0.142-1.576v-3.256c0-0.295-0.059-1.177 0.036-1.362 0.069-0.136 0.231-0.161 0.353-0.247h8.371c0.45 0 0.679-0.039 0.956 0.142 0.112 0.437 0.070 1.116 0.070 1.663v4.089c0 0.164 0.020 0.364-0.053 0.458zM14.357 13.547v-0.018c0.107-0.058 0.213-0.117 0.319-0.176 0.024-0.056-0.050-0.156-0.071-0.23-0.122 0.059-0.291 0.122-0.388 0.211h-0.036c0.032-0.092 0.020-0.255 0.070-0.334v-0.036h-0.284v0.371c-0.115-0.032-0.273-0.134-0.353-0.211-0.053 0.054-0.073 0.139-0.124 0.194 0.036 0.092 0.213 0.173 0.3 0.212-0.060 0.079-0.207 0.153-0.3 0.195 0.024 0.089 0.070 0.169 0.107 0.247 0.12-0.019 0.277-0.104 0.354-0.176h0.017v0.389h0.284c-0.012-0.095-0.022-0.28-0.070-0.354v-0.018c0.129 0.018 0.324 0.1 0.407 0.177h0.016c0.030-0.089 0.059-0.177 0.089-0.266-0.104-0.049-0.238-0.101-0.318-0.176h-0.019v-0.001zM16.11 13.529c0.111-0.029 0.277-0.103 0.354-0.176 0.014-0.019 0.006-0.005 0.018-0.036-0.043-0.042-0.088-0.132-0.106-0.194-0.121 0.038-0.301 0.128-0.389 0.211h-0.035c0.029-0.123 0.059-0.247 0.088-0.371h-0.319v0.371c-0.109-0.056-0.188-0.14-0.3-0.195v-0.017h-0.017c-0.040 0.065-0.101 0.118-0.124 0.194h-0.018c0.034 0.090 0.242 0.187 0.335 0.212v0.019c-0.128 0.035-0.221 0.122-0.335 0.176 0.022 0.090 0.083 0.189 0.142 0.247 0.014 0.020 0.246-0.12 0.282-0.158h0.035v0.372h0.319c-0.012-0.101-0.036-0.263-0.088-0.336v-0.053c0.136 0.066 0.271 0.129 0.406 0.195 0.065-0.067 0.080-0.18 0.142-0.247-0.092-0.090-0.258-0.109-0.353-0.195-0.032-0.013-0.019-0.005-0.037-0.019zM18.163 13.138c-0.019-0.014-0.312 0.154-0.354 0.195h-0.034c0.011-0.123 0.022-0.247 0.034-0.371h-0.283v0.371c-0.135-0.038-0.24-0.145-0.354-0.211-0.029 0.064-0.060 0.16-0.106 0.211 0.070 0.074 0.193 0.144 0.283 0.195-0.051 0.074-0.192 0.168-0.283 0.195 0.033 0.079 0.070 0.157 0.089 0.247 0.122-0.019 0.276-0.103 0.353-0.176h0.018v0.389h0.283c0-0.088 0.005-0.257-0.034-0.319v-0.070c0.128 0.066 0.258 0.129 0.388 0.195 0.027-0.068 0.046-0.158 0.088-0.212-0.030-0.136-0.245-0.152-0.336-0.23-0.030-0.012-0.016-0.004-0.034-0.019 0.123-0.058 0.247-0.117 0.371-0.176-0.011-0.077-0.046-0.167-0.089-0.214zM31.348 15.051c-0.3-0.006-0.601-0.013-0.903-0.019-0.46-0.018-0.92-0.034-1.38-0.053h-0.477c-0.268-0.058-0.632-0.035-0.921-0.035h-0.318c-0.172-0.037-0.425 0.024-0.62-0.018-0.286-0.063-0.773-0.038-1.097-0.036v1.789c0.34 0 0.821 0.031 1.133-0.035 0.233-0.051 0.53 0.028 0.743-0.019h0.372c0.333 0 0.808 0.031 1.115-0.035h0.371c0.333 0 0.808 0.031 1.115-0.034h0.744c0.439-0.096 0.661-0.192 0.761-0.62 0.101-0.43-0.371-0.813-0.638-0.885zM7.862 17.918c-0.14 0.226-0.299 0.473-0.442 0.707-0.148 0.245-0.253 0.619-0.442 0.815v0.036h1.309v-1.718c0.053-0.242 0.055-0.509 0.054-0.796h-0.053c-0.144 0.3-0.247 0.669-0.425 0.956zM29.119 21.653c-0.663-0.419-1.346-0.816-2.017-1.239-0.33-0.208-0.673-0.406-1.008-0.62-0.139-0.088-0.288-0.239-0.462-0.283v2.035c0.029 0.059 0.155 0.072 0.212 0.107 0.226 0.138 0.474 0.246 0.708 0.389 0.467 0.284 0.977 0.507 1.451 0.796 0.3 0.184 0.636 0.402 0.956 0.55 0.3 0.138 0.815 0.075 0.973-0.141 0.251-0.346 0.168-0.98-0.142-1.204-0.211-0.155-0.45-0.248-0.672-0.389zM23.88 25.192h-0.195c-0.125 0.082-0.366 0.011-0.495 0.088h-1.292c0.089 0.273 0.395 0.641 0.55 0.886 0.41 0.651 0.773 1.312 1.185 1.964 0.114 0.181 0.486 0.538 0.85 0.389 0.319-0.129 0.733-0.505 0.566-1.043-0.389-0.763-0.778-1.525-1.167-2.284zM10.606 25.829c-0.176 0.401-0.354 0.767-0.53 1.169-0.076 0.174-0.204 0.338-0.266 0.53-0.168 0.522 0.268 0.916 0.602 1.009 0.475 0.132 0.775-0.404 0.921-0.639 0.345-0.554 0.698-1.127 1.043-1.681 0.17-0.275 0.341-0.694 0.55-0.92v-0.019h-2.053c-0.055 0.202-0.187 0.372-0.265 0.55zM18.324 25.28h-1.789c-0.001 0.31-0.023 0.729 0.036 1.009 0.040 0.195-0.020 0.448 0.018 0.62 0.041 0.195-0.020 0.448 0.018 0.62v0.318c0 0.288-0.022 0.651 0.035 0.92 0.006 0.326 0.013 0.649 0.018 0.974 0.081 0.345 0.31 0.556 0.655 0.638 0.354 0.083 0.745-0.283 0.832-0.477 0.104-0.236 0.070-0.685 0.070-0.992v-0.3c0.035-1.109 0.071-2.219 0.107-3.328z"></path>
</symbol>
<symbol id="defuse-kit" viewBox="0 0 32 32">
<path d="M31.875 13.098v0.954c0 0.069-0.023 0.125-0.069 0.17-0.070 0.137-0.183 0.262-0.344 0.374-0.137 0.115-0.298 0.194-0.483 0.239-0.207 0.068-0.402 0.091-0.584 0.068-0.231-0.045-0.46-0.145-0.689-0.307-1.492-0.976-2.858-1.705-4.096-2.18-1.239-0.456-2.399-0.739-3.477-0.853-0.986-0.022-1.881 0.012-2.686 0.103-0.757 0.114-1.456 0.217-2.099 0.308-0.459 0.091-0.907 0.136-1.343 0.136-0.436 0.022-0.871 0.033-1.308 0.033h-0.206c-0.252-0.113-0.504-0.217-0.757-0.308-0.184-0.091-0.392-0.158-0.62-0.204-0.228-0.069-0.4-0.125-0.515-0.17-0.115 0.181-0.219 0.352-0.311 0.511-0.091 0.136-0.228 0.249-0.411 0.34 0.091 0.159 0.287 0.466 0.583 0.92 0.3 0.408 0.585 0.795 0.861 1.158-0.022 0.047-0.022 0.081 0 0.105 0 0.067 0.047 0.1 0.139 0.1l1.032 0.853c0.252 0 0.252 0.124 0 0.375-0.069 0.068-0.113 0.102-0.138 0.102-0.022 0-0.091-0.033-0.206-0.102l-0.516-0.375c0.207 0.614 0.358 1.237 0.448 1.874 0.069 0.637 0.161 1.351 0.275 2.147 0.344 1.66 0.965 3.169 1.859 4.532 0.895 1.364 2.112 2.533 3.649 3.511 0.231 0.182 0.379 0.34 0.448 0.477 0.022 0.159 0.035 0.295 0.035 0.41v0.204c0 0.182-0.035 0.34-0.104 0.477-0.069 0.159-0.16 0.272-0.275 0.34 0 0.114-0.035 0.239-0.104 0.375-0.092 0.114-0.287 0.17-0.584 0.17-0.184 0.206-0.528 0.136-1.033-0.205l-0.171-0.102c-1.859-1.16-3.339-2.5-4.441-4.021-1.077-1.545-1.846-3.237-2.306-5.077-0.091-0.728-0.161-1.374-0.207-1.943-0.091-0.568-0.138-1.102-0.138-1.602-0.114-0.364-0.183-0.728-0.206-1.091-0.021-0.387-0.056-0.658-0.103-0.817l-0.379-0.407-0.689-1.124c-0.23-0.227-0.413-0.443-0.55-0.649-0.16-0.204-0.287-0.374-0.379-0.51-0.138-0.136-0.206-0.227-0.206-0.272-0.091-0.046-0.286-0.123-0.584-0.238-0.275-0.139-0.563-0.263-0.861-0.376-0.366-0.136-0.768-0.283-1.205-0.442l-5.647-4.568-0.171-0.238c0-0.091 0.058-0.136 0.171-0.136v-0.171c0-0.114 0.115-0.17 0.344-0.17l6.024 2.283c0.092 0.068 0.138 0.148 0.138 0.238 0.023 0.092 0.036 0.181 0.036 0.272 0 0.342 0.057 0.511 0.171 0.511 0.23 0.068 0.401 0.058 0.516-0.032 0.092-0.046 0.161-0.091 0.206-0.136v-0.171l0.654-0.853c0.092-0.158 0.104-0.284 0.035-0.374-0.114-0.047-0.219-0.069-0.311-0.069l-0.205 0.068c-0.114 0-0.228 0-0.345 0-0.139-0.023-0.206-0.080-0.206-0.17l-3.856-5.044v-0.41h0.516l5.129 3.545h0.206c0.368 0.499 0.689 0.942 0.964 1.33 0.253 0.34 0.481 0.659 0.689 0.953 0.252 0.274 0.401 0.432 0.448 0.477 0.114 0.045 0.345 0.114 0.689 0.205 0.319 0.113 0.665 0.216 1.032 0.307 0.39 0.114 0.757 0.205 1.101 0.272 0.321 0.069 0.505 0.103 0.55 0.103 0.23 0 0.92-0.058 2.066-0.17 1.102-0.115 2.593-0.17 4.474-0.17 1.102 0 2.009 0.033 2.719 0.101 0.713 0.091 1.413 0.272 2.101 0.546 0.689 0.295 1.457 0.704 2.308 1.227 0.848 0.545 1.939 1.281 3.269 2.213 0.117 0.067 0.196 0.148 0.242 0.238zM14.491 13.338l1.412 0.545c0.114 0 0.171 0.113 0.171 0.34-0.091 0-0.148 0.023-0.171 0.069-0.023 0.044-0.082 0.023-0.173-0.069l-1.377-0.34c-0.114 0-0.183-0.035-0.206-0.103 0-0.091 0-0.159 0-0.204 0-0.137 0.046-0.205 0.136-0.205 0.070-0.022 0.139-0.032 0.207-0.032zM14.697 12.859c0-0.089 0.023-0.147 0.069-0.168 0.023-0.048 0.057-0.070 0.103-0.070l1.412 0.238c0.092 0 0.184 0.033 0.276 0.104 0.068 0.067 0.103 0.135 0.103 0.204 0 0.091-0.035 0.148-0.103 0.171-0.093 0-0.185 0-0.276 0l-1.412-0.171c-0.113 0.001-0.171-0.1-0.171-0.307zM15.42 15.11c-0.136 0-0.24 0.012-0.309 0.033-0.047 0.045-0.069 0.033-0.069-0.033l-1.24-0.718c-0.113 0-0.171-0.112-0.171-0.339 0.092 0 0.149-0.023 0.171-0.068 0.024-0.045 0.094-0.024 0.206 0.068l1.172 0.647c0.138 0 0.219 0.046 0.24 0.136 0 0.091 0 0.182 0 0.273z"></path>
</symbol>
<symbol id="expired-timer" viewBox="0 0 32 32">
<path d="M26.64 4c0.84 0 1.52-0.672 1.52-1.5v-1c0-0.828-0.68-1.5-1.52-1.5h-21.28c-0.839 0-1.52 0.672-1.52 1.5v1c0 0.828 0.681 1.5 1.52 1.5 0 5.685 3.231 10.483 7.653 12-4.422 1.517-7.653 6.315-7.653 12-0.839 0-1.52 0.672-1.52 1.5v1c0 0.828 0.681 1.5 1.52 1.5h21.28c0.84 0 1.52-0.672 1.52-1.5v-1c0-0.828-0.68-1.5-1.52-1.5 0-5.685-3.231-10.483-7.653-12 4.422-1.517 7.653-6.315 7.653-12zM16 13c-3.66 0-6.587-4.157-6.587-9h13.173c0 4.872-2.946 9-6.587 9z"></path>
</symbol>
<symbol id="armor" viewBox="0 0 32 32">
<path stroke-linejoin="round" stroke-linecap="round" stroke-miterlimit="4" stroke-width="2.4998" d="M3.044 11.535c-0.365-2.486 1.108-4.794 3.355-5.918l6.634-3.317c1.868-0.934 4.066-0.934 5.934 0l6.634 3.317c2.248 1.124 3.721 3.431 3.355 5.918-1.072 7.301-4.892 15.534-11.183 18.472-1.123 0.524-2.425 0.524-3.547 0-6.291-2.937-10.111-11.171-11.183-18.472z"></path>
</symbol>
<symbol id="bullets" viewBox="0 0 22 32">
<path d="M8.598 9.333c0-1.903-0.203-4.165-1.717-6.531l-1.374-2.151c-0.258-0.405-0.726-0.652-1.231-0.652-0.506 0-0.973 0.247-1.232 0.651l-1.376 2.151c-1.469 2.299-1.668 4.592-1.668 6.532v1.333h8.598v-1.333z"></path>
<path d="M0 25.335c0 0.488 0.152 0.939 0.398 1.332-0.246 0.393-0.398 0.845-0.398 1.332v1.336c0 1.471 1.284 2.665 2.864 2.665h2.869c1.581 0 2.864-1.195 2.864-2.665v-1.336c0-0.487-0.152-0.939-0.398-1.332 0.246-0.393 0.398-0.844 0.398-1.332v-12.002h-8.598l0 12.002zM5.732 28l0.001 1.333-2.867 0.003-0.001-1.336h2.867z"></path>
<path d="M22.4 9.333c0-1.903-0.203-4.165-1.717-6.531l-1.374-2.151c-0.258-0.405-0.727-0.652-1.231-0.652-0.506 0-0.973 0.247-1.232 0.651l-1.376 2.151c-1.469 2.299-1.668 4.592-1.668 6.532v1.333h8.598v-1.333z"></path>
<path d="M13.803 25.335c0 0.488 0.152 0.939 0.398 1.332-0.246 0.393-0.398 0.845-0.398 1.332v1.336c0 1.471 1.284 2.665 2.864 2.665h2.869c1.581 0 2.864-1.195 2.864-2.665v-1.336c0-0.487-0.152-0.939-0.398-1.332 0.246-0.393 0.398-0.844 0.398-1.332v-12.002h-8.598l0 12.002zM19.534 28l0.001 1.333-2.867 0.003-0.001-1.336h2.867z"></path>
</symbol>
<symbol id="deaths" viewBox="0 0 32 32">
<path d="M27.225 25.784c-0.616 0-1.335 0.298-2.156 0.893l-4.552-1.682 4.62-1.684c0.776 0.504 1.494 0.757 2.157 0.757 0.729 0 1.209-0.378 1.437-1.133 0.045-0.16 0.068-0.333 0.068-0.516 0-0.96-0.616-1.476-1.848-1.544 0.501-0.504 0.753-0.997 0.753-1.478 0-0.502-0.264-0.927-0.788-1.271-0.274-0.136-0.559-0.206-0.855-0.206-1.004 0-1.689 0.812-2.054 2.439l-8.008 2.989-8.008-2.92c-0.365-1.672-1.050-2.508-2.054-2.508-0.296 0-0.582 0.069-0.856 0.206-0.501 0.343-0.752 0.769-0.752 1.271 0 0.481 0.251 0.974 0.752 1.478-1.254 0.068-1.882 0.584-1.882 1.544 0 0.183 0.023 0.356 0.068 0.516 0.252 0.755 0.731 1.133 1.438 1.133 0.661 0 1.38-0.252 2.156-0.757l4.654 1.684-4.587 1.647c-0.798-0.572-1.505-0.858-2.121-0.858-0.731 0-1.244 0.379-1.541 1.133-0.045 0.16-0.068 0.331-0.068 0.516 0 0.961 0.627 1.477 1.882 1.545-0.501 0.504-0.752 0.997-0.752 1.478 0 0.502 0.251 0.926 0.752 1.271 0.32 0.183 0.628 0.273 0.925 0.273 0.934 0 1.609-0.801 2.019-2.403l7.974-2.92 7.974 2.92c0.411 1.602 1.096 2.403 2.053 2.403 0.274 0 0.57-0.090 0.89-0.273 0.524-0.345 0.788-0.769 0.788-1.271 0-0.481-0.252-0.974-0.753-1.478 1.232-0.068 1.848-0.584 1.848-1.545 0-0.184-0.023-0.355-0.068-0.516-0.274-0.755-0.776-1.133-1.506-1.133z"></path>
<path d="M6.727 14.464c1.071 1.247 2.58 2.159 4.528 2.732v0.447c0 0.554 0.184 1.020 0.555 1.395 0.37 0.377 0.827 0.585 1.373 0.624 0.564 0.040 0.983-0.059 1.255-0.297 0.428 0.316 0.905 0.474 1.432 0.474 0.487 0 0.935-0.148 1.343-0.445 0.273 0.217 0.672 0.307 1.198 0.267 0.545-0.059 1.003-0.272 1.373-0.638 0.37-0.368 0.554-0.827 0.554-1.381v-0.327c2.103-0.555 3.729-1.485 4.878-2.794 1.11-1.247 1.665-2.721 1.665-4.425 0-0.377-0.039-0.773-0.117-1.189-0.389-2.533-1.538-4.623-3.446-6.266-2.006-1.761-4.45-2.643-7.331-2.643s-5.326 0.872-7.331 2.612c-1.909 1.665-3.047 3.764-3.417 6.296-0.078 0.416-0.117 0.812-0.117 1.189 0 1.663 0.535 3.118 1.607 4.366zM18.25 6.816c0.574-0.683 1.27-1.024 2.088-1.024 0.838 0 1.543 0.342 2.118 1.024 0.574 0.682 0.862 1.509 0.862 2.478s-0.288 1.798-0.862 2.481c-0.575 0.684-1.28 1.024-2.118 1.024-0.817 0-1.513-0.34-2.088-1.024-0.575-0.683-0.862-1.51-0.862-2.481s0.287-1.797 0.862-2.478zM15.153 13.625c0.282-0.371 0.559-0.557 0.832-0.557s0.53 0.205 0.774 0.618c0.243 0.411 0.366 0.802 0.366 1.175 0 0.568-0.371 0.851-1.111 0.851-0.487 0-0.847-0.127-1.080-0.381-0.136-0.158-0.204-0.353-0.204-0.589 0-0.371 0.141-0.743 0.423-1.116zM9.268 6.816c0.584-0.683 1.285-1.024 2.103-1.024s1.518 0.342 2.103 1.024c0.584 0.682 0.877 1.509 0.877 2.478s-0.292 1.798-0.877 2.481c-0.584 0.684-1.286 1.024-2.103 1.024s-1.519-0.34-2.103-1.024c-0.584-0.683-0.877-1.51-0.877-2.481s0.293-1.797 0.877-2.478z"></path>
</symbol>
<symbol id="health" viewBox="0 0 32 32">
<path d="M18.554 0.455c2.24 0 4.057 1.816 4.057 4.057v5.008h5.332c2.24 0 4.057 1.816 4.057 4.057v4.868c0 2.241-1.816 4.057-4.057 4.057h-5.332v4.989c-0.001 2.24-1.817 4.057-4.057 4.057h-5.084c-2.24 0-4.056-1.817-4.057-4.057v-4.989h-5.356c-2.24-0.001-4.057-1.817-4.057-4.057v-4.868c0-2.24 1.817-4.056 4.057-4.057h5.356v-5.008c0-2.24 1.816-4.057 4.057-4.057h5.084zM13.47 13.576h-9.413v4.868h9.413v9.046h5.084v-9.046h9.389v-4.868h-9.389v-9.064h-5.084v9.064z"></path>
</symbol>
<symbol id="helmet" viewBox="0 0 32 32">
<path d="M16.048 7.143c-4.268 0-7.728 3.46-7.728 7.728 0 1.408 0.369 2.727 1.026 3.864h4.77l1.026-2.083c-1.159-0.379-1.992-1.461-1.992-2.747 0-1.601 1.297-2.898 2.898-2.898s2.898 1.297 2.898 2.898v0.966h4.83c0-4.268-3.46-7.728-7.728-7.728zM15.912 11.972c-0.489 0.034-0.946 0.253-1.279 0.612s-0.518 0.831-0.517 1.32c0 0.512 0.204 1.004 0.566 1.366s0.854 0.566 1.366 0.566 1.004-0.204 1.366-0.566c0.362-0.362 0.566-0.854 0.566-1.366 0.001-0.266-0.053-0.528-0.159-0.772s-0.26-0.463-0.454-0.644-0.423-0.321-0.674-0.409c-0.25-0.089-0.516-0.125-0.781-0.106z"></path>
</symbol>
<symbol id="kills" viewBox="0 0 32 32">
<path d="M20.37 0.607c-2.875-0.817-5.787-0.779-8.483-0.065-0.012 0.003-0.023 0.008-0.036 0.011-0.486 0.13-0.962 0.281-1.43 0.455-0.037 0.014-0.071 0.023-0.11 0.034-0.062 0.024-0.12 0.052-0.183 0.074-0.278 0.113-0.557 0.223-0.828 0.348-0.138 0.066-0.266 0.135-0.4 0.203-0.561 0.277-1.105 0.58-1.628 0.924-0.021 0.011-0.040 0.023-0.061 0.033-2.785 1.822-4.934 4.539-6.23 7.821-0.982 2.488-0.968 4.77-0.968 4.77-0.201 4.898 1.911 9.771 5.764 13.208l0.044-0.058c4.271 3.485 10.213 4.692 15.748 2.615 1.259-0.472 2.409-1.099 3.466-1.83 0.046-0.028 0.087-0.061 0.13-0.090 0.301-0.21 0.592-0.426 0.874-0.655 0.278-0.224 0.551-0.456 0.813-0.699 0.089-0.082 0.171-0.166 0.257-0.253 1.963-1.883 3.471-4.287 4.272-7.092 2.425-8.492-2.507-17.337-11.013-19.756zM22.827 17.469h5.717c-0.245 2.069-0.987 4.049-2.164 5.753-0.093 0.13-0.186 0.257-0.284 0.384-0.175 0.234-0.347 0.466-0.539 0.688-0.312 0.356-0.639 0.7-0.988 1.017-0.070 0.065-0.149 0.124-0.221 0.188-0.375 0.327-0.763 0.637-1.173 0.917-0.017 0.012-0.030 0.023-0.049 0.033-1.415 0.958-3.019 1.631-4.713 1.962l0.009 0.030c-0.318 0.064-0.634 0.093-0.95 0.13v-5.655c0-0.811-0.66-1.47-1.472-1.47s-1.472 0.659-1.472 1.47v5.668c-2.596-0.3-5.049-1.376-7.005-3.109-2.13-2.058-3.628-4.956-4.052-8.008h5.607c0.813 0 1.472-0.659 1.472-1.47s-0.659-1.47-1.472-1.47h-5.674c0.052-0.529 0.136-1.055 0.262-1.575 1.094-3.803 3.878-7.306 7.739-8.783 0.039-0.016 0.080-0.030 0.118-0.047 0.994-0.368 2.001-0.587 3.005-0.702v5.811c0 0.812 0.66 1.47 1.472 1.47s1.472-0.658 1.472-1.47v-5.8c4.546 0.555 8.635 3.542 10.357 8.12 0.368 0.981 0.602 1.979 0.719 2.976h-5.722c-0.812 0-1.471 0.659-1.471 1.47s0.659 1.47 1.471 1.47z"></path>
</symbol>
</defs>
</svg>
