<svg width="50" height="50" viewBox="0 0 50 50" fill="none" xmlns="http://www.w3.org/2000/svg">
<path d="M42.5398 40.2881C41.5778 40.2881 40.4546 40.7544 39.1718 41.683L32.0586 39.0542L39.2775 36.4234C40.4902 37.2116 41.6124 37.6059 42.6475 37.6059C43.7867 37.6059 44.5358 37.0145 44.8933 35.8356C44.9642 35.5852 44.9998 35.3146 44.9998 35.0286C44.9998 33.5291 44.037 32.7221 42.112 32.6163C42.895 31.8294 43.2893 31.0581 43.2893 30.3071C43.2893 29.5224 42.8774 28.8579 42.0586 28.3211C41.6308 28.1085 41.1849 28 40.7223 28C39.1528 28 38.0831 29.2686 37.5128 31.8104L24.9997 36.4806L12.4868 31.9188C11.9165 29.3069 10.8454 28 9.27771 28C8.81449 28 8.36843 28.1085 7.94036 28.3211C7.15734 28.8577 6.76462 29.5224 6.76462 30.3071C6.76462 31.0581 7.15734 31.8294 7.94036 32.6163C5.98059 32.7221 5 33.5291 5 35.0288C5 35.3146 5.03616 35.5854 5.10626 35.8356C5.49939 37.0145 6.24786 37.6059 7.3531 37.6059C8.38601 37.6059 9.50882 37.2116 10.7221 36.4236L17.9943 39.0542L10.8276 41.6282C9.58013 40.7351 8.47671 40.2881 7.5141 40.2881C6.3719 40.2881 5.57009 40.8796 5.10626 42.0584C5.03596 42.3087 5 42.5759 5 42.8642C5 44.3652 5.98039 45.172 7.94036 45.2778C7.15734 46.065 6.76462 46.8363 6.76462 47.5873C6.76462 48.3716 7.15734 49.0335 7.94036 49.5733C8.44076 49.8595 8.92095 50 9.38539 50C10.8454 50 11.8991 48.7481 12.5407 46.2448L24.9997 41.683L37.4597 46.2448C38.1017 48.7483 39.1718 50 40.6681 50C41.0966 50 41.5584 49.8595 42.0588 49.5733C42.8774 49.0335 43.2895 48.3716 43.2895 47.5873C43.2895 46.8363 42.895 46.065 42.1122 45.2778C44.037 45.172 45 44.3652 45 42.8642C45 42.5759 44.9642 42.3089 44.8935 42.0584C44.4653 40.8794 43.681 40.2881 42.5398 40.2881Z" fill="white"/>
<path d="M10.5107 22.6C12.1836 24.5486 14.5414 25.9736 17.5854 26.8685V27.5673C17.5854 28.4327 17.8737 29.1603 18.4518 29.7471C19.0293 30.3359 19.7445 30.6607 20.5967 30.7225C21.4787 30.7851 22.1319 30.6299 22.5583 30.2586C23.2271 30.7524 23.9727 31 24.7951 31C25.5554 31 26.2561 30.7693 26.8941 30.3052C27.3202 30.6443 27.9436 30.7852 28.7658 30.7226C29.6169 30.6301 30.3328 30.2973 30.9105 29.7252C31.4881 29.15 31.7768 28.4329 31.7768 27.5675V27.0573C35.0624 26.1903 37.6033 24.7365 39.3989 22.6921C41.1331 20.7444 42 18.4399 42 15.7782C42 15.1892 41.9388 14.5709 41.8167 13.9202C41.209 9.96299 39.4137 6.69669 36.4327 4.12942C33.2987 1.37735 29.4802 0 24.9775 0C20.4737 0 16.6555 1.36175 13.5229 4.0819C10.5407 6.68302 8.76134 9.96281 8.18344 13.9201C8.0612 14.5707 8 15.1891 8 15.778C8 18.377 8.83634 20.6494 10.5107 22.6ZM28.5149 10.6508C29.4125 9.58394 30.5 9.05007 31.7772 9.05007C33.0861 9.05007 34.1885 9.58394 35.0864 10.6508C35.9829 11.7161 36.4328 13.0082 36.4328 14.5232C36.4328 16.0396 35.983 17.3321 35.0864 18.3993C34.1885 19.4682 33.0859 20 31.7772 20C30.5 20 29.4125 19.4682 28.5149 18.3993C27.6165 17.3321 27.1677 16.0396 27.1677 14.5232C27.1676 13.0082 27.6165 11.7161 28.5149 10.6508ZM23.6772 21.2893C24.1179 20.7095 24.5505 20.4183 24.9775 20.4183C25.4033 20.4183 25.8054 20.7393 26.1864 21.3842C26.5666 22.0262 26.7583 22.6368 26.7583 23.2196C26.7583 24.1071 26.1788 24.5488 25.0227 24.5488C24.2617 24.5488 23.6991 24.3496 23.3345 23.9534C23.1212 23.706 23.0157 23.4016 23.0157 23.0331C23.0159 22.4529 23.2359 21.8721 23.6772 21.2893ZM14.4811 10.6508C15.394 9.58394 16.4896 9.05007 17.767 9.05007C19.0438 9.05007 20.1396 9.58394 21.053 10.6508C21.9661 11.7161 22.4233 13.0082 22.4233 14.5232C22.4233 16.0396 21.9663 17.3321 21.053 18.3993C20.1398 19.4682 19.0438 20 17.767 20C16.4896 20 15.394 19.4682 14.4811 18.3993C13.5687 17.3321 13.1115 16.0396 13.1115 14.5232C13.1115 13.0082 13.5687 11.7161 14.4811 10.6508Z" fill="white"/>
</svg>
