<svg width="50" height="50" viewBox="0 0 50 50" fill="none" xmlns="http://www.w3.org/2000/svg">
<path fill-rule="evenodd" clip-rule="evenodd" d="M28.6306 10.3263C28.5742 8.49938 28.5195 6.67577 28.4631 4.85052V4.37969C28.4631 3.9039 28.5062 2.97221 28.3255 2.66551C28.1448 2.36047 27.5729 1.87307 26.9412 2.03056C26.4754 2.14495 26.1422 2.49641 26.0294 2.96889C26.0212 3.51265 26.0112 4.05642 26.0013 4.59853C25.9068 5.03619 25.9466 5.62969 25.9466 6.09222V6.61775C25.8852 6.90455 25.988 7.31901 25.9184 7.63897C25.8554 7.92577 25.9582 8.34188 25.8902 8.6635C25.7907 9.1194 25.8305 9.819 25.8338 10.323H28.6306V10.3263ZM16.6827 9.13598C16.8733 9.50236 17.1866 9.90189 17.2911 10.3263H20.4443C20.3796 10.1356 20.237 9.98478 20.1392 9.82729C19.9303 9.49075 19.733 9.15587 19.5308 8.83094C18.9423 7.89593 18.3968 6.93439 17.8166 6.01099C17.4668 5.45728 17.248 4.8588 16.3511 4.85052C16.2649 4.9102 16.1406 4.90357 16.0461 4.95993C15.8024 5.10416 15.4957 5.32299 15.3813 5.59653C15.1193 6.2265 15.504 6.81006 15.7427 7.2013C16.1157 7.8147 16.3494 8.49938 16.6827 9.13598ZM37.6988 4.85052C37.4568 5.03951 37.1567 5.12074 36.9793 5.37439C36.6876 5.79547 36.477 6.24143 36.2051 6.67412C35.7758 7.35216 35.3049 8.04016 34.8772 8.71986C34.6236 9.12106 34.3766 9.51893 34.1312 9.90852C34.05 10.0362 34.0218 10.1754 33.9091 10.2683V10.3246C34.9817 10.3279 36.2234 10.2368 36.9512 10.5716C37.2446 9.96986 37.5762 9.36476 37.9193 8.80276C38.1166 8.47948 38.2194 8.133 38.4183 7.80806C38.6604 7.40853 38.9936 6.94434 39.1362 6.47849C39.423 5.5584 38.5145 4.82896 37.6988 4.85052ZM42.4286 17.4615C43.41 16.8531 44.4147 16.2878 45.3878 15.6927C45.7989 15.439 46.2565 15.2649 46.6312 14.9715C47.0838 14.6184 47.1169 13.6237 46.7704 13.1462C46.5483 12.8395 46.094 12.808 45.5536 12.8147C45.4823 12.8677 45.3928 12.8561 45.3066 12.8976C45.0678 13.0037 44.8076 13.1545 44.5606 13.2838C43.7515 13.7049 42.9127 14.0846 42.0987 14.5289C41.6295 14.7842 41.1256 15.0196 40.6332 15.2749C40.4492 15.371 40.2685 15.5269 40.0513 15.5799V18.8707C40.3547 18.7861 40.6083 18.554 40.8537 18.3999C41.3759 18.0749 41.9147 17.7798 42.4286 17.4615ZM36.8152 35.7407C37.2496 35.0875 37.1468 33.8706 37.1468 32.7815V17.4615C37.1468 16.0955 37.301 14.5554 36.5384 13.9503C35.7426 13.3153 34.8043 13.4513 33.4134 13.4513H1.80539C1.61972 13.506 1.4357 13.5607 1.25168 13.6154C0.782517 13.8193 0.344852 14.3034 0.144256 14.7775C-0.0961276 15.3478 0.0364978 16.931 0.0364978 17.7367V34.9084C0.167466 35.4472 0.502345 35.9247 0.89359 36.2082C1.59651 36.7188 2.38729 36.6226 3.57428 36.6226H33.5526C35.2005 36.6243 36.1322 36.7652 36.8152 35.7407ZM4.76294 31.5646C5.01327 32.1631 5.99304 32.9058 7.06068 32.6704C7.20657 32.6372 7.45358 32.6439 7.61273 32.5875C7.72049 32.5494 7.80338 32.4731 7.9443 32.4482C7.94595 32.7566 7.96916 33.0699 8.02719 33.3335C8.06863 33.5324 7.99071 33.7911 8.08189 33.9419C8.07361 34.3116 7.77022 34.232 7.47347 34.3017C7.11207 34.3879 6.18369 34.5437 5.70624 34.4409C5.39457 34.3746 5.05637 34.3696 4.7646 34.2735C3.79643 33.9618 3.10512 33.3948 2.71885 32.5046C2.57959 32.183 2.52654 31.7967 2.44365 31.427C2.28616 30.7307 2.47515 29.8571 2.6658 29.3813C3.12336 28.2307 3.88927 27.5643 5.126 27.1963C5.45757 27.0968 5.76758 27.1681 6.14722 27.0868C6.37268 27.0388 7.03084 27.0338 7.28117 27.0868C7.59947 27.1548 7.91777 27.2344 8.19463 27.309C8.06532 27.8412 7.93766 28.3783 7.80835 28.9121C7.29443 28.7894 6.5136 28.6004 5.90186 28.8027C5.03814 29.0829 4.26725 30.376 4.76294 31.5646ZM16.24 32.0901H14.995V34.2735H12.9493V32.0901H10.1028C9.70324 32.0901 9.11472 32.1747 8.77321 32.0603V30.623C8.8246 30.4738 8.99535 30.3113 9.07824 30.1803C9.27884 29.8637 9.46617 29.5471 9.66014 29.2404C10.2536 28.2954 10.7792 27.3388 11.3743 26.3922C11.6877 25.8916 12.0922 25.3909 12.3425 24.8422H14.9967V30.429H16.2699C16.2699 30.8799 16.3627 31.7188 16.24 32.0901ZM21.7423 34.2188C21.608 34.5537 20.421 34.4409 19.9171 34.4409C19.7231 34.4409 19.4579 34.4724 19.3086 34.4111C19.1594 34.3498 18.9191 34.1541 18.866 33.9966V31.9244C18.9705 31.8199 19.05 31.6774 19.171 31.5911C19.239 31.5414 19.3285 31.5331 19.3915 31.4817C19.9535 31.4734 21.4787 31.369 21.7158 31.6475C21.9413 31.9161 21.8534 32.6356 21.8534 33.113C21.8551 33.4728 21.9263 34.0281 21.7423 34.2188ZM21.8551 29.2967C21.8551 29.5006 21.8915 29.814 21.8004 29.9317C21.6379 30.4157 20.6598 30.2649 20.0315 30.2649H19.3683C18.7251 30.0593 18.8693 29.3879 18.8693 28.5772V27.7748C18.9572 27.4996 19.2042 27.4549 19.423 27.3057H20.9433C21.2085 27.3057 21.4953 27.2891 21.6346 27.4151C21.9711 27.551 21.8551 28.7878 21.8551 29.2967ZM25.4227 30.2649H24.7015C23.9804 30.2649 23.1465 30.3876 22.9028 29.9035C22.8249 29.746 22.8763 29.3929 22.8763 29.1856V27.745C22.9161 27.6173 23.052 27.498 23.1233 27.3869C23.2062 27.3587 23.2907 27.3322 23.3736 27.304H24.8938C25.1674 27.304 25.4426 27.2808 25.5852 27.4134C25.8653 27.5179 25.8322 27.9638 25.8322 28.3518C25.8355 29.0994 25.9913 30.0759 25.4227 30.2649ZM25.7261 34.1906C25.5769 34.5935 24.4462 34.4409 23.8992 34.4409H23.3189C22.7337 34.2785 22.8763 33.4297 22.8763 32.6986V31.9244C22.9293 31.7337 23.1233 31.6442 23.236 31.5083C23.2907 31.4966 23.2874 31.5016 23.3189 31.4801C23.9638 31.4701 25.4708 31.3458 25.7244 31.7022C25.9184 31.9708 25.8338 32.6422 25.8338 33.0848C25.8355 33.4429 25.9068 34 25.7261 34.1906ZM29.791 33.3053V33.9701C29.7513 34.1293 29.6485 34.2387 29.5689 34.3564C29.0666 34.489 27.1966 34.5653 26.9412 34.2171C26.7357 33.937 26.8318 32.9323 26.8318 32.4466C26.8318 32.2626 26.7937 31.9758 26.86 31.8382C26.9479 31.6641 27.1551 31.5961 27.3027 31.4801H28.8544C29.055 31.4801 29.3451 31.4453 29.4611 31.5348C29.9353 31.7039 29.791 32.6737 29.791 33.3053ZM29.4048 30.2649H28.6853C27.9641 30.2649 27.1037 30.3876 26.8584 29.9035C26.7821 29.751 26.8302 29.4144 26.8302 29.2122V27.745C26.8666 27.6306 26.9893 27.5179 27.0523 27.4151C27.1551 27.3786 27.2546 27.3405 27.3574 27.3057H28.8776C29.1097 27.3057 29.3898 27.2775 29.5142 27.3886C29.8093 27.493 29.791 27.9224 29.791 28.3269C29.791 29.0431 29.9469 30.0825 29.4048 30.2649ZM33.662 34.1641C33.5112 34.5968 32.4369 34.4409 31.8666 34.4409H31.2847C30.6481 34.2818 30.7857 33.5026 30.7857 32.7251C30.7857 32.4731 30.726 32.0686 30.8139 31.868C30.8935 31.6873 31.1173 31.6077 31.2566 31.4817H32.8066C33.0072 31.4817 33.2973 31.4469 33.415 31.5364C33.9057 31.7072 33.7449 32.7433 33.7449 33.3899C33.7449 33.6584 33.7847 34.0116 33.662 34.1641ZM33.7449 29.2138V29.8222C33.7002 29.993 33.5576 30.0792 33.4681 30.2085C33.0437 30.3096 32.4071 30.2649 31.8932 30.2649H31.2566C31.1587 30.235 31.0327 30.1339 30.9515 30.0709C30.6548 29.8339 30.7857 28.8392 30.7857 28.3269V27.7748C30.8288 27.619 30.9747 27.5046 31.0626 27.3886L31.3096 27.3057H32.8033C33.0487 27.3057 33.3272 27.2808 33.4648 27.3886C33.9008 27.5411 33.7449 28.6386 33.7449 29.2138ZM33.9107 25.812C33.7615 26.2281 33.0288 26.117 32.4734 26.117H21.5235C20.799 26.117 19.3435 26.2579 18.924 25.9512C18.5643 25.6876 18.7019 24.1442 18.7019 23.4894V18.4015C18.7019 17.9407 18.609 16.563 18.7583 16.2729C18.866 16.0607 19.1197 16.0209 19.3103 15.8866H32.3905C33.0934 15.8866 33.4515 15.8253 33.8842 16.1088C34.0599 16.7918 33.9936 17.8528 33.9936 18.7066V25.0958C33.9936 25.3528 34.0251 25.6644 33.9107 25.812ZM22.4336 21.1668V21.1386C22.6011 21.0474 22.7669 20.9562 22.9326 20.8634C22.9708 20.7755 22.8547 20.6197 22.8216 20.5036C22.6309 20.5965 22.3673 20.6943 22.2148 20.8336H22.1584C22.2082 20.6893 22.1899 20.4357 22.2679 20.3113V20.255H21.8236V20.8352C21.6445 20.7855 21.3975 20.6263 21.2715 20.5053C21.1886 20.5899 21.1571 20.7225 21.0775 20.8087C21.1339 20.9529 21.4108 21.0789 21.5467 21.1402C21.4522 21.2629 21.2234 21.379 21.0775 21.4453C21.1157 21.5845 21.187 21.7089 21.245 21.8316C21.4323 21.8017 21.6777 21.6691 21.7987 21.5564H21.8252V22.1648H22.2695C22.2513 22.0156 22.2347 21.7271 22.1601 21.6111V21.5829C22.3624 21.6111 22.6657 21.7387 22.7967 21.8597H22.8216C22.868 21.7205 22.9144 21.5829 22.9608 21.4436C22.7984 21.3674 22.5895 21.2861 22.4635 21.1684H22.4336V21.1668ZM25.1724 21.1386C25.3464 21.0938 25.605 20.9778 25.7261 20.8634C25.7476 20.8336 25.736 20.8551 25.7543 20.807C25.6879 20.7407 25.6167 20.6015 25.5885 20.5036C25.3995 20.5633 25.1176 20.7042 24.98 20.8336H24.9253C24.9701 20.6412 25.0182 20.4473 25.0629 20.2533H24.5639V20.8336C24.3932 20.7457 24.2705 20.6147 24.0948 20.5285V20.502H24.0682C24.0053 20.6031 23.9108 20.686 23.8743 20.8054H23.8461C23.8992 20.9463 24.2241 21.0971 24.37 21.1369V21.1668C24.1694 21.2215 24.0251 21.3574 23.8461 21.442C23.8809 21.5829 23.9754 21.7371 24.0682 21.8282C24.0898 21.8597 24.4529 21.6409 24.5092 21.5812H24.5639V22.1631H25.0629C25.0447 22.0056 25.0066 21.752 24.9253 21.6376V21.5547C25.1375 21.6575 25.3481 21.757 25.5603 21.8597C25.6614 21.7553 25.6846 21.5779 25.7824 21.4735C25.6382 21.3326 25.3796 21.3027 25.2304 21.1684C25.1806 21.1485 25.2005 21.1601 25.1724 21.1386ZM28.3802 20.5285C28.3504 20.507 27.8928 20.7689 27.8265 20.8336H27.7735C27.7901 20.6412 27.8083 20.4473 27.8265 20.2533H27.3839V20.8336C27.1733 20.7739 27.0092 20.6064 26.8302 20.5036C26.7854 20.6031 26.7357 20.754 26.6644 20.8336C26.7738 20.9496 26.9661 21.059 27.107 21.1386C27.0275 21.2546 26.807 21.4005 26.6644 21.4436C26.7158 21.5663 26.7738 21.689 26.8036 21.8299C26.9943 21.8001 27.2347 21.6691 27.3557 21.5547H27.3839V22.1631H27.8265C27.8265 22.0255 27.8348 21.7619 27.7735 21.6641V21.5547C27.9741 21.6575 28.1763 21.757 28.3802 21.8597C28.4217 21.7536 28.4515 21.6127 28.5178 21.5282C28.4714 21.316 28.1349 21.2911 27.9923 21.1684C27.9459 21.1502 27.9674 21.1618 27.9393 21.1386C28.1316 21.0474 28.3255 20.9562 28.5195 20.8634C28.5029 20.7424 28.4482 20.6031 28.3802 20.5285ZM48.982 23.5176C48.5128 23.5076 48.0436 23.4977 47.5712 23.4877C46.8517 23.4595 46.1338 23.4347 45.4143 23.4048H44.6683C44.2489 23.3136 43.6803 23.3501 43.2293 23.3501H42.732C42.4634 23.2921 42.0672 23.3883 41.7638 23.3219C41.3162 23.2241 40.5553 23.2623 40.0496 23.2656V26.0607C40.5801 26.0607 41.3328 26.1087 41.8202 26.0059C42.1849 25.9264 42.6491 26.0491 42.9806 25.9761H43.5625C44.0831 25.9761 44.8258 26.0242 45.3049 25.9214H45.8851C46.4057 25.9214 47.1484 25.9695 47.6275 25.8683H48.7897C49.476 25.7191 49.8225 25.5683 49.9783 24.9002C50.1358 24.2288 49.3981 23.6303 48.982 23.5176ZM12.2845 27.997C12.0656 28.3501 11.817 28.7364 11.5932 29.1011C11.3627 29.4841 11.1986 30.0676 10.9018 30.3743V30.4307H12.9476V27.7467C13.0305 27.3687 13.0338 26.9509 13.0321 26.5033H12.9493C12.7238 26.9725 12.563 27.5494 12.2845 27.997ZM45.4989 33.8325C44.4627 33.1777 43.3951 32.5577 42.3474 31.8962C41.8318 31.5713 41.2963 31.2612 40.7724 30.928C40.5553 30.7904 40.3232 30.555 40.0513 30.4854V33.6651C40.096 33.7579 40.2933 33.7778 40.3828 33.8325C40.736 34.048 41.1239 34.2171 41.4886 34.4409C42.2181 34.8852 43.0155 35.2334 43.7565 35.6843C44.2257 35.9711 44.7495 36.3126 45.2502 36.543C45.7194 36.7586 46.5234 36.6608 46.7704 36.3226C47.1633 35.7821 47.0324 34.7907 46.5483 34.4409C46.2184 34.1989 45.8454 34.053 45.4989 33.8325ZM37.3126 39.363H37.0075C36.8119 39.4907 36.4356 39.3796 36.2333 39.5006H34.2141C34.3534 39.9267 34.8308 40.5019 35.0729 40.8849C35.7128 41.9028 36.2814 42.9356 36.9246 43.9535C37.102 44.237 37.6839 44.794 38.2525 44.5619C38.7516 44.3597 39.3981 43.7728 39.1362 42.9323C38.5277 41.7403 37.921 40.55 37.3126 39.363ZM16.5716 40.3577C16.2964 40.9843 16.0179 41.5563 15.7427 42.1846C15.6233 42.4565 15.4244 42.7135 15.3266 43.0135C15.0646 43.8292 15.746 44.4442 16.2665 44.5901C17.0093 44.7957 17.4768 43.9585 17.7055 43.5921C18.2443 42.7267 18.7964 41.8315 19.3352 40.9661C19.6004 40.5367 19.8673 39.8819 20.1939 39.5288V39.4989H16.986C16.8998 39.8139 16.6943 40.0808 16.5716 40.3577ZM28.6306 39.5006H25.8355C25.8338 39.9847 25.799 40.6395 25.8919 41.0772C25.9548 41.3822 25.8604 41.7768 25.92 42.0454C25.9847 42.3504 25.8885 42.745 25.9482 43.0135V43.5109C25.9482 43.9601 25.9134 44.5288 26.0029 44.9482C26.0129 45.4571 26.0228 45.9628 26.0311 46.4701C26.1571 47.0089 26.5152 47.3388 27.054 47.4664C27.6077 47.5957 28.2178 47.0238 28.3537 46.7204C28.5162 46.3524 28.4631 45.6495 28.4631 45.1703V44.7012C28.5178 42.9688 28.5742 41.2347 28.6306 39.5006Z" fill="white"/>
</svg>
