<svg width="50" height="50" viewBox="0 0 50 50" fill="none" xmlns="http://www.w3.org/2000/svg">
<g clip-path="url(#clip0_359_292)">
<path fill-rule="evenodd" clip-rule="evenodd" d="M49.805 20.4659V21.9571C49.805 22.0653 49.7686 22.1518 49.6975 22.2222C49.5882 22.4367 49.4115 22.6316 49.1601 22.8065C48.9453 22.9867 48.6939 23.1094 48.4061 23.1798C48.0819 23.2861 47.7778 23.3222 47.4936 23.2861C47.1329 23.2158 46.7742 23.0589 46.4171 22.8065C44.0857 21.2809 41.951 20.1431 40.0167 19.4002C38.0804 18.6879 36.2682 18.2461 34.5833 18.0677C33.0424 18.0333 31.6436 18.0857 30.3868 18.2281C29.2047 18.4066 28.1118 18.5671 27.1064 18.7095C26.3887 18.852 25.6893 18.9224 25.0082 18.9224C24.3269 18.9566 23.6475 18.9746 22.9644 18.9746H22.6421C22.2486 18.7979 21.8553 18.6357 21.46 18.4932C21.1722 18.3508 20.8481 18.2461 20.491 18.1739C20.134 18.0659 19.8662 17.9793 19.686 17.909C19.5056 18.192 19.3435 18.4589 19.1996 18.7077C19.0575 18.9206 18.8426 19.0973 18.5567 19.2397C18.6987 19.4886 19.0047 19.9682 19.4674 20.6769C19.9354 21.3151 20.3817 21.9193 20.8133 22.4855C20.7787 22.5594 20.7787 22.6118 20.8133 22.6496C20.8133 22.7542 20.8862 22.8065 21.0301 22.8065L22.6421 24.139C23.0356 24.139 23.0356 24.332 22.6421 24.725C22.5346 24.8314 22.4654 24.8837 22.4272 24.8837C22.3926 24.8837 22.2851 24.8314 22.1047 24.725L21.2979 24.139C21.6221 25.0983 21.8571 26.0721 21.9974 27.0674C22.1047 28.0628 22.2486 29.179 22.4272 30.4214C22.9644 33.0145 23.9353 35.373 25.3324 37.5026C26.7312 39.634 28.6328 41.4607 31.0333 42.9879C31.394 43.2729 31.6254 43.5199 31.7328 43.7327C31.7675 43.9815 31.7875 44.1943 31.7875 44.3728V44.6919C31.7875 44.9768 31.7328 45.2239 31.6254 45.4368C31.5179 45.6855 31.3758 45.8623 31.1956 45.9686C31.1956 46.1472 31.1408 46.3419 31.0333 46.5546C30.8894 46.7332 30.5853 46.8197 30.1208 46.8197C29.8331 47.1408 29.2957 47.0326 28.5071 46.4988L28.2393 46.3401C25.3342 44.5279 23.0228 42.4343 21.2997 40.0578C19.6167 37.6433 18.4146 34.9997 17.6969 32.1254C17.5549 30.9876 17.4456 29.9778 17.3728 29.0888C17.2307 28.2017 17.1578 27.3668 17.1578 26.5859C16.9793 26.0179 16.8718 25.4481 16.8354 24.8819C16.8026 24.2778 16.7479 23.8541 16.6751 23.6052L16.0832 22.9687L15.0067 21.2124C14.6479 20.8571 14.3619 20.52 14.1469 20.199C13.8975 19.8798 13.6989 19.6148 13.555 19.402C13.3401 19.1893 13.2326 19.0468 13.2326 18.9764C13.0906 18.9043 12.7864 18.7835 12.3201 18.605C11.8902 18.3886 11.4404 18.1939 10.9741 18.0171C10.4021 17.8044 9.77375 17.5753 9.09072 17.3265L0.267749 10.1894L0 9.81794C0 9.67547 0.0910711 9.60516 0.267749 9.60516V9.33828C0.267749 9.15977 0.448069 9.07321 0.805069 9.07321L10.2182 12.6399C10.3621 12.7463 10.4331 12.8708 10.4331 13.0114C10.4695 13.1557 10.4896 13.2945 10.4896 13.437C10.4896 13.9707 10.5788 14.2358 10.7573 14.2358C11.1161 14.3422 11.3839 14.326 11.5642 14.1853C11.7081 14.1132 11.8156 14.0428 11.8866 13.9725V13.7057L12.9084 12.3731C13.0523 12.126 13.0705 11.9295 12.9631 11.7888C12.7846 11.7149 12.6206 11.6806 12.4767 11.6806L12.1562 11.787C11.9777 11.787 11.7992 11.787 11.617 11.787C11.4003 11.751 11.2946 11.6626 11.2946 11.522L5.26937 3.64014V3H6.07626L14.0906 8.53946H14.4129C14.9885 9.31844 15.4894 10.0109 15.9192 10.6168C16.3144 11.1487 16.6715 11.6464 16.9957 12.1062C17.3892 12.5336 17.6222 12.7806 17.6951 12.8509C17.8736 12.9213 18.2343 13.0294 18.7715 13.1719C19.2707 13.3486 19.8099 13.5091 20.3836 13.6515C20.9937 13.8301 21.5657 13.9725 22.1047 14.0771C22.6057 14.1853 22.8935 14.2376 22.9644 14.2376C23.3233 14.2376 24.4017 14.1474 26.1921 13.9725C27.9133 13.7922 30.2429 13.7075 33.1826 13.7075C34.9039 13.7075 36.321 13.7597 37.4303 13.8661C38.545 14.0086 39.6378 14.2917 40.7125 14.7191C41.7889 15.1807 42.9892 15.819 44.3189 16.6359C45.6431 17.487 47.3479 18.6375 49.4261 20.0944C49.6083 20.199 49.7321 20.3253 49.805 20.4659ZM22.6421 20.8409L24.8479 21.692C25.0264 21.692 25.1156 21.8687 25.1156 22.224C24.9735 22.224 24.8843 22.26 24.8479 22.3322C24.8114 22.4007 24.7204 22.3683 24.5783 22.224L22.4272 21.692C22.2486 21.692 22.1412 21.638 22.1047 21.5316C22.1047 21.3891 22.1047 21.2827 22.1047 21.2124C22.1047 20.9978 22.1758 20.8915 22.3179 20.8915C22.4272 20.8571 22.5346 20.8409 22.6421 20.8409ZM22.9644 20.0926C22.9644 19.9537 23.001 19.8636 23.0719 19.8293C23.1083 19.7536 23.1612 19.7193 23.2322 19.7193L25.4381 20.0908C25.5819 20.0908 25.7258 20.1431 25.8697 20.2531C25.9753 20.3577 26.03 20.464 26.03 20.5722C26.03 20.7147 25.9753 20.8031 25.8697 20.8391C25.7239 20.8391 25.58 20.8391 25.4381 20.8391L23.2322 20.5722C23.0556 20.574 22.9644 20.4153 22.9644 20.0926ZM24.0937 23.6089C23.8807 23.6089 23.7186 23.6269 23.6111 23.6612C23.5382 23.7314 23.5036 23.7134 23.5036 23.6089L21.5657 22.4873C21.389 22.4873 21.2979 22.3124 21.2979 21.9571C21.4418 21.9571 21.531 21.9211 21.5657 21.8507C21.6039 21.7804 21.7132 21.8129 21.8881 21.9571L23.7186 22.9687C23.9335 22.9687 24.061 23.0409 24.0937 23.1816C24.0937 23.324 24.0937 23.4665 24.0937 23.6089Z" fill="white"/>
</g>
<defs>
<clipPath id="clip0_359_292">
<rect width="50" height="44" fill="white" transform="translate(0 3)"/>
</clipPath>
</defs>
</svg>
