<svg width="50" height="50" viewBox="0 0 50 50" fill="none" xmlns="http://www.w3.org/2000/svg">
<path d="M41.625 6.25C42.9367 6.25 44 5.20068 44 3.90625V2.34375C44 1.04932 42.9367 0 41.625 0H8.375C7.06331 0 6 1.04932 6 2.34375V3.90625C6 5.20068 7.06331 6.25 8.375 6.25C8.375 15.1333 13.4235 22.6303 20.3333 25C13.4235 27.3697 8.375 34.8667 8.375 43.75C7.06331 43.75 6 44.7993 6 46.0937V47.6562C6 48.9507 7.06331 50 8.375 50H41.625C42.9367 50 44 48.9507 44 47.6562V46.0937C44 44.7993 42.9367 43.75 41.625 43.75C41.625 34.8667 36.5765 27.3697 29.6667 25C36.5765 22.6303 41.625 15.1333 41.625 6.25ZM25 20.3125C19.2815 20.3125 14.7083 13.8166 14.7083 6.25H35.2917C35.2917 13.8618 30.6891 20.3125 25 20.3125Z" fill="white"/>
</svg>
