<svg width="50" height="50" viewBox="0 0 50 50" fill="none" xmlns="http://www.w3.org/2000/svg">
<path fill-rule="evenodd" clip-rule="evenodd" d="M28.9903 0.710938C32.491 0.710938 35.329 3.54885 35.329 7.0496V14.8739H43.6608C47.1615 14.8739 49.9994 17.7119 49.9995 21.2125V28.8181C49.9995 32.3189 47.1616 35.1568 43.6608 35.1568H35.329V42.9522C35.3279 46.452 32.4904 49.2908 28.9903 49.2908H21.0463C17.5463 49.2908 14.7088 46.452 14.7077 42.9522V35.1568H6.33866C2.83874 35.1558 0 32.3183 0 28.8181V21.2125C0.000106671 17.7125 2.8388 14.8748 6.33866 14.8739H14.7077V7.0496C14.7077 3.54885 17.5456 0.710938 21.0463 0.710938H28.9903ZM21.0463 21.2125H6.33866V28.8181H21.0463V42.9522H28.9903V28.8181H43.6608V21.2125H28.9903V7.0496H21.0463V21.2125Z" fill="white"/>
</svg>
