<svg width="50" height="50" viewBox="0 0 50 50" fill="none" xmlns="http://www.w3.org/2000/svg">
<path d="M31.8274 0.948089C27.3348 -0.329208 22.785 -0.268632 18.5732 0.845974C18.5541 0.851167 18.5368 0.85809 18.5177 0.863282C17.7586 1.06578 17.015 1.30289 16.2836 1.57462C16.2264 1.59712 16.1726 1.61097 16.112 1.62828C16.0149 1.66635 15.9248 1.70962 15.826 1.74424C15.391 1.92077 14.9559 2.09212 14.533 2.28769C14.3181 2.39154 14.117 2.49885 13.9073 2.60442C13.0303 3.03711 12.181 3.51134 11.3629 4.04787C11.33 4.06518 11.3005 4.08422 11.2676 4.09979C6.91536 6.94689 3.55806 11.1924 1.53363 16.3207C-0.000299908 20.2079 0.0204993 23.7733 0.0204993 23.7733C-0.293219 31.4267 3.00689 39.0403 9.02646 44.4108L9.09579 44.3208C15.7688 49.7658 25.0538 51.6523 33.7027 48.4071C35.67 47.6698 37.4673 46.6902 39.1191 45.5479C39.1902 45.5046 39.2543 45.4527 39.3219 45.4077C39.7916 45.0789 40.2475 44.7414 40.6877 44.3849C41.1228 44.0352 41.5491 43.6718 41.9582 43.2927C42.0969 43.1647 42.2251 43.0331 42.3603 42.8981C45.4282 39.9558 47.7836 36.2001 49.0351 31.8161C52.8239 18.5481 45.1179 4.72633 31.8274 0.948089ZM35.6665 27.2954H44.5997C44.2166 30.5284 43.0571 33.6213 41.2181 36.2849C41.0725 36.4874 40.9269 36.6865 40.7744 36.8855C40.5005 37.2507 40.2319 37.6141 39.932 37.9603C39.445 38.5159 38.9337 39.0541 38.3877 39.5491C38.2785 39.6512 38.1554 39.743 38.0428 39.8433C37.4569 40.3539 36.8503 40.8385 36.2107 41.2764C36.1847 41.2955 36.1639 41.3128 36.1345 41.3283C33.9229 42.8254 31.4166 43.876 28.7699 44.3935L28.7838 44.4402C28.2863 44.5406 27.7924 44.5856 27.3001 44.6427V35.8072C27.3001 34.5403 26.2688 33.5105 25.0001 33.5105C23.7313 33.5105 22.7001 34.5403 22.7001 35.8072V44.6635C18.6443 44.1945 14.8103 42.5139 11.7546 39.8053C8.42676 36.5895 6.08514 32.0619 5.42304 27.2936H14.1846C15.4551 27.2936 16.4846 26.2638 16.4846 24.9969C16.4846 23.73 15.4551 22.7002 14.1846 22.7002H5.31904C5.4005 21.8729 5.53223 21.0525 5.72809 20.2391C7.43707 14.2974 11.7875 8.82302 17.821 6.51593C17.8816 6.4917 17.9458 6.4692 18.0047 6.44324C19.5577 5.86863 21.1315 5.52594 22.7001 5.34594V14.4255C22.7001 15.6941 23.7313 16.7222 25.0001 16.7222C26.2688 16.7222 27.3001 15.6941 27.3001 14.4255V5.36325C34.403 6.23035 40.7917 10.8982 43.4835 18.0514C44.0589 19.5849 44.4246 21.1443 44.6066 22.702H35.6665C34.3978 22.702 33.3682 23.7317 33.3682 24.9987C33.3682 26.2656 34.3978 27.2954 35.6665 27.2954Z" fill="white"/>
</svg>
